<svg width="38" height="38" viewBox="0 0 38 38" fill="none" xmlns="http://www.w3.org/2000/svg">
<path d="M3.8 7.59961H0V34.1996C0 36.2896 1.71 37.9996 3.8 37.9996H30.4V34.1996H3.8V7.59961Z" fill="#B2B5BD"/>
<path d="M34.2 0H11.4C9.30998 0 7.59998 1.71 7.59998 3.8V26.6C7.59998 28.69 9.30998 30.4 11.4 30.4H34.2C36.29 30.4 38 28.69 38 26.6V3.8C38 1.71 36.29 0 34.2 0ZM22.819 24.7C21.698 24.7 20.824 23.807 20.824 22.705C20.824 21.584 21.717 20.729 22.819 20.729C23.94 20.729 24.795 21.584 24.795 22.705C24.776 23.807 23.94 24.7 22.819 24.7ZM27.569 12.977C26.372 14.744 25.232 15.276 24.605 16.416C24.358 16.872 24.263 17.176 24.263 18.658H21.375C21.375 17.879 21.261 16.606 21.869 15.523C22.648 14.136 24.111 13.319 24.966 12.103C25.878 10.811 25.365 8.417 22.8 8.417C21.128 8.417 20.292 9.69 19.95 10.754L17.347 9.671C18.069 7.524 19.988 5.7 22.781 5.7C25.118 5.7 26.733 6.764 27.55 8.094C28.253 9.253 28.652 11.381 27.569 12.977Z" fill="#B2B5BD"/>
</svg>
