<svg width="51" height="51" viewBox="0 0 51 51" fill="none" xmlns="http://www.w3.org/2000/svg">
<path d="M41.4375 7.4375L38.25 4.25L35.0625 7.4375L31.875 4.25L28.6875 7.4375L25.5 4.25L22.3125 7.4375L19.125 4.25L15.9375 7.4375L12.75 4.25L9.5625 7.4375L6.375 4.25V46.75L9.5625 43.5625L12.75 46.75L15.9375 43.5625L19.125 46.75L22.3125 43.5625L25.5 46.75L28.6875 43.5625L31.875 46.75L35.0625 43.5625L38.25 46.75L41.4375 43.5625L44.625 46.75V4.25L41.4375 7.4375ZM40.375 40.5662H10.625V10.4337H40.375V40.5662ZM12.75 31.875H38.25V36.125H12.75V31.875ZM12.75 23.375H38.25V27.625H12.75V23.375ZM12.75 14.875H38.25V19.125H12.75V14.875Z" fill="#F1F1F2" fill-opacity="0.7"/>
</svg>
