<?xml version="1.0" encoding="utf-8"?>
<!-- Generated by IcoMoon.io -->
<!DOCTYPE svg PUBLIC "-//W3C//DTD SVG 1.1//EN" "http://www.w3.org/Graphics/SVG/1.1/DTD/svg11.dtd">
<svg version="1.1" xmlns="http://www.w3.org/2000/svg" xmlns:xlink="http://www.w3.org/1999/xlink" width="16" height="16" viewBox="0 0 16 16">
<path fill="#000000" d="M13.739 3.061l-5.5-3c-0.075-0.041-0.157-0.061-0.239-0.061s-0.165 0.020-0.239 0.061l-5.5 3c-0.161 0.088-0.261 0.256-0.261 0.439v4c0 2.2 0.567 3.978 1.735 5.437 0.912 1.14 2.159 2.068 4.042 3.010 0.070 0.035 0.147 0.053 0.224 0.053s0.153-0.018 0.224-0.053c1.883-0.942 3.13-1.87 4.042-3.010 1.167-1.459 1.735-3.238 1.735-5.437l0-4c0-0.183-0.1-0.351-0.261-0.439zM12.5 7.5c0 0.953-0.117 1.784-0.359 2.541-0.232 0.728-0.575 1.369-1.047 1.96-0.699 0.874-1.664 1.617-3.094 2.375 0 0-0-0-0-0v-12.736l0-0 4.5 2.455-0 3.406z"></path>
</svg>
