<svg width="10" height="10" viewBox="0 0 10 10" fill="none" xmlns="http://www.w3.org/2000/svg">
<path fill-rule="evenodd" clip-rule="evenodd" d="M0.765625 8.58212V0.0117644H7.82445C8.00979 0.0102682 8.19358 0.0455754 8.36517 0.115639C8.53676 0.185703 8.69273 0.28913 8.82405 0.419924C8.95537 0.550719 9.05942 0.706279 9.13017 0.877586C9.20092 1.04889 9.23697 1.23254 9.23621 1.41788V9.98824H2.17739C1.80394 9.98824 1.44571 9.84027 1.18111 9.57674C0.916517 9.3132 0.767119 8.95556 0.765625 8.58212ZM5.32092 6.98588C5.31995 6.86602 5.27216 6.75128 5.18776 6.66617C5.10335 6.58105 4.98901 6.53231 4.86915 6.53035H3.17504C3.05422 6.53035 2.93836 6.57835 2.85293 6.66377C2.7675 6.7492 2.71951 6.86507 2.71951 6.98588C2.71951 7.1067 2.7675 7.22256 2.85293 7.30799C2.93836 7.39342 3.05422 7.44141 3.17504 7.44141H4.86915C4.98901 7.43945 5.10335 7.39071 5.18776 7.3056C5.27216 7.22049 5.31995 7.10575 5.32092 6.98588ZM7.29739 4.66682C7.29642 4.54696 7.24863 4.43222 7.16423 4.34711C7.07982 4.26199 6.96548 4.21326 6.84562 4.21129H3.15621C3.04022 4.21875 2.93141 4.27008 2.85189 4.35487C2.77238 4.43965 2.72813 4.55153 2.72813 4.66776C2.72813 4.784 2.77238 4.89588 2.85189 4.98066C2.93141 5.06545 3.04022 5.11678 3.15621 5.12424H6.84562C6.96565 5.12179 7.07999 5.07264 7.16435 4.98722C7.24871 4.90181 7.29643 4.78687 7.29739 4.66682ZM7.29739 2.34965C7.29595 2.22993 7.24801 2.11546 7.1637 2.03045C7.07939 1.94544 6.96533 1.89655 6.84562 1.89412H3.15621C3.04022 1.90157 2.93141 1.9529 2.85189 2.03769C2.77238 2.12248 2.72813 2.23435 2.72813 2.35059C2.72813 2.46682 2.77238 2.5787 2.85189 2.66349C2.93141 2.74827 3.04022 2.79961 3.15621 2.80706H6.84562C6.9658 2.80509 7.08042 2.75609 7.16488 2.67057C7.24934 2.58506 7.29691 2.46984 7.29739 2.34965Z" fill="#888D9A"/>
</svg>
