<svg width="19" height="16" viewBox="0 0 19 16" fill="none" xmlns="http://www.w3.org/2000/svg">
<path fill-rule="evenodd" clip-rule="evenodd" d="M17 0C18.1046 0 19 0.895431 19 2V14C19 15.1046 18.1046 16 17 16H2C0.895431 16 0 15.1046 0 14V2C0 0.895431 0.895431 0 2 0H17ZM15 2C15 2.55228 14.5523 3 14 3C13.4477 3 13 2.55228 13 2C13 1.44772 13.4477 1 14 1C14.5523 1 15 1.44772 15 2ZM17 3C17.5523 3 18 2.55228 18 2C18 1.44772 17.5523 1 17 1C16.4477 1 16 1.44772 16 2C16 2.55228 16.4477 3 17 3ZM12 2C12 2.55228 11.5523 3 11 3C10.4477 3 10 2.55228 10 2C10 1.44772 10.4477 1 11 1C11.5523 1 12 1.44772 12 2ZM2 4C1.44772 4 1 4.44771 1 5V14C1 14.5523 1.44772 15 2 15H17C17.5523 15 18 14.5523 18 14V5C18 4.44772 17.5523 4 17 4H2Z" fill="#F1F1F2" fill-opacity="0.7"/>
</svg>
