<svg width="35" height="46" viewBox="0 0 35 46" fill="none" xmlns="http://www.w3.org/2000/svg">
<path d="M17.5 9.39167C21 11.5 24.3056 12.4583 27.2222 12.8417V27.7917C27.2222 30.8583 26.4444 31.4333 17.5 36.9917V9.39167ZM35 5.75C35 5.75 35 19.3583 35 27.7917C35 36.6083 28.7778 38.9083 17.5 46C6.22222 38.9083 0 36.6083 0 27.7917C0 19.3583 0 5.75 0 5.75C6.80556 5.75 10.8889 5.55833 17.5 0C24.1111 5.55833 28.1944 5.75 35 5.75ZM31.1111 9.58333C26.4444 9.39167 22.3611 8.43333 17.5 4.98333C12.6389 8.24167 8.55556 9.2 3.88889 9.58333V27.9833C3.88889 33.7333 7.19444 35.2667 17.5 41.5917C27.8056 35.2667 31.1111 33.7333 31.1111 27.9833V9.58333Z" fill="#075AD3"/>
<path d="M17.5 9.39167C21 11.5 24.3056 12.4583 27.2222 12.8417V27.7917C27.2222 30.8583 26.4444 31.4333 17.5 36.9917V9.39167ZM35 5.75C35 5.75 35 19.3583 35 27.7917C35 36.6083 28.7778 38.9083 17.5 46C6.22222 38.9083 0 36.6083 0 27.7917C0 19.3583 0 5.75 0 5.75C6.80556 5.75 10.8889 5.55833 17.5 0C24.1111 5.55833 28.1944 5.75 35 5.75ZM31.1111 9.58333C26.4444 9.39167 22.3611 8.43333 17.5 4.98333C12.6389 8.24167 8.55556 9.2 3.88889 9.58333V27.9833C3.88889 33.7333 7.19444 35.2667 17.5 41.5917C27.8056 35.2667 31.1111 33.7333 31.1111 27.9833V9.58333Z" fill="white" fill-opacity="0.5"/>
</svg>
