<svg width="11" height="11" viewBox="0 0 11 11" fill="none" xmlns="http://www.w3.org/2000/svg">
<path fill-rule="evenodd" clip-rule="evenodd" d="M0.0117188 9.24481V2.80528C0.0141911 2.33876 0.200611 1.89205 0.530494 1.56217C0.860377 1.23229 1.30708 1.04587 1.7736 1.0434H7.6089L4.63289 4.02316C4.56379 4.0892 4.51762 4.1756 4.50113 4.26975L4.12466 6.40998C4.11131 6.48245 4.11573 6.55707 4.13756 6.62745C4.15938 6.69783 4.19796 6.76187 4.24997 6.81406C4.30198 6.86626 4.36588 6.90506 4.43618 6.92714C4.50648 6.94921 4.58109 6.9539 4.6536 6.94081L6.79572 6.56434C6.88915 6.54734 6.97481 6.50122 7.04042 6.43257L9.95807 3.51493V9.22598C9.9556 9.69283 9.76892 10.1398 9.43863 10.4698C9.10834 10.7997 8.66115 10.9859 8.19431 10.9879H1.75478C1.2931 10.9859 0.850897 10.8016 0.524438 10.4751C0.19798 10.1487 0.0137002 9.70649 0.0117188 9.24481ZM5.16372 5.90551L5.35195 4.84575L6.22348 5.71728L5.16372 5.90551ZM6.97642 5.17328L5.88466 4.07398L9.48184 0.474926C9.48871 0.466298 9.49745 0.45933 9.50738 0.454541C9.51732 0.449752 9.52821 0.447266 9.53925 0.447266C9.55028 0.447266 9.56117 0.449752 9.57111 0.454541C9.58105 0.45933 9.58978 0.466298 9.59666 0.474926L10.5811 1.4594C10.5898 1.46627 10.5967 1.47501 10.6015 1.48494C10.6063 1.49488 10.6088 1.50578 10.6088 1.51681C10.6088 1.52784 10.6063 1.53873 10.6015 1.54867C10.5967 1.55861 10.5898 1.56734 10.5811 1.57422L6.97642 5.17328Z" fill="#888D9A"/>
</svg>
