<svg width="16" height="18" viewBox="0 0 16 18" fill="none" xmlns="http://www.w3.org/2000/svg">
<path d="M3 14C4.65685 14 6 12.6569 6 11C6 9.34315 4.65685 8 3 8C1.34315 8 0 9.34315 0 11C0 12.6569 1.34315 14 3 14Z" fill="#F1F1F2"/>
<path d="M7 6C8.65685 6 10 4.65685 10 3C10 1.34315 8.65685 0 7 0C5.34315 0 4 1.34315 4 3C4 4.65685 5.34315 6 7 6Z" fill="#F1F1F2"/>
<path d="M12.6 17.5996C14.2568 17.5996 15.6 16.2565 15.6 14.5996C15.6 12.9428 14.2568 11.5996 12.6 11.5996C10.9431 11.5996 9.59998 12.9428 9.59998 14.5996C9.59998 16.2565 10.9431 17.5996 12.6 17.5996Z" fill="#F1F1F2"/>
</svg>
