<svg width="20" height="24" viewBox="0 0 20 24" fill="none" xmlns="http://www.w3.org/2000/svg">
<path d="M8 8C3.58187 8 0 11.5819 0 16C0 20.4181 3.58187 24 8 24C12.4181 24 16 20.4181 16 16C16 11.5819 12.4181 8 8 8ZM12.5269 18.6667C12.6699 17.9925 12.7605 17.2768 12.7893 16.5333H14.9131C14.8576 17.2704 14.6859 17.9851 14.4021 18.6667H12.5269ZM3.47307 13.3333C3.33013 14.0075 3.23947 14.7232 3.21067 15.4667H1.08693C1.1424 14.7296 1.31413 14.0149 1.59787 13.3333H3.47307ZM11.4336 13.3333C11.5936 14.016 11.6907 14.7307 11.7216 15.4667H8.53333V13.3333H11.4336ZM8.53333 12.2667V9.14453C8.77653 9.21493 9.0176 9.3344 9.25333 9.5008C9.696 9.81333 10.1205 10.2944 10.4789 10.8917C10.7275 11.3056 10.9419 11.7653 11.12 12.2667H8.53227H8.53333ZM5.52107 10.8917C5.87947 10.2933 6.304 9.81227 6.74667 9.5008C6.98347 9.3344 7.22347 9.21493 7.46667 9.14453V12.2667H4.87893C5.05813 11.7653 5.27253 11.3056 5.52 10.8917H5.52107ZM7.46667 13.3333V15.4667H4.2784C4.30933 14.7307 4.4064 14.016 4.5664 13.3333H7.46667ZM1.59787 18.6667C1.31413 17.9851 1.1424 17.2704 1.08693 16.5333H3.21067C3.24053 17.2768 3.33013 17.9925 3.47307 18.6667H1.59787ZM4.2784 16.5333H7.46667V18.6667H4.5664C4.4064 17.984 4.30933 17.2693 4.2784 16.5333ZM7.46667 19.7333V22.8555C7.22347 22.7851 6.9824 22.6656 6.74667 22.4992C6.304 22.1867 5.87947 21.7056 5.52107 21.1083C5.27253 20.6944 5.05813 20.2347 4.87893 19.7333H7.46667ZM10.48 21.1083C10.1216 21.7067 9.69707 22.1877 9.2544 22.4992C9.0176 22.6656 8.7776 22.7851 8.5344 22.8555V19.7333H11.1221C10.9429 20.2347 10.7285 20.6944 10.48 21.1083ZM8.53333 18.6667V16.5333H11.7216C11.6907 17.2693 11.5936 17.984 11.4336 18.6667H8.53333ZM12.7893 15.4667C12.7595 14.7232 12.6699 14.0075 12.5269 13.3333H14.4021C14.6869 14.0149 14.8576 14.7296 14.9131 15.4667H12.7893ZM13.8443 12.2667H12.2464C11.936 11.2875 11.5072 10.4288 10.9909 9.74293C11.7003 10.0821 12.3424 10.5365 12.9024 11.0976C13.2608 11.456 13.5755 11.8464 13.8443 12.2667ZM3.0976 11.0976C3.65867 10.5365 4.3008 10.0821 5.00907 9.74293C4.49387 10.4288 4.064 11.2875 3.7536 12.2667H2.15573C2.42453 11.8464 2.7392 11.4549 3.0976 11.0976ZM2.15573 19.7333H3.7536C4.064 20.7125 4.4928 21.5712 5.00907 22.2571C4.29973 21.9179 3.6576 21.4635 3.0976 20.9024C2.7392 20.544 2.42453 20.1536 2.15573 19.7333ZM12.9024 20.9024C12.3413 21.4635 11.6992 21.9179 10.9909 22.2571C11.5061 21.5712 11.936 20.7125 12.2464 19.7333H13.8443C13.5755 20.1536 13.2608 20.5451 12.9024 20.9024Z" fill="#B2B5BD"/>
<path d="M8 8C3.58187 8 0 11.5819 0 16C0 20.4181 3.58187 24 8 24C12.4181 24 16 20.4181 16 16C16 11.5819 12.4181 8 8 8ZM12.5269 18.6667C12.6699 17.9925 12.7605 17.2768 12.7893 16.5333H14.9131C14.8576 17.2704 14.6859 17.9851 14.4021 18.6667H12.5269ZM3.47307 13.3333C3.33013 14.0075 3.23947 14.7232 3.21067 15.4667H1.08693C1.1424 14.7296 1.31413 14.0149 1.59787 13.3333H3.47307ZM11.4336 13.3333C11.5936 14.016 11.6907 14.7307 11.7216 15.4667H8.53333V13.3333H11.4336ZM8.53333 12.2667V9.14453C8.77653 9.21493 9.0176 9.3344 9.25333 9.5008C9.696 9.81333 10.1205 10.2944 10.4789 10.8917C10.7275 11.3056 10.9419 11.7653 11.12 12.2667H8.53227H8.53333ZM5.52107 10.8917C5.87947 10.2933 6.304 9.81227 6.74667 9.5008C6.98347 9.3344 7.22347 9.21493 7.46667 9.14453V12.2667H4.87893C5.05813 11.7653 5.27253 11.3056 5.52 10.8917H5.52107ZM7.46667 13.3333V15.4667H4.2784C4.30933 14.7307 4.4064 14.016 4.5664 13.3333H7.46667ZM1.59787 18.6667C1.31413 17.9851 1.1424 17.2704 1.08693 16.5333H3.21067C3.24053 17.2768 3.33013 17.9925 3.47307 18.6667H1.59787ZM4.2784 16.5333H7.46667V18.6667H4.5664C4.4064 17.984 4.30933 17.2693 4.2784 16.5333ZM7.46667 19.7333V22.8555C7.22347 22.7851 6.9824 22.6656 6.74667 22.4992C6.304 22.1867 5.87947 21.7056 5.52107 21.1083C5.27253 20.6944 5.05813 20.2347 4.87893 19.7333H7.46667ZM10.48 21.1083C10.1216 21.7067 9.69707 22.1877 9.2544 22.4992C9.0176 22.6656 8.7776 22.7851 8.5344 22.8555V19.7333H11.1221C10.9429 20.2347 10.7285 20.6944 10.48 21.1083ZM8.53333 18.6667V16.5333H11.7216C11.6907 17.2693 11.5936 17.984 11.4336 18.6667H8.53333ZM12.7893 15.4667C12.7595 14.7232 12.6699 14.0075 12.5269 13.3333H14.4021C14.6869 14.0149 14.8576 14.7296 14.9131 15.4667H12.7893ZM13.8443 12.2667H12.2464C11.936 11.2875 11.5072 10.4288 10.9909 9.74293C11.7003 10.0821 12.3424 10.5365 12.9024 11.0976C13.2608 11.456 13.5755 11.8464 13.8443 12.2667ZM3.0976 11.0976C3.65867 10.5365 4.3008 10.0821 5.00907 9.74293C4.49387 10.4288 4.064 11.2875 3.7536 12.2667H2.15573C2.42453 11.8464 2.7392 11.4549 3.0976 11.0976ZM2.15573 19.7333H3.7536C4.064 20.7125 4.4928 21.5712 5.00907 22.2571C4.29973 21.9179 3.6576 21.4635 3.0976 20.9024C2.7392 20.544 2.42453 20.1536 2.15573 19.7333ZM12.9024 20.9024C12.3413 21.4635 11.6992 21.9179 10.9909 22.2571C11.5061 21.5712 11.936 20.7125 12.2464 19.7333H13.8443C13.5755 20.1536 13.2608 20.5451 12.9024 20.9024Z" fill="#B2B5BD" fill-opacity="0.75"/>
<path fill-rule="evenodd" clip-rule="evenodd" d="M10.8877 5.8783C10.887 5.73234 10.9152 5.58767 10.9708 5.4527C11.0264 5.31772 11.1082 5.19511 11.2115 5.09199C11.3148 4.98886 11.4375 4.90726 11.5726 4.85192C11.7076 4.79658 11.8524 4.7686 11.9983 4.7696C12.2919 4.77108 12.5731 4.88837 12.7807 5.09597C12.9883 5.30357 13.1055 5.58471 13.107 5.8783C13.108 6.02427 13.08 6.16898 13.0247 6.30405C12.9694 6.43912 12.8878 6.56186 12.7846 6.66516C12.6815 6.76847 12.5589 6.85027 12.4239 6.90584C12.289 6.96141 12.1443 6.98964 11.9983 6.98889C11.7041 6.9879 11.4222 6.87057 11.2141 6.66251C11.0061 6.45445 10.8887 6.17254 10.8877 5.8783ZM14.9988 5.29665C14.707 3.91501 13.6529 2.82324 11.9983 2.82324C10.3437 2.82324 9.30656 3.91501 8.98656 5.29665C8.40491 8.04301 10.4247 10.9889 11.9983 13.1536C13.5626 10.9889 15.5993 8.02418 14.9988 5.29665Z" fill="#B2B5BD"/>
</svg>
