<svg width="18" height="18" viewBox="0 0 18 18" fill="none" xmlns="http://www.w3.org/2000/svg">
<path d="M16.8416 8.64935L9.34163 1.14935C9.04163 0.849349 8.62496 0.666016 8.16663 0.666016H2.33329C1.41663 0.666016 0.666626 1.41602 0.666626 2.33268V8.16602C0.666626 8.62435 0.849959 9.04102 1.15829 9.34935L8.65829 16.8493C8.95829 17.1493 9.37496 17.3327 9.83329 17.3327C10.2916 17.3327 10.7083 17.1493 11.0083 16.841L16.8416 11.0077C17.15 10.7077 17.3333 10.291 17.3333 9.83268C17.3333 9.37435 17.1416 8.94935 16.8416 8.64935ZM3.58329 4.83268C2.89163 4.83268 2.33329 4.27435 2.33329 3.58268C2.33329 2.89102 2.89163 2.33268 3.58329 2.33268C4.27496 2.33268 4.83329 2.89102 4.83329 3.58268C4.83329 4.27435 4.27496 4.83268 3.58329 4.83268Z" fill="#F1F1F2" fill-opacity="0.7"/>
</svg>
