<svg width="22" height="19" viewBox="0 0 22 19" fill="none" xmlns="http://www.w3.org/2000/svg">
<path fill-rule="evenodd" clip-rule="evenodd" d="M18.6663 0C20.5068 0 22 1.49452 22 3.3407C22 4.94825 20.8667 6.29027 19.3574 6.60784C19.361 6.63296 19.361 6.65807 19.361 6.68319V7.63409L20.6644 7.46185C21.103 7.40444 21.5059 7.71483 21.5632 8.15439C21.6204 8.59396 21.3107 8.99764 20.8721 9.05505L11.7287 10.2589L13.7536 17.536H14.8726C15.2754 17.536 15.603 17.8661 15.603 18.268C15.603 18.6717 15.2736 19 14.8726 19H7.23486C6.83203 19 6.5044 18.6699 6.5044 18.268C6.5044 17.8643 6.83382 17.536 7.23486 17.536H8.34847L10.0314 10.4832L1.55046 11.6009C1.11182 11.6584 0.708984 11.348 0.651693 10.9084C0.594401 10.4688 0.904134 10.0652 1.34277 10.0077L2.66406 9.83371V8.79669C2.66406 8.77516 2.66585 8.75364 2.66764 8.73211C1.14583 8.42172 0 7.07252 0 5.456C0 3.61161 1.49137 2.11709 3.33366 2.11709C5.17415 2.11709 6.66732 3.61161 6.66732 5.45779C6.66732 7.08329 5.50716 8.43787 3.97282 8.73569C3.97461 8.75543 3.9764 8.77517 3.9764 8.7949V9.65968L18.0576 7.80633V6.68319C18.0576 6.66346 18.0594 6.64372 18.0612 6.62398C16.5125 6.33692 15.3381 4.97517 15.3381 3.3407C15.3345 1.49452 16.8258 0 18.6663 0ZM18.6663 2.08121C19.3521 2.08121 19.9089 2.63739 19.9089 3.32635C19.9089 4.0153 19.3521 4.57148 18.6663 4.57148C17.9806 4.57148 17.4256 4.0153 17.4256 3.32635C17.4256 2.63739 17.9806 2.08121 18.6663 2.08121ZM3.34977 4.21804C4.03548 4.21804 4.5905 4.77422 4.5905 5.46317C4.5905 6.15033 4.03548 6.70652 3.34977 6.70652C2.66406 6.70652 2.10726 6.15033 2.10726 5.46317C2.10905 4.77422 2.66406 4.21804 3.34977 4.21804Z" fill="#B8B9BB"/>
</svg>
