<svg width="12" height="12" viewBox="0 0 12 12" fill="none" xmlns="http://www.w3.org/2000/svg">
<path fill-rule="evenodd" clip-rule="evenodd" d="M6.61909 11.3121V10.5441C7.61391 10.409 8.5367 9.95054 9.24524 9.23927C9.95378 8.52801 10.4087 7.60347 10.54 6.60814H11.3099C11.4737 6.60814 11.6307 6.54309 11.7465 6.42731C11.8623 6.31152 11.9273 6.15448 11.9273 5.99073C11.9273 5.82698 11.8623 5.66994 11.7465 5.55415C11.6307 5.43837 11.4737 5.37332 11.3099 5.37332H10.54C10.4052 4.38127 9.94867 3.46085 9.2404 2.75325C8.53213 2.04566 7.61127 1.58999 6.61909 1.45614V0.688142C6.61909 0.523895 6.55384 0.366375 6.4377 0.250235C6.32156 0.134095 6.16404 0.0688477 5.99979 0.0688477C5.83555 0.0688477 5.67803 0.134095 5.56189 0.250235C5.44575 0.366375 5.3805 0.523895 5.3805 0.688142V1.45614C4.38556 1.59094 3.4626 2.04935 2.75401 2.76067C2.04541 3.47198 1.59054 4.39669 1.45956 5.39214H0.689677C0.52593 5.39214 0.368888 5.45719 0.253101 5.57298C0.137314 5.68877 0.0722656 5.84581 0.0722656 6.00955C0.0722656 6.1733 0.137314 6.33034 0.253101 6.44613C0.368888 6.56192 0.52593 6.62697 0.689677 6.62697H1.45956C1.59531 7.62178 2.0546 8.5443 2.7666 9.25222C3.4786 9.96013 4.40374 10.4141 5.39932 10.5441V11.3121C5.40129 11.4756 5.46722 11.6318 5.58299 11.7472C5.69876 11.8626 5.85515 11.9281 6.01862 11.9296C6.17803 11.9211 6.32839 11.8528 6.43969 11.7384C6.55099 11.6239 6.61505 11.4717 6.61909 11.3121ZM2.64168 5.99073C2.64093 5.3264 2.83725 4.67677 3.20579 4.12404C3.57433 3.5713 4.09854 3.1403 4.71209 2.88555C5.32564 2.63081 6.00096 2.56377 6.65262 2.69291C7.30428 2.82206 7.90299 3.1416 8.37301 3.61109C8.84303 4.08058 9.16323 4.67893 9.29311 5.33044C9.42299 5.98196 9.35671 6.65735 9.10265 7.27119C8.84859 7.88503 8.41818 8.40971 7.86586 8.77888C7.31353 9.14804 6.66413 9.34508 5.99979 9.34508C5.55891 9.34583 5.12221 9.2596 4.71469 9.09133C4.30717 8.92307 3.93685 8.67608 3.62492 8.3645C3.31299 8.05292 3.06559 7.68288 2.89687 7.27555C2.72815 6.86822 2.64143 6.43162 2.64168 5.99073ZM8.25109 5.99073C8.25332 5.5435 8.12275 5.10568 7.87591 4.73273C7.62907 4.35979 7.27708 4.06851 6.86453 3.89581C6.45199 3.72312 5.99746 3.67677 5.55855 3.76265C5.11964 3.84852 4.71611 4.06276 4.39907 4.37821C4.08204 4.69366 3.86578 5.09612 3.77771 5.53459C3.68963 5.97307 3.7337 6.42782 3.90433 6.84122C4.07495 7.25463 4.36446 7.60807 4.73616 7.85678C5.10787 8.10549 5.54503 8.23825 5.99227 8.23826C6.58939 8.23827 7.16223 8.00184 7.58552 7.58066C8.0088 7.15949 8.2481 6.58785 8.25109 5.99073ZM4.9645 5.99073C4.96413 5.78663 5.02431 5.58701 5.13743 5.41713C5.25055 5.24725 5.41152 5.11474 5.59998 5.03638C5.78843 4.95802 5.99589 4.93732 6.19612 4.97691C6.39634 5.0165 6.58031 5.11459 6.72476 5.25878C6.86921 5.40297 6.96765 5.58676 7.0076 5.78691C7.04755 5.98706 7.02724 6.19456 6.94922 6.38316C6.8712 6.57176 6.73899 6.73297 6.56931 6.8464C6.39964 6.95983 6.20013 7.02038 5.99603 7.02038C5.86052 7.02112 5.7262 6.99501 5.60083 6.94356C5.47547 6.8921 5.36154 6.81632 5.26563 6.72058C5.16972 6.62485 5.09373 6.51106 5.04204 6.38579C4.99036 6.26051 4.964 6.12624 4.9645 5.99073Z" fill="#888D9A"/>
</svg>
