<svg width="49" height="48" viewBox="0 0 49 48" fill="none" xmlns="http://www.w3.org/2000/svg">
<g clip-path="url(#clip0_9289_282391)">
<path d="M10.0852 27.0009L21.888 15.4389C22.326 15.0099 22.9844 14.8809 23.5571 15.1149C24.1298 15.3489 24.5034 15.8949 24.5034 16.5009V27.8799L31.0755 21.4419C31.5135 21.0129 32.1719 20.8839 32.7446 21.1179C33.3173 21.3519 33.6909 21.8979 33.6909 22.5039V27.0039H45.552C47.6375 23.6049 49.0034 19.8249 49.0034 15.7539C49.0034 8.71291 43.1755 3.00391 35.9878 3.00391C31.0143 3.00391 26.6962 5.73691 24.5034 9.75091C22.3107 5.73691 17.9925 3.00391 13.019 3.00391C5.83136 3.00391 0.00341797 8.71291 0.00341797 15.7539C0.00341797 19.8249 1.36929 23.6049 3.45486 27.0039H10.0882L10.0852 27.0009Z" fill="#075AD3"/>
<path d="M10.0852 27.0009L21.888 15.4389C22.326 15.0099 22.9844 14.8809 23.5571 15.1149C24.1298 15.3489 24.5034 15.8949 24.5034 16.5009V27.8799L31.0755 21.4419C31.5135 21.0129 32.1719 20.8839 32.7446 21.1179C33.3173 21.3519 33.6909 21.8979 33.6909 22.5039V27.0039H45.552C47.6375 23.6049 49.0034 19.8249 49.0034 15.7539C49.0034 8.71291 43.1755 3.00391 35.9878 3.00391C31.0143 3.00391 26.6962 5.73691 24.5034 9.75091C22.3107 5.73691 17.9925 3.00391 13.019 3.00391C5.83136 3.00391 0.00341797 8.71291 0.00341797 15.7539C0.00341797 19.8249 1.36929 23.6049 3.45486 27.0039H10.0882L10.0852 27.0009Z" fill="white" fill-opacity="0.5"/>
<path d="M32.1561 29.9992C31.3108 29.9992 30.6248 29.3272 30.6248 28.4992V26.1202L24.0527 32.5582C23.7587 32.8462 23.3667 32.9962 22.9686 32.9962C22.7726 32.9962 22.5735 32.9602 22.3837 32.8822C21.811 32.6512 21.4373 32.1022 21.4373 31.4962V20.1172L11.8027 29.5552C11.5148 29.8372 11.1259 29.9932 10.7186 29.9932H5.54297C12.7705 39.2482 24.4998 44.9932 24.4998 44.9932C24.4998 44.9932 36.2292 39.2482 43.4567 29.9932H32.1561V29.9992Z" fill="#075AD3"/>
<path d="M32.1561 29.9992C31.3108 29.9992 30.6248 29.3272 30.6248 28.4992V26.1202L24.0527 32.5582C23.7587 32.8462 23.3667 32.9962 22.9686 32.9962C22.7726 32.9962 22.5735 32.9602 22.3837 32.8822C21.811 32.6512 21.4373 32.1022 21.4373 31.4962V20.1172L11.8027 29.5552C11.5148 29.8372 11.1259 29.9932 10.7186 29.9932H5.54297C12.7705 39.2482 24.4998 44.9932 24.4998 44.9932C24.4998 44.9932 36.2292 39.2482 43.4567 29.9932H32.1561V29.9992Z" fill="white" fill-opacity="0.5"/>
</g>
<defs>
<clipPath id="clip0_9289_282391">
<rect width="49" height="48" fill="white"/>
</clipPath>
</defs>
</svg>
