<svg width="18" height="20" viewBox="0 0 18 20" fill="none" xmlns="http://www.w3.org/2000/svg">
<path d="M16 2H11.82C11.4 0.84 10.3 0 9 0C7.7 0 6.6 0.84 6.18 2H2C0.9 2 0 2.9 0 4V18C0 19.1 0.9 20 2 20H16C17.1 20 18 19.1 18 18V4C18 2.9 17.1 2 16 2ZM9 2C9.55 2 10 2.45 10 3C10 3.55 9.55 4 9 4C8.45 4 8 3.55 8 3C8 2.45 8.45 2 9 2ZM9 6C10.66 6 12 7.34 12 9C12 10.66 10.66 12 9 12C7.34 12 6 10.66 6 9C6 7.34 7.34 6 9 6ZM15 18H3V16.6C3 14.6 7 13.5 9 13.5C11 13.5 15 14.6 15 16.6V18Z" fill="#B2B5BD"/>
</svg>
