<svg width="22" height="8" viewBox="0 0 22 8" fill="none" xmlns="http://www.w3.org/2000/svg">
<path fill-rule="evenodd" clip-rule="evenodd" d="M1 0C0.447715 0 0 0.447716 0 1V6.33333C0 6.88562 0.447716 7.33333 1 7.33333H21C21.5523 7.33333 22 6.88562 22 6.33333V1C22 0.447715 21.5523 0 21 0H1ZM1.33333 2.66683V5.04778H2.16667V5.66683H3.83333V5.04778H4.66667V2.66683H1.33333ZM5.33333 5.04778V2.66683H8.66667V5.04778H7.83333V5.66683H6.16667V5.04778H5.33333ZM9.33333 2.66683V5.04778H10.1667V5.66683H11.8333V5.04778H12.6667V2.66683H9.33333ZM13.3332 5.04762V2.66667H16.6665V5.04762H15.8332V5.66667H14.1665V5.04762H13.3332ZM20.6667 2.66667H18.6667V4.66667H20.6667V2.66667Z" fill="#343A40"/>
<path fill-rule="evenodd" clip-rule="evenodd" d="M1 0C0.447715 0 0 0.447716 0 1V6.33333C0 6.88562 0.447716 7.33333 1 7.33333H21C21.5523 7.33333 22 6.88562 22 6.33333V1C22 0.447715 21.5523 0 21 0H1ZM1.33333 2.66683V5.04778H2.16667V5.66683H3.83333V5.04778H4.66667V2.66683H1.33333ZM5.33333 5.04778V2.66683H8.66667V5.04778H7.83333V5.66683H6.16667V5.04778H5.33333ZM9.33333 2.66683V5.04778H10.1667V5.66683H11.8333V5.04778H12.6667V2.66683H9.33333ZM13.3332 5.04762V2.66667H16.6665V5.04762H15.8332V5.66667H14.1665V5.04762H13.3332ZM20.6667 2.66667H18.6667V4.66667H20.6667V2.66667Z" fill="white" fill-opacity="0.75"/>
</svg>
