<svg width="25" height="25" viewBox="0 0 25 25" fill="none" xmlns="http://www.w3.org/2000/svg">
<path d="M21 14H17.6L5 14.0002C3.9 14.0002 3 14.9002 3 16.0002V20.0002C3 21.1002 3.9 22.0002 5 22.0002H19C20.1 22.0002 21 21.1002 21 20.0002V14ZM7 19.0002H5V17.0002H7V19.0002ZM19 19.0002H9V17.0002H19V19.0002Z" fill="#F1F1F2" fill-opacity="0.7"/>
<path d="M12 0C10.4 0 10 1.33333 10 2V8C10 9.33333 10.6667 10 12 10C13.3333 10 14 9.33333 14 8V2C14 1.33333 13.6 0 12 0Z" fill="#B8B9BB"/>
<path d="M7.28571 8H6C6 11.52 9.42857 13.2 11.1429 13.6V16H12.8571V13.6C14.6667 13.3333 18 11.3333 18 8H16.7143C16.0286 11.2 13.2857 12 12 12C8.91429 12 7.57143 9.33333 7.28571 8Z" fill="#B8B9BB"/>
</svg>
