<svg width="24" height="24" viewBox="0 0 24 24" fill="none" xmlns="http://www.w3.org/2000/svg">
<path d="M0 12C0 5.37258 5.37258 0 12 0C18.6274 0 24 5.37258 24 12C24 18.6274 18.6274 24 12 24C5.37258 24 0 18.6274 0 12Z" fill="#F1F1F2" fill-opacity="0.7"/>
<g clip-path="url(#clip0_2032_37192)">
<path d="M14.0875 17.3923C12.4875 18.1373 10.9988 18.1285 9.99875 18.0573C8.80625 17.971 7.8475 17.6448 7.42625 17.3598C7.16625 17.1835 6.81375 17.2523 6.6375 17.5123C6.46125 17.7723 6.53 18.1248 6.79 18.301C7.4675 18.7598 8.66625 19.101 9.91875 19.191C10.1312 19.206 10.3637 19.216 10.615 19.216C11.705 19.216 13.0887 19.1123 14.5688 18.4235C14.8538 18.291 14.9763 17.9535 14.8438 17.6685C14.7113 17.3835 14.3738 17.261 14.0888 17.3935L14.0875 17.3923ZM20.4012 16.551C20.4562 11.616 20.9625 2.2898 11.515 3.04355C2.18625 3.7948 4.66 13.6486 4.52125 16.9485C4.3975 18.6948 3.81875 20.8285 3 22.9998H5.52125C5.78 22.0798 5.97125 21.1698 6.0525 20.301C6.205 20.4073 6.3675 20.5098 6.54125 20.6073C6.82375 20.7736 7.06625 20.9948 7.32375 21.2285C7.92375 21.776 8.605 22.396 9.935 22.4735C10.0237 22.4785 10.1137 22.481 10.2025 22.481C11.5487 22.481 12.4688 21.8923 13.2075 21.4185C13.5613 21.1923 13.8675 20.996 14.1562 20.9023C14.975 20.646 15.69 20.2323 16.225 19.706C16.3088 19.6235 16.3863 19.5398 16.4587 19.4535C16.7563 20.5448 17.1637 21.7735 17.6163 22.9985H23C21.7075 21.0023 20.3737 19.046 20.4012 16.5498V16.551ZM5.42375 13.866C5.42375 13.866 5.42375 13.866 5.42375 13.8648C5.33125 12.2548 6.10125 10.8998 7.145 10.8385C8.18875 10.7773 9.10875 12.0348 9.20125 13.6448C9.20125 13.6448 9.20125 13.6448 9.20125 13.646C9.20625 13.7323 9.20875 13.8185 9.20875 13.9035C8.87875 13.986 8.58 14.1073 8.3125 14.2473C8.31125 14.2348 8.31125 14.2235 8.31 14.211C8.22125 13.2973 7.7325 12.606 7.21875 12.6685C6.705 12.731 6.36125 13.5235 6.45125 14.4373C6.49 14.836 6.605 15.1923 6.765 15.461C6.725 15.4923 6.6125 15.5748 6.48375 15.6685C6.38625 15.7398 6.26875 15.826 6.12625 15.931C5.7375 15.421 5.47125 14.6898 5.42375 13.8623V13.866ZM15.9938 17.8473C15.9563 18.6985 14.8438 19.4998 13.815 19.821L13.8088 19.8235C13.3813 19.9623 13 20.206 12.5963 20.4648C11.9175 20.8986 11.2163 21.3473 10.2038 21.3473C10.1375 21.3473 10.0688 21.3448 10.0025 21.341C9.075 21.2873 8.64 20.891 8.09125 20.3898C7.80125 20.126 7.50125 19.8523 7.115 19.626L7.10625 19.621C6.2725 19.1498 5.755 18.5648 5.72125 18.0548C5.705 17.801 5.8175 17.5823 6.05625 17.4023C6.57625 17.0123 6.925 16.7573 7.155 16.5885C7.41125 16.401 7.48875 16.3448 7.54625 16.2898C7.5875 16.251 7.63125 16.2085 7.67875 16.161C8.15625 15.6973 8.955 14.9198 10.1812 14.9198C10.9313 14.9198 11.7613 15.2085 12.645 15.7773C13.0612 16.0485 13.4237 16.1735 13.8825 16.3323C14.1975 16.441 14.5563 16.5648 15.035 16.7698L15.0425 16.7735C15.4887 16.9573 16.0175 17.2923 15.9925 17.846L15.9938 17.8473ZM15.7475 15.8473C15.6613 15.8035 15.5725 15.7623 15.4788 15.7248C15.0475 15.5398 14.7012 15.4148 14.4137 15.3148C14.5725 15.0048 14.6712 14.6173 14.68 14.1973C14.7025 13.1748 14.1862 12.3435 13.5275 12.3423C12.8687 12.341 12.3175 13.1685 12.295 14.191C12.2937 14.2248 12.2937 14.2573 12.295 14.291C11.89 14.1048 11.4913 13.9685 11.1 13.886C11.0988 13.8473 11.0962 13.8098 11.095 13.771V13.7698C11.0575 11.906 12.2 10.3635 13.6488 10.3248C15.0975 10.286 16.3012 11.7648 16.34 13.6273V13.6285C16.3575 14.471 16.1312 15.2473 15.7462 15.8485L15.7475 15.8473Z" fill="#06102D"/>
</g>
<defs>
<clipPath id="clip0_2032_37192">
<rect width="20" height="20" fill="white" transform="translate(3 3)"/>
</clipPath>
</defs>
</svg>
