<svg width="18" height="18" viewBox="0 0 18 18" fill="none" xmlns="http://www.w3.org/2000/svg">
<path d="M16.9333 8.43333H9.56667V6.16667H11.2667C11.5795 6.16667 11.8333 5.9128 11.8333 5.6V1.06667C11.8333 0.753867 11.5795 0.5 11.2667 0.5H6.73333C6.42053 0.5 6.16667 0.753867 6.16667 1.06667V5.6C6.16667 5.9128 6.42053 6.16667 6.73333 6.16667H8.43333V8.43333H1.06667C0.753867 8.43333 0.5 8.6872 0.5 9C0.5 9.3128 0.753867 9.56667 1.06667 9.56667H3.9V11.8333H2.2C1.8872 11.8333 1.63333 12.0872 1.63333 12.4V16.9333C1.63333 17.2461 1.8872 17.5 2.2 17.5H6.73333C7.04613 17.5 7.3 17.2461 7.3 16.9333V12.4C7.3 12.0872 7.04613 11.8333 6.73333 11.8333H5.03333V9.56667H12.9667V11.8333H11.2667C10.9539 11.8333 10.7 12.0872 10.7 12.4V16.9333C10.7 17.2461 10.9539 17.5 11.2667 17.5H15.8C16.1128 17.5 16.3667 17.2461 16.3667 16.9333V12.4C16.3667 12.0872 16.1128 11.8333 15.8 11.8333H14.1V9.56667H16.9333C17.2461 9.56667 17.5 9.3128 17.5 9C17.5 8.6872 17.2461 8.43333 16.9333 8.43333ZM7.3 1.63333H10.7V5.03333H7.3V1.63333ZM6.16667 16.3667H2.76667V12.9667H6.16667V16.3667ZM15.2333 16.3667H11.8333V12.9667H15.2333V16.3667Z" fill="#F1F1F2"/>
</svg>
