<svg width="24" height="24" viewBox="0 0 24 24" fill="none" xmlns="http://www.w3.org/2000/svg">
<path d="M11 13.1875C12.4942 13.1875 13.8142 13.545 14.8867 14.0125C15.8767 14.4525 16.5 15.4425 16.5 16.515V18H5.5V16.5242C5.5 15.4425 6.12333 14.4525 7.11333 14.0217C8.18583 13.545 9.50583 13.1875 11 13.1875ZM3.66667 13.4167C4.675 13.4167 5.5 12.5917 5.5 11.5833C5.5 10.575 4.675 9.75 3.66667 9.75C2.65833 9.75 1.83333 10.575 1.83333 11.5833C1.83333 12.5917 2.65833 13.4167 3.66667 13.4167ZM4.7025 14.425C4.36333 14.37 4.02417 14.3333 3.66667 14.3333C2.75917 14.3333 1.8975 14.5258 1.11833 14.865C0.44 15.1583 0 15.8183 0 16.5608V18H4.125V16.5242C4.125 15.7633 4.33583 15.0483 4.7025 14.425ZM18.3333 13.4167C19.3417 13.4167 20.1667 12.5917 20.1667 11.5833C20.1667 10.575 19.3417 9.75 18.3333 9.75C17.325 9.75 16.5 10.575 16.5 11.5833C16.5 12.5917 17.325 13.4167 18.3333 13.4167ZM22 16.5608C22 15.8183 21.56 15.1583 20.8817 14.865C20.1025 14.5258 19.2408 14.3333 18.3333 14.3333C17.9758 14.3333 17.6367 14.37 17.2975 14.425C17.6642 15.0483 17.875 15.7633 17.875 16.5242V18H22V16.5608ZM11 7C12.5217 7 13.75 8.22833 13.75 9.75C13.75 11.2717 12.5217 12.5 11 12.5C9.47833 12.5 8.25 11.2717 8.25 9.75C8.25 8.22833 9.47833 7 11 7Z" fill="#B2B5BD"/>
</svg>
