<svg width="465" height="117" viewBox="0 0 465 117" fill="none" xmlns="http://www.w3.org/2000/svg">
<path fill-rule="evenodd" clip-rule="evenodd" d="M18.3399 26.2672C11.3274 35.0099 7.13249 46.1097 7.13249 58.1892C7.13249 70.2688 11.3274 81.3686 18.3399 90.1113V26.2672ZM25.4724 18.9906V97.3878C28.8079 100.175 32.5045 102.544 36.4818 104.415V11.9636C32.5045 13.8345 28.8079 16.2037 25.4724 18.9906ZM43.6143 9.24304V107.135C47.1394 108.184 50.8239 108.861 54.6228 109.123V7.25511C50.8239 7.51723 47.1394 8.19492 43.6143 9.24304ZM61.7553 7.25509V18.4305H90.2238C82.3295 12.0619 72.4997 7.99638 61.7553 7.25509ZM97.4633 25.5629H61.7553V36.5792H104.461C102.599 32.6008 100.24 28.902 97.4633 25.5629ZM107.164 43.7117H61.7553V54.7207H109.13C108.875 50.9222 108.205 47.2375 107.164 43.7117ZM109.117 61.8532H61.7553V109.123C65.7392 108.849 69.5973 108.117 73.2777 106.98V73.3061H106.971C108.104 69.6474 108.836 65.8127 109.117 61.8532ZM104.156 80.4386H80.4102V87.0164H87.5429V94.1489H80.4102V104.17C90.7492 99.1641 99.1442 90.774 104.156 80.4386ZM0 58.1892C0 26.0522 26.0522 0 58.1892 0C90.3263 0 116.378 26.0522 116.378 58.1892C116.378 90.3263 90.3263 116.378 58.1892 116.378C26.0522 116.378 0 90.3263 0 58.1892Z" fill="white"/>
<path d="M419.672 94.0176V44.5508H428.96V51.2137C431.08 48.3197 433.553 46.2334 436.38 44.9547C439.207 43.6759 442.101 43.0366 445.062 43.0366C449.537 43.0366 453.239 43.9451 456.167 45.7623C459.128 47.5458 461.332 49.834 462.779 52.627C464.26 55.4201 465 58.2804 465 61.208V94.0176H455.712V64.0852C455.712 60.3499 454.551 57.355 452.23 55.1004C449.908 52.8121 446.744 51.668 442.74 51.668C440.115 51.668 437.76 52.2569 435.673 53.4347C433.621 54.5788 431.989 56.2109 430.777 58.3309C429.566 60.4509 428.96 62.8906 428.96 65.6499V94.0176H419.672Z" fill="white"/>
<path d="M382.4 95.5319C377.419 95.5319 373.011 94.3709 369.175 92.049C365.339 89.7271 362.344 86.5976 360.19 82.6604C358.036 78.6896 356.96 74.2309 356.96 69.2842C356.96 65.5826 357.582 62.1334 358.827 58.9366C360.072 55.7398 361.822 52.9636 364.077 50.608C366.331 48.2188 369.007 46.368 372.102 45.0556C375.232 43.7096 378.664 43.0366 382.4 43.0366C387.38 43.0366 391.519 44.0797 394.817 46.1661C398.115 48.2524 400.689 50.9109 402.54 54.1413L401.177 56.1604V44.5508H409.657V94.0176H401.177V82.4081L402.54 84.3766C400.689 87.6071 398.115 90.2824 394.817 92.4024C391.519 94.4887 387.38 95.5319 382.4 95.5319ZM383.409 87.1528C386.707 87.1528 389.635 86.4293 392.192 84.9823C394.75 83.5017 396.752 81.4322 398.199 78.7738C399.679 76.0817 400.42 72.9185 400.42 69.2842C400.42 65.6163 399.679 62.4531 398.199 59.7947C396.752 57.1026 394.75 55.0331 392.192 53.5861C389.635 52.1391 386.707 51.4156 383.409 51.4156C380.111 51.4156 377.184 52.1391 374.626 53.5861C372.069 55.0331 370.05 57.1026 368.569 59.7947C367.088 62.4531 366.348 65.6163 366.348 69.2842C366.348 72.9185 367.088 76.0817 368.569 78.7738C370.05 81.4322 372.069 83.5017 374.626 84.9823C377.184 86.4293 380.111 87.1528 383.409 87.1528Z" fill="white"/>
<path d="M327.975 94.0173V44.5505H337.262V51.7181C339.248 48.4877 341.603 46.2331 344.329 44.9543C347.088 43.6419 350.016 42.9857 353.112 42.9857C354.088 42.9857 355.03 43.0362 355.939 43.1372C356.847 43.2381 357.739 43.3727 358.614 43.541L357.251 53.182C356.309 52.9127 355.35 52.7108 354.374 52.5762C353.398 52.408 352.439 52.3239 351.497 52.3239C347.358 52.3239 343.942 53.6194 341.25 56.2105C338.592 58.768 337.262 62.2004 337.262 66.5077V94.0173H327.975Z" fill="white"/>
<path d="M291.205 116.732C288.008 116.732 284.795 116.412 281.564 115.773C278.334 115.134 275.255 114.09 272.327 112.643L274.8 104.719C277.459 105.964 280.151 106.889 282.877 107.495C285.602 108.1 288.277 108.403 290.902 108.403C296.858 108.403 301.401 106.94 304.531 104.012C307.694 101.084 309.276 97.2313 309.276 92.4528V81.7014L310.588 83.67C308.771 86.9341 306.23 89.6093 302.966 91.6957C299.702 93.7484 295.597 94.7747 290.65 94.7747C285.602 94.7747 281.177 93.6306 277.375 91.3424C273.572 89.0205 270.611 85.9077 268.491 82.0042C266.371 78.1007 265.311 73.7261 265.311 68.8804C265.311 65.2798 265.917 61.9147 267.128 58.7852C268.339 55.6556 270.056 52.9131 272.277 50.5575C274.531 48.1683 277.206 46.3175 280.302 45.0051C283.398 43.6928 286.847 43.0366 290.65 43.0366C295.597 43.0366 299.702 44.0629 302.966 46.1156C306.23 48.1683 308.771 50.8267 310.588 54.0909L309.276 56.1099V44.5004H318.008V90.1309C318.008 98.4763 315.753 104.988 311.244 109.665C306.769 114.376 300.089 116.732 291.205 116.732ZM291.76 86.4966C295.058 86.4966 297.986 85.7731 300.543 84.3262C303.134 82.8792 305.153 80.8433 306.6 78.2185C308.047 75.5938 308.771 72.4811 308.771 68.8804C308.771 65.3134 308.047 62.2175 306.6 59.5928C305.153 56.9344 303.134 54.8817 300.543 53.4347C297.986 51.9877 295.058 51.2642 291.76 51.2642C288.429 51.2642 285.484 51.9877 282.927 53.4347C280.37 54.8817 278.351 56.9344 276.87 59.5928C275.423 62.2175 274.699 65.3134 274.699 68.8804C274.699 72.4811 275.423 75.5938 276.87 78.2185C278.351 80.8433 280.37 82.8792 282.927 84.3262C285.484 85.7731 288.429 86.4966 291.76 86.4966Z" fill="white"/>
<path d="M250.474 94.0177V44.5509H259.762V94.0177H250.474ZM255.118 35.2128C253.368 35.2128 251.854 34.6239 250.575 33.4462C249.296 32.2684 248.657 30.7709 248.657 28.9538C248.657 27.1366 249.296 25.656 250.575 24.5118C251.854 23.3341 253.368 22.7452 255.118 22.7452C256.901 22.7452 258.415 23.3341 259.661 24.5118C260.939 25.656 261.579 27.1366 261.579 28.9538C261.579 30.7709 260.939 32.2684 259.661 33.4462C258.415 34.6239 256.901 35.2128 255.118 35.2128Z" fill="white"/>
<path d="M231.192 94.0176V21.3318H240.48V94.0176H231.192Z" fill="white"/>
<path d="M211.914 94.0177V44.5509H221.202V94.0177H211.914ZM216.558 35.2128C214.808 35.2128 213.294 34.6239 212.015 33.4462C210.736 32.2684 210.097 30.7709 210.097 28.9538C210.097 27.1366 210.736 25.656 212.015 24.5118C213.294 23.3341 214.808 22.7452 216.558 22.7452C218.341 22.7452 219.856 23.3341 221.101 24.5118C222.379 25.656 223.019 27.1366 223.019 28.9538C223.019 30.7709 222.379 32.2684 221.101 33.4462C219.856 34.6239 218.341 35.2128 216.558 35.2128Z" fill="white"/>
<path d="M161.269 94.0176V23.3508H203.972V32.0832H170.759V54.2928H186.411V62.8233H170.759V94.0176H161.269Z" fill="white"/>
</svg>
