<svg width="164" height="36" viewBox="0 0 164 36" fill="none" xmlns="http://www.w3.org/2000/svg">
<g clip-path="url(#clip0_342_3278)">
<path d="M61.9545 28.8045C60.3348 28.8045 58.8335 28.5209 57.4506 27.9537C56.0784 27.3762 54.8764 26.577 53.8449 25.5561C52.8233 24.5352 52.029 23.3389 51.4615 21.9674C50.894 20.5958 50.6101 19.1109 50.6101 17.5124C50.6101 15.9037 50.894 14.4136 51.4615 13.042C52.029 11.6705 52.8233 10.4743 53.8449 9.45334C54.8764 8.43243 56.0784 7.63836 57.4506 7.07117C58.8335 6.50402 60.3348 6.22042 61.9545 6.22042C63.5642 6.22042 65.0547 6.50915 66.4273 7.08664C67.7994 7.66414 69.0015 8.46851 70.0334 9.49975C71.0649 10.531 71.8646 11.7324 72.4321 13.1039C73.0099 14.4651 73.2988 15.9347 73.2988 17.5124C73.2988 19.1109 73.0099 20.5958 72.4321 21.9674C71.8646 23.3389 71.0649 24.5352 70.0334 25.5561C69.0015 26.577 67.7994 27.3762 66.4273 27.9537C65.0547 28.5209 63.5642 28.8045 61.9545 28.8045ZM61.9545 26.0356C63.1205 26.0356 64.2037 25.8345 65.2046 25.4324C66.2158 25.0302 67.0979 24.4578 67.8512 23.7153C68.6041 22.9625 69.1923 22.0602 69.6153 21.0083C70.0487 19.9565 70.2652 18.7912 70.2652 17.5124C70.2652 15.7903 69.8939 14.2898 69.1509 13.0111C68.4187 11.7324 67.4228 10.7424 66.1641 10.0411C64.9053 9.32959 63.5021 8.97381 61.9545 8.97381C60.7885 8.97381 59.7002 9.18008 58.689 9.59255C57.6882 9.99475 56.8061 10.5722 56.0424 11.325C55.2891 12.0675 54.7013 12.9647 54.2783 14.0166C53.8552 15.0581 53.6437 16.2234 53.6437 17.5124C53.6437 19.2243 54.0097 20.7196 54.7423 21.9983C55.4853 23.2771 56.4861 24.2722 57.7449 24.9837C59.0036 25.685 60.4068 26.0356 61.9545 26.0356Z" fill="#0015a8"/>
<path d="M75.1553 34.8372V13.1812H77.7708V15.4551C78.4004 14.6508 79.1898 13.9959 80.1389 13.4906C81.0984 12.975 82.3057 12.7172 83.7603 12.7172C85.2669 12.7172 86.5927 13.073 87.7381 13.7845C88.883 14.4858 89.7758 15.4448 90.4153 16.6617C91.0652 17.8785 91.3905 19.2449 91.3905 20.7609C91.3905 21.8643 91.2047 22.9058 90.8334 23.8855C90.472 24.8549 89.9509 25.7108 89.27 26.4533C88.5891 27.1854 87.7791 27.7629 86.8403 28.1857C85.9118 28.5982 84.8746 28.8045 83.7296 28.8045C82.4502 28.8045 81.3306 28.5673 80.3711 28.0929C79.422 27.6082 78.6273 26.974 77.9877 26.1903V34.8372H75.1553ZM83.2495 26.2367C84.2711 26.2367 85.1738 26.015 85.9582 25.5716C86.7525 25.1178 87.3717 24.4836 87.8155 23.6689C88.2691 22.8439 88.4964 21.8746 88.4964 20.7609C88.4964 19.6368 88.2691 18.6674 87.8155 17.8527C87.3717 17.0278 86.7525 16.3936 85.9582 15.9501C85.1738 15.5067 84.2711 15.285 83.2495 15.285C82.2284 15.285 81.3202 15.5067 80.5259 15.9501C79.7415 16.3936 79.1227 17.0278 78.6686 17.8527C78.2146 18.6674 77.9877 19.6368 77.9877 20.7609C77.9877 21.8746 78.2146 22.8439 78.6686 23.6689C79.1227 24.4836 79.7415 25.1178 80.5259 25.5716C81.3202 26.015 82.2284 26.2367 83.2495 26.2367Z" fill="#0015a8"/>
<path d="M99.7642 28.8045C98.1548 28.8045 96.7359 28.4693 95.5082 27.799C94.2805 27.1287 93.3207 26.1954 92.6294 24.9992C91.9382 23.7927 91.5925 22.3902 91.5925 20.7918C91.5925 19.6368 91.7887 18.5643 92.1807 17.5743C92.583 16.5843 93.1402 15.7284 93.8521 15.0065C94.5744 14.2847 95.4155 13.7227 96.375 13.3205C97.3448 12.9183 98.397 12.7172 99.532 12.7172C100.76 12.7172 101.854 12.9338 102.813 13.3669C103.783 13.8 104.583 14.4084 105.212 15.1922C105.852 15.9656 106.311 16.8782 106.589 17.9301C106.868 18.9717 106.925 20.106 106.76 21.3332H94.4093C94.3782 22.3438 94.5848 23.2306 95.0285 23.9938C95.4722 24.7466 96.1117 25.3344 96.9474 25.7572C97.7935 26.18 98.7944 26.3914 99.95 26.3914C100.796 26.3914 101.621 26.2573 102.426 25.9892C103.231 25.7211 103.943 25.324 104.562 24.7981L105.769 26.9173C105.274 27.3195 104.686 27.665 104.005 27.9537C103.334 28.2322 102.633 28.4436 101.9 28.5879C101.167 28.7323 100.455 28.8045 99.7642 28.8045ZM94.5641 19.1212H103.912C103.871 17.8424 103.473 16.8473 102.72 16.1357C101.967 15.4139 100.889 15.0529 99.4856 15.0529C98.1238 15.0529 96.9992 15.4139 96.1117 16.1357C95.2243 16.8473 94.7085 17.8424 94.5641 19.1212Z" fill="#0015a8"/>
<path d="M108.274 28.3404V13.1812H111.122V15.2231C111.772 14.3362 112.53 13.6969 113.397 13.305C114.263 12.9131 115.151 12.7172 116.059 12.7172C117.431 12.7172 118.566 12.9956 119.464 13.5525C120.372 14.0991 121.047 14.8003 121.491 15.6562C121.945 16.5121 122.172 17.3887 122.172 18.2859V28.3404H119.325V19.1676C119.325 18.0229 118.969 17.1051 118.257 16.4142C117.545 15.7129 116.575 15.3623 115.347 15.3623C114.542 15.3623 113.82 15.5428 113.18 15.9037C112.551 16.2543 112.05 16.7545 111.679 17.4042C111.308 18.0538 111.122 18.8015 111.122 19.6471V28.3404H108.274Z" fill="#0015a8"/>
<path d="M135.019 28.8045C132.78 28.8045 130.82 28.3404 129.138 27.4123C127.466 26.4739 126.166 25.1591 125.238 23.4678C124.319 21.7663 123.86 19.7812 123.86 17.5124C123.86 15.8728 124.134 14.3672 124.681 12.9956C125.227 11.6138 126.001 10.4176 127.002 9.40692C128.003 8.39631 129.184 7.61259 130.546 7.05574C131.918 6.49885 133.414 6.22042 135.034 6.22042C136.633 6.22042 138.032 6.42152 139.228 6.82369C140.425 7.21555 141.457 7.77757 142.324 8.50975L140.776 10.8919C140.074 10.2629 139.259 9.79365 138.331 9.48428C137.402 9.17491 136.376 9.02022 135.251 9.02022C133.982 9.02022 132.832 9.21616 131.8 9.60802C130.768 9.99988 129.886 10.5671 129.153 11.3096C128.431 12.0417 127.874 12.9286 127.482 13.9701C127.09 15.0117 126.893 16.1822 126.893 17.4815C126.893 19.2759 127.239 20.8072 127.931 22.0757C128.632 23.3441 129.623 24.3134 130.902 24.9837C132.181 25.6438 133.693 25.9737 135.437 25.9737C136.561 25.9737 137.64 25.8087 138.671 25.4787C139.713 25.1384 140.688 24.5867 141.596 23.8236L142.958 26.2986C141.896 27.1339 140.704 27.7629 139.383 28.1857C138.073 28.5982 136.618 28.8045 135.019 28.8045Z" fill="#0015a8"/>
<path d="M150.07 28.3404V9.36054H143.864V6.68447H159.186V9.36054H152.98V28.3404H150.07Z" fill="#0015a8"/>
<path d="M160.833 28.3404V6.68447H163.742V28.3404H160.833Z" fill="#0015a8"/>
<path fill-rule="evenodd" clip-rule="evenodd" d="M34.0757 35.5365L0.336792 1.81516L1.96248 0.190323L35.7013 33.9117L34.0757 35.5365Z" fill="#0015a8"/>
<path fill-rule="evenodd" clip-rule="evenodd" d="M0.336792 33.9117L34.0757 0.190323L35.7013 1.81516L1.96248 35.5365L0.336792 33.9117Z" fill="#0015a8"/>
<path fill-rule="evenodd" clip-rule="evenodd" d="M27.7715 1.81526L17.9541 11.624L8.14478 1.8149L9.77087 0.190491L17.9547 8.3744L26.1461 0.190132L27.7715 1.81526Z" fill="#0015a8"/>
<path fill-rule="evenodd" clip-rule="evenodd" d="M17.9955 24.1151L18.8194 24.9386L27.8 33.9113L26.1746 35.5365L17.9958 27.3648L9.8215 35.5363L8.19568 33.9116L17.9955 24.1151Z" fill="#0015a8"/>
<path d="M19.6083 2.13972L17.8507 0.38298L16.093 2.13972L17.8507 3.89647L19.6083 2.13972Z" fill="#0015a8"/>
<path d="M19.6098 33.9269L17.8521 32.1702L16.0945 33.9269L17.8521 35.6837L19.6098 33.9269Z" fill="#0015a8"/>
</g>
<defs>
<clipPath id="clip0_342_3278">
<rect width="164" height="36" fill="white"/>
</clipPath>
</defs>
</svg>
