<svg width="36" height="36" viewBox="0 0 36 36" fill="none" xmlns="http://www.w3.org/2000/svg">
<g clip-path="url(#clip0_342_3292)">
<path fill-rule="evenodd" clip-rule="evenodd" d="M34.4242 35.5365L0.34021 1.81516L1.98252 0.190323L36.0665 33.9117L34.4242 35.5365Z" fill="#0015a8"/>
<path fill-rule="evenodd" clip-rule="evenodd" d="M0.34021 33.9117L34.4242 0.190323L36.0665 1.81516L1.98252 35.5365L0.34021 33.9117Z" fill="#0015a8"/>
<path fill-rule="evenodd" clip-rule="evenodd" d="M28.0555 1.81526L18.1378 11.624L8.22809 1.8149L9.87081 0.190491L18.1383 8.3744L26.4135 0.190132L28.0555 1.81526Z" fill="#0015a8"/>
<path fill-rule="evenodd" clip-rule="evenodd" d="M18.1796 24.1151L19.0118 24.9386L28.0843 33.9113L26.4423 35.5365L18.1798 27.3648L9.92193 35.5363L8.27948 33.9116L18.1796 24.1151Z" fill="#0015a8"/>
<path d="M19.8089 2.13972L18.0332 0.38298L16.2576 2.13972L18.0332 3.89647L19.8089 2.13972Z" fill="#0015a8"/>
<path d="M19.8104 33.9269L18.0348 32.1702L16.2592 33.9269L18.0348 35.6837L19.8104 33.9269Z" fill="#0015a8"/>
</g>
<defs>
<clipPath id="clip0_342_3292">
<rect width="36" height="36" fill="white"/>
</clipPath>
</defs>
</svg>
