<svg width="110" height="24" viewBox="0 0 110 24" fill="none" xmlns="http://www.w3.org/2000/svg">
<g clip-path="url(#clip0_1796_18188)">
<path d="M41.5543 19.203C40.468 19.203 39.461 19.0139 38.5334 18.6358C37.6131 18.2508 36.8069 17.718 36.115 17.0374C35.4298 16.3568 34.897 15.5593 34.5164 14.645C34.1358 13.7306 33.9453 12.7406 33.9453 11.675C33.9453 10.6025 34.1358 9.60909 34.5164 8.69472C34.897 7.78037 35.4298 6.98288 36.115 6.30225C36.8069 5.62164 37.6131 5.09227 38.5334 4.71414C39.461 4.33604 40.468 4.14697 41.5543 4.14697C42.634 4.14697 43.6338 4.33946 44.5544 4.72445C45.4748 5.10945 46.281 5.6457 46.9731 6.33319C47.665 7.02069 48.2014 7.8216 48.582 8.73598C48.9696 9.64346 49.1634 10.6231 49.1634 11.675C49.1634 12.7406 48.9696 13.7306 48.582 14.645C48.2014 15.5593 47.665 16.3568 46.9731 17.0374C46.281 17.718 45.4748 18.2508 44.5544 18.6358C43.6338 19.0139 42.634 19.203 41.5543 19.203ZM41.5543 17.3571C42.3364 17.3571 43.063 17.223 43.7343 16.9549C44.4125 16.6868 45.0042 16.3052 45.5094 15.8103C46.0145 15.3084 46.409 14.7068 46.6927 14.0056C46.9834 13.3044 47.1286 12.5275 47.1286 11.675C47.1286 10.5269 46.8796 9.52657 46.3812 8.67409C45.8901 7.8216 45.2221 7.16163 44.3778 6.69411C43.5336 6.21976 42.5924 5.98256 41.5543 5.98256C40.7723 5.98256 40.0423 6.12008 39.3641 6.39506C38.6928 6.66319 38.1012 7.04819 37.5889 7.55004C37.0837 8.04503 36.6894 8.64317 36.4057 9.3444C36.1219 10.0388 35.9801 10.8156 35.9801 11.675C35.9801 12.8162 36.2255 13.8131 36.7169 14.6656C37.2152 15.5181 37.8865 16.1815 38.7308 16.6558C39.5751 17.1234 40.5163 17.3571 41.5543 17.3571Z" fill="#E6700F"/>
<path d="M50.4082 23.2247V8.7874H52.1625V10.3033C52.5848 9.76708 53.1143 9.33051 53.7509 8.99364C54.3944 8.64991 55.2043 8.47803 56.1799 8.47803C57.1904 8.47803 58.0797 8.71522 58.8479 9.18958C59.6158 9.65707 60.2147 10.2964 60.6436 11.1077C61.0795 11.9189 61.2977 12.8298 61.2977 13.8405C61.2977 14.5761 61.173 15.2704 60.924 15.9235C60.6816 16.5698 60.3321 17.1404 59.8754 17.6354C59.4187 18.1235 58.8754 18.5085 58.2457 18.7904C57.623 19.0654 56.9272 19.2029 56.1593 19.2029C55.3012 19.2029 54.5502 19.0448 53.9066 18.7285C53.27 18.4054 52.737 17.9826 52.308 17.4601V23.2247H50.4082ZM55.8373 17.491C56.5225 17.491 57.128 17.3432 57.6541 17.0476C58.1868 16.7451 58.6022 16.3223 58.8998 15.7792C59.2041 15.2292 59.3565 14.5829 59.3565 13.8405C59.3565 13.0911 59.2041 12.4448 58.8998 11.9017C58.6022 11.3517 58.1868 10.9289 57.6541 10.6333C57.128 10.3377 56.5225 10.1899 55.8373 10.1899C55.1523 10.1899 54.5432 10.3377 54.0104 10.6333C53.4843 10.9289 53.0693 11.3517 52.7647 11.9017C52.4602 12.4448 52.308 13.0911 52.308 13.8405C52.308 14.5829 52.4602 15.2292 52.7647 15.7792C53.0693 16.3223 53.4843 16.7451 54.0104 17.0476C54.5432 17.3432 55.1523 17.491 55.8373 17.491Z" fill="#E6700F"/>
<path d="M66.9146 19.2029C65.8351 19.2029 64.8834 18.9795 64.06 18.5326C63.2365 18.0857 62.5927 17.4635 62.1291 16.666C61.6654 15.8617 61.4336 14.9267 61.4336 13.8611C61.4336 13.0911 61.5652 12.3761 61.8281 11.7161C62.098 11.0561 62.4717 10.4855 62.9492 10.0042C63.4336 9.52302 63.9978 9.14834 64.6413 8.88021C65.2918 8.6121 65.9976 8.47803 66.7588 8.47803C67.5825 8.47803 68.316 8.62241 68.9596 8.91115C69.6101 9.19989 70.1465 9.60552 70.5685 10.128C70.9977 10.6436 71.3056 11.252 71.4924 11.9533C71.6793 12.6477 71.7173 13.4039 71.6068 14.222H63.3229C63.3021 14.8958 63.4406 15.487 63.7382 15.9957C64.0358 16.4976 64.4648 16.8895 65.0253 17.1713C65.5928 17.4532 66.2641 17.5941 67.0392 17.5941C67.6067 17.5941 68.1603 17.5048 68.7 17.326C69.24 17.1473 69.7175 16.8826 70.1326 16.532L70.9424 17.9448C70.6101 18.2129 70.2156 18.4432 69.7589 18.6357C69.3091 18.8213 68.8385 18.9623 68.3471 19.0585C67.8557 19.1548 67.3782 19.2029 66.9146 19.2029ZM63.4267 12.7473H69.6967C69.6689 11.8949 69.4024 11.2314 68.8974 10.7571C68.3921 10.2758 67.6689 10.0352 66.7277 10.0352C65.8143 10.0352 65.06 10.2758 64.4648 10.7571C63.8695 11.2314 63.5236 11.8949 63.4267 12.7473Z" fill="#E6700F"/>
<path d="M72.623 18.8935V8.7874H74.5331V10.1486C74.969 9.55739 75.4776 9.13116 76.059 8.86989C76.6404 8.60865 77.2356 8.47803 77.8445 8.47803C78.7651 8.47803 79.5261 8.66364 80.1282 9.0349C80.7373 9.39927 81.1905 9.86676 81.4881 10.4374C81.7926 11.008 81.9448 11.5924 81.9448 12.1905V18.8935H80.0349V12.7783C80.0349 12.0152 79.7962 11.4033 79.3187 10.9427C78.8411 10.4752 78.1906 10.2414 77.3669 10.2414C76.8272 10.2414 76.3427 10.3617 75.9138 10.6024C75.4915 10.8361 75.1559 11.1696 74.9068 11.6027C74.6578 12.0358 74.5331 12.5342 74.5331 13.098V18.8935H72.623Z" fill="#E6700F"/>
<path d="M90.5605 19.203C89.0588 19.203 87.744 18.8936 86.616 18.2749C85.4949 17.6493 84.6229 16.7727 84.0001 15.6452C83.3841 14.5109 83.0762 13.1875 83.0762 11.675C83.0762 10.5819 83.2597 9.57815 83.6264 8.66377C83.9932 7.74256 84.5121 6.94507 85.1834 6.2713C85.8547 5.59757 86.6471 5.07508 87.5607 4.70385C88.4811 4.33259 89.4844 4.14697 90.5711 4.14697C91.6436 4.14697 92.5814 4.28104 93.384 4.54915C94.1869 4.81039 94.8791 5.18507 95.4602 5.67319L94.4221 7.2613C93.9515 6.84194 93.4049 6.52913 92.7821 6.32288C92.1591 6.11663 91.4706 6.01351 90.7163 6.01351C89.8651 6.01351 89.0935 6.14413 88.4014 6.40537C87.7093 6.66662 87.1176 7.04474 86.6262 7.53973C86.142 8.02785 85.7683 8.61909 85.5052 9.31346C85.2423 10.0078 85.1107 10.7881 85.1107 11.6544C85.1107 12.8506 85.3427 13.8715 85.8064 14.7171C86.277 15.5628 86.9413 16.209 87.7992 16.6558C88.6574 17.0959 89.6713 17.3158 90.8409 17.3158C91.5953 17.3158 92.3185 17.2059 93.0104 16.9858C93.7094 16.759 94.3633 16.3912 94.9724 15.8824L95.8858 17.5324C95.1731 18.0893 94.3738 18.5086 93.4879 18.7905C92.6092 19.0655 91.6333 19.203 90.5605 19.203Z" fill="#E6700F"/>
<path d="M100.657 18.8938V6.24059H96.4941V4.45654H106.771V6.24059H102.608V18.8938H100.657Z" fill="#E6700F"/>
<path d="M107.875 18.8938V4.45654H109.826V18.8938H107.875Z" fill="#E6700F"/>
<path fill-rule="evenodd" clip-rule="evenodd" d="M22.8563 23.6911L0.226562 1.21018L1.31696 0.126953L23.9467 22.6078L22.8563 23.6911Z" fill="#E6700F"/>
<path fill-rule="evenodd" clip-rule="evenodd" d="M0.226562 22.6078L22.8563 0.126953L23.9467 1.21018L1.31696 23.6911L0.226562 22.6078Z" fill="#E6700F"/>
<path fill-rule="evenodd" clip-rule="evenodd" d="M18.6271 1.21037L12.0423 7.74954L5.46289 1.21013L6.55356 0.127193L12.0427 5.58313L17.5369 0.126953L18.6271 1.21037Z" fill="#E6700F"/>
<path fill-rule="evenodd" clip-rule="evenodd" d="M12.0711 16.0767L12.6237 16.6257L18.6473 22.6075L17.5571 23.6909L12.0713 18.2431L6.58854 23.6908L5.49805 22.6076L12.0711 16.0767Z" fill="#E6700F"/>
<path d="M13.1528 1.42653L11.9738 0.255371L10.7949 1.42653L11.9738 2.59769L13.1528 1.42653Z" fill="#E6700F"/>
<path d="M13.1528 22.6179L11.9738 21.4468L10.7949 22.6179L11.9738 23.7891L13.1528 22.6179Z" fill="#E6700F"/>
</g>
<defs>
<clipPath id="clip0_1796_18188">
<rect width="110" height="24" fill="white"/>
</clipPath>
</defs>
</svg>
