<svg width="24" height="24" viewBox="0 0 24 24" fill="none" xmlns="http://www.w3.org/2000/svg">
<path fill-rule="evenodd" clip-rule="evenodd" d="M22.6297 23.5641L0 1.08323L1.0904 0L23.7201 22.4809L22.6297 23.5641Z" fill="#E6700F"/>
<path fill-rule="evenodd" clip-rule="evenodd" d="M0 22.4809L22.6297 0L23.7201 1.08323L1.0904 23.5641L0 22.4809Z" fill="#E6700F"/>
<path fill-rule="evenodd" clip-rule="evenodd" d="M18.4006 1.08342L11.8158 7.62259L5.23633 1.08318L6.327 0.000239489L11.8161 5.45618L17.3104 0L18.4006 1.08342Z" fill="#E6700F"/>
<path fill-rule="evenodd" clip-rule="evenodd" d="M11.8446 15.9497L12.3971 16.4987L18.4207 22.4805L17.3305 23.564L11.8447 18.1162L6.36198 23.5638L5.27148 22.4807L11.8446 15.9497Z" fill="#E6700F"/>
<path d="M12.9262 1.29957L11.7473 0.128418L10.5684 1.29957L11.7473 2.47074L12.9262 1.29957Z" fill="#E6700F"/>
<path d="M12.9262 22.491L11.7473 21.3198L10.5684 22.491L11.7473 23.6621L12.9262 22.491Z" fill="#E6700F"/>
</svg>
