<svg width="804" height="797" viewBox="0 0 804 797" fill="none" xmlns="http://www.w3.org/2000/svg">
<path fill-rule="evenodd" clip-rule="evenodd" d="M133.788 175.037C82.5992 240.711 52.0346 322.941 52.1517 411.313C52.2688 499.685 83.0487 579.863 134.407 642.109L133.788 175.037ZM185.869 120.059L186.629 693.6C211.044 713.173 238.096 729.602 267.195 742.317L266.298 65.9588C237.236 80.6188 210.23 98.8548 185.869 120.059ZM318.423 44.3122L319.372 760.477C345.157 767.283 372.104 771.34 399.883 772.329L398.896 27.0777C371.122 29.924 344.188 35.7826 318.423 44.3122ZM451.047 25.3339L451.155 107.091L659.309 100.132C601.527 55.47 529.614 28.1306 451.047 25.3339ZM712.312 150.542L451.224 159.271L451.331 239.864L763.581 229.424C749.934 200.774 732.649 174.291 712.312 150.542ZM783.419 280.944L451.4 292.044L451.507 372.585L797.899 361.004C795.999 333.277 791.062 306.484 783.419 280.944ZM797.87 413.187L451.576 424.765L452.034 770.586C481.161 767.601 509.363 761.303 536.262 752.087L535.936 505.735L782.293 497.499C790.538 470.455 795.855 442.222 797.87 413.187ZM761.78 550.367L588.156 556.172L588.22 604.294L640.372 602.55L640.441 654.73L588.289 656.474L588.386 729.786C663.933 690.637 725.234 627.204 761.78 550.367ZM0.000654596 413.056C-0.310906 177.947 189.924 -19.0152 424.902 -26.8713C659.88 -34.7275 850.62 149.497 850.932 384.607C851.243 619.716 661.008 816.678 426.03 824.534C191.052 832.39 0.312216 648.165 0.000654596 413.056Z" fill="url(#paint0_linear_1538_19079)"/>
<defs>
<linearGradient id="paint0_linear_1538_19079" x1="-0.563477" y1="-12.6465" x2="968.255" y2="161.777" gradientUnits="userSpaceOnUse">
<stop stop-color="#F7F7F7"/>
<stop offset="1" stop-color="#ECECF2"/>
</linearGradient>
</defs>
</svg>
