<svg width="164" height="32" viewBox="0 0 164 32" fill="none" xmlns="http://www.w3.org/2000/svg">
<g clip-path="url(#clip0_1620_15530)">
<mask id="mask0_1620_15530" style="mask-type:luminance" maskUnits="userSpaceOnUse" x="0" y="0" width="33" height="32">
<path d="M32.042 0H0V31.6596H32.042V0Z" fill="white"/>
</mask>
<g mask="url(#mask0_1620_15530)">
<path fill-rule="evenodd" clip-rule="evenodd" d="M14.9867 31.6596V0H17.0539V31.6596H14.9867Z" fill="#0FBCFF"/>
<path fill-rule="evenodd" clip-rule="evenodd" d="M0 14.8078H32.042V16.8503H0V14.8078Z" fill="#0FBCFF"/>
<path fill-rule="evenodd" clip-rule="evenodd" d="M9.87512 15.8262H11.9423V19.8582H16.0765V21.9008H9.87512V15.8262Z" fill="#0FBCFF"/>
<path fill-rule="evenodd" clip-rule="evenodd" d="M4.7605 15.826L6.82772 15.8264L6.82641 24.913H15.9709V26.9555H4.75891L4.7605 15.826Z" fill="#0FBCFF"/>
<path fill-rule="evenodd" clip-rule="evenodd" d="M15.9524 4.79379H27.1643L27.1628 15.9219L25.0955 15.9216L25.0968 6.83635H15.9524V4.79379Z" fill="#0FBCFF"/>
<path fill-rule="evenodd" clip-rule="evenodd" d="M15.8735 9.87286L22.0757 9.87627L22.0743 15.9492L20.007 15.9486L20.0082 11.9177L15.8723 11.9154L15.8735 9.87286Z" fill="#0FBCFF"/>
</g>
<path d="M55.3918 25.6948C53.9079 25.6948 52.5329 25.4349 51.2664 24.9152C50.0094 24.386 48.9083 23.6537 47.9631 22.7182C47.0273 21.7826 46.2995 20.6865 45.7799 19.4297C45.26 18.1728 45 16.8121 45 15.3474C45 13.8733 45.26 12.5078 45.7799 11.2509C46.2995 9.99416 47.0273 8.89798 47.9631 7.96248C48.9083 7.02695 50.0094 6.29931 51.2664 5.77958C52.5329 5.25985 53.9079 5 55.3918 5C56.8662 5 58.2321 5.26458 59.489 5.79377C60.7463 6.32296 61.8474 7.06002 62.7923 8.00501C63.7376 8.94996 64.4702 10.0508 64.9898 11.3077C65.5193 12.555 65.7837 13.9016 65.7837 15.3474C65.7837 16.8121 65.5193 18.1728 64.9898 19.4297C64.4702 20.6865 63.7376 21.7826 62.7923 22.7182C61.8474 23.6537 60.7463 24.386 59.489 24.9152C58.2321 25.4349 56.8662 25.6948 55.3918 25.6948ZM55.3918 23.1576C56.4599 23.1576 57.4525 22.9733 58.3692 22.6047C59.2954 22.2362 60.1035 21.7118 60.7936 21.0314C61.4833 20.3416 62.022 19.5147 62.4095 18.5508C62.8066 17.587 63.005 16.5192 63.005 15.3474C63.005 13.7693 62.6647 12.3944 61.9842 11.2226C61.3132 10.0508 60.4013 9.14367 59.2481 8.50109C58.0949 7.84905 56.8097 7.52307 55.3918 7.52307C54.3241 7.52307 53.3267 7.71205 52.4005 8.09002C51.4838 8.45857 50.6757 8.98776 49.9761 9.67759C49.2864 10.358 48.7477 11.1801 48.3602 12.144C47.9726 13.0984 47.7786 14.1662 47.7786 15.3474C47.7786 16.9161 48.1145 18.2862 48.7855 19.458C49.466 20.6298 50.3827 21.5417 51.5359 22.1937C52.6887 22.8363 53.9743 23.1576 55.3918 23.1576Z" fill="#0FBCFF"/>
<path d="M67.4845 31.2229V11.3785H69.8803V13.4622C70.4571 12.7251 71.1798 12.1251 72.0496 11.662C72.9285 11.1895 74.0343 10.9533 75.3668 10.9533C76.747 10.9533 77.9614 11.2793 79.0104 11.9313C80.0595 12.5739 80.8772 13.4527 81.4631 14.5678C82.0586 15.6829 82.3563 16.9349 82.3563 18.3241C82.3563 19.3352 82.1862 20.2896 81.8459 21.1873C81.5152 22.0756 81.0378 22.8599 80.4141 23.5403C79.7903 24.2112 79.0482 24.7404 78.1883 25.1278C77.3377 25.5058 76.3876 25.6948 75.3386 25.6948C74.1667 25.6948 73.1411 25.4775 72.2622 25.0428C71.3925 24.5987 70.665 24.0175 70.0791 23.2993V31.2229H67.4845ZM74.899 23.3418C75.8347 23.3418 76.6619 23.1387 77.3802 22.7323C78.108 22.3166 78.6749 21.7354 79.0816 20.9889C79.4974 20.2329 79.7053 19.3446 79.7053 18.3241C79.7053 17.294 79.4974 16.4058 79.0816 15.6592C78.6749 14.9033 78.108 14.3221 77.3802 13.9158C76.6619 13.5094 75.8347 13.3063 74.899 13.3063C73.9636 13.3063 73.1316 13.5094 72.4041 13.9158C71.6855 14.3221 71.1186 14.9033 70.7028 15.6592C70.287 16.4058 70.0791 17.294 70.0791 18.3241C70.0791 19.3446 70.287 20.2329 70.7028 20.9889C71.1186 21.7354 71.6855 22.3166 72.4041 22.7323C73.1316 23.1387 73.9636 23.3418 74.899 23.3418Z" fill="#0FBCFF"/>
<path d="M90.0271 25.6948C88.5527 25.6948 87.2532 25.3877 86.1283 24.7735C85.0037 24.1593 84.1248 23.304 83.4915 22.2079C82.8583 21.1023 82.5415 19.8171 82.5415 18.3524C82.5415 17.294 82.7212 16.3113 83.0805 15.4041C83.449 14.4969 83.9594 13.7126 84.6114 13.0511C85.2732 12.3897 86.0432 11.8747 86.9225 11.5061C87.8109 11.1376 88.7749 10.9533 89.8144 10.9533C90.9394 10.9533 91.9411 11.1518 92.82 11.5486C93.7085 11.9455 94.4411 12.503 95.0175 13.2212C95.6034 13.9299 96.024 14.7662 96.2792 15.7301C96.5344 16.6846 96.5865 17.724 96.4354 18.8485H85.1218C85.0935 19.7746 85.2824 20.5873 85.689 21.2865C86.0953 21.9764 86.6812 22.515 87.4468 22.9024C88.222 23.2899 89.1386 23.4836 90.1972 23.4836C90.9724 23.4836 91.7284 23.3608 92.4655 23.1151C93.2028 22.8694 93.8551 22.5055 94.422 22.0236L95.5279 23.9655C95.0743 24.3341 94.5353 24.6506 93.9116 24.9152C93.2974 25.1703 92.6547 25.3641 91.9836 25.4964C91.3126 25.6287 90.6603 25.6948 90.0271 25.6948ZM85.2637 16.8216H93.8265C93.7888 15.6498 93.425 14.7379 92.7349 14.0859C92.0449 13.4244 91.0574 13.0936 89.7719 13.0936C88.5245 13.0936 87.4941 13.4244 86.6812 14.0859C85.8687 14.7379 85.396 15.6498 85.2637 16.8216Z" fill="#0FBCFF"/>
<path d="M97.8226 25.2696V11.3785H100.431V13.2496C101.027 12.4369 101.721 11.851 102.515 11.4919C103.309 11.1328 104.122 10.9533 104.954 10.9533C106.211 10.9533 107.25 11.2084 108.073 11.7187C108.905 12.2196 109.523 12.8621 109.93 13.6464C110.346 14.4308 110.554 15.234 110.554 16.0561V25.2696H107.945V16.8641C107.945 15.8152 107.619 14.9741 106.967 14.341C106.315 13.6984 105.426 13.3771 104.301 13.3771C103.564 13.3771 102.903 13.5425 102.317 13.8733C101.74 14.1946 101.282 14.6528 100.942 15.2482C100.601 15.8435 100.431 16.5286 100.431 17.3035V25.2696H97.8226Z" fill="#0FBCFF"/>
<path d="M111.603 25.2696L119.414 5.42523H122.178L130.231 25.2696H127.226L125.255 20.2943H116.409L114.523 25.2696H111.603ZM117.16 17.9697H124.475L120.733 8.72788L117.16 17.9697Z" fill="#0FBCFF"/>
<path d="M132.296 25.2539V5.24976H144.844V7.65025H134.983V13.6086H143.572V15.9091H134.983V22.8391H144.93V25.2539H132.296Z" fill="#0FBCFF"/>
<path d="M153.71 25.2539L145.907 5.24976H148.937L155.125 21.5674L161.056 5.24976H164L156.454 25.2539H153.71Z" fill="#0FBCFF"/>
</g>
<defs>
<clipPath id="clip0_1620_15530">
<rect width="164" height="32" fill="white"/>
</clipPath>
</defs>
</svg>
