<svg width="140" height="35" viewBox="0 0 140 35" fill="none" xmlns="http://www.w3.org/2000/svg">
<g clip-path="url(#clip0_1833_18105)">
<path fill-rule="evenodd" clip-rule="evenodd" d="M5.52177 7.78547C3.41045 10.4177 2.14744 13.7596 2.14744 17.3965C2.14744 21.0334 3.41045 24.3754 5.52177 27.0076V7.78547ZM7.66922 5.59465V29.1984C8.67347 30.0375 9.78643 30.7508 10.9839 31.3141V3.47896C9.78643 4.04224 8.67347 4.75555 7.66922 5.59465ZM13.1313 2.65984V32.1332C14.1927 32.4488 15.302 32.6528 16.4458 32.7317V2.06132C15.302 2.14024 14.1927 2.34427 13.1313 2.65984ZM18.5933 2.06131V5.42597H27.1645C24.7877 3.50854 21.8282 2.2845 18.5933 2.06131ZM29.3442 7.57341H18.5933V10.8902H31.4509C30.8906 9.69239 30.1803 8.57874 29.3442 7.57341ZM32.2649 13.0376H18.5933V16.3522H32.8568C32.7801 15.2086 32.5783 14.0992 32.2649 13.0376ZM32.8527 18.4997H18.5933V32.7318C19.7927 32.649 20.9543 32.4286 22.0624 32.0864V21.9479H32.2068C32.5478 20.8463 32.7682 19.6918 32.8527 18.4997ZM31.3592 24.0954H24.2099V26.0758H26.3573V28.2232H24.2099V31.2403C27.3227 29.7332 29.8503 27.2071 31.3592 24.0954ZM0 17.3965C0 7.72074 7.84379 -0.123047 17.5196 -0.123047C27.1954 -0.123047 35.0392 7.72074 35.0392 17.3965C35.0392 27.0723 27.1954 34.9161 17.5196 34.9161C7.84379 34.9161 0 27.0723 0 17.3965Z" fill="#848592"/>
<path d="M126.352 28.1834V13.2899H129.148V15.296C129.787 14.4246 130.531 13.7965 131.382 13.4115C132.233 13.0265 133.105 12.834 133.996 12.834C135.344 12.834 136.458 13.1076 137.34 13.6546C138.231 14.1916 138.895 14.8806 139.331 15.7215C139.776 16.5624 139.999 17.4236 139.999 18.3051V28.1834H137.203V19.1713C137.203 18.0467 136.853 17.145 136.154 16.4662C135.455 15.7772 134.503 15.4328 133.297 15.4328C132.507 15.4328 131.798 15.6101 131.169 15.9646C130.552 16.3091 130.06 16.8005 129.695 17.4388C129.331 18.0771 129.148 18.8116 129.148 19.6424V28.1834H126.352Z" fill="#848592"/>
<path d="M115.131 28.6393C113.632 28.6393 112.304 28.2897 111.149 27.5906C109.994 26.8916 109.093 25.9493 108.444 24.7639C107.796 23.5684 107.472 22.226 107.472 20.7366C107.472 19.6221 107.659 18.5837 108.034 17.6212C108.409 16.6587 108.936 15.8228 109.614 15.1136C110.293 14.3943 111.099 13.837 112.031 13.4419C112.973 13.0366 114.007 12.834 115.131 12.834C116.63 12.834 117.877 13.1481 118.869 13.7762C119.862 14.4044 120.637 15.2048 121.195 16.1774L120.784 16.7853V13.2899H123.338V28.1834H120.784V24.6879L121.195 25.2806C120.637 26.2533 119.862 27.0587 118.869 27.697C117.877 28.3252 116.63 28.6393 115.131 28.6393ZM115.435 26.1165C116.428 26.1165 117.309 25.8987 118.079 25.463C118.849 25.0172 119.452 24.3941 119.888 23.5937C120.334 22.7832 120.557 21.8309 120.557 20.7366C120.557 19.6323 120.334 18.6799 119.888 17.8795C119.452 17.069 118.849 16.4459 118.079 16.0103C117.309 15.5746 116.428 15.3568 115.435 15.3568C114.442 15.3568 113.561 15.5746 112.791 16.0103C112.021 16.4459 111.413 17.069 110.967 17.8795C110.521 18.6799 110.298 19.6323 110.298 20.7366C110.298 21.8309 110.521 22.7832 110.967 23.5937C111.413 24.3941 112.021 25.0172 112.791 25.463C113.561 25.8987 114.442 26.1165 115.435 26.1165Z" fill="#848592"/>
<path d="M98.7456 28.1848V13.2914H101.542V15.4495C102.14 14.4768 102.849 13.798 103.669 13.413C104.5 13.0179 105.382 12.8203 106.314 12.8203C106.608 12.8203 106.891 12.8355 107.165 12.8659C107.439 12.8963 107.707 12.9368 107.97 12.9875L107.56 15.8902C107.276 15.8091 106.988 15.7483 106.694 15.7078C106.4 15.6572 106.111 15.6318 105.828 15.6318C104.581 15.6318 103.553 16.0219 102.742 16.802C101.942 17.572 101.542 18.6054 101.542 19.9023V28.1848H98.7456Z" fill="#848592"/>
<path d="M87.6748 35.0222C86.7121 35.0222 85.7447 34.9259 84.7719 34.7334C83.7995 34.5409 82.8722 34.2268 81.9907 33.7912L82.7354 31.4052C83.5357 31.7801 84.3465 32.0587 85.167 32.2411C85.9879 32.4234 86.7933 32.5146 87.5835 32.5146C89.3768 32.5146 90.7447 32.0739 91.6868 31.1924C92.639 30.311 93.1153 29.1509 93.1153 27.7122V24.4752L93.5104 25.0679C92.9634 26.0506 92.1984 26.8561 91.2155 27.4843C90.233 28.1023 88.9968 28.4113 87.5073 28.4113C85.9879 28.4113 84.6554 28.0668 83.5105 27.3779C82.3656 26.6788 81.474 25.7416 80.8357 24.5664C80.1974 23.3911 79.8784 22.074 79.8784 20.6151C79.8784 19.531 80.0606 18.5178 80.4254 17.5756C80.7902 16.6334 81.3069 15.8076 81.9755 15.0984C82.6546 14.3791 83.46 13.8218 84.392 13.4267C85.324 13.0316 86.3624 12.834 87.5073 12.834C88.9968 12.834 90.233 13.143 91.2155 13.7611C92.1984 14.3791 92.9634 15.1795 93.5104 16.1622L93.1153 16.7701V13.2747H95.7446V27.0131C95.7446 29.5258 95.0655 31.4862 93.7081 32.8945C92.3604 34.3129 90.3495 35.0222 87.6748 35.0222ZM87.8418 25.9189C88.8348 25.9189 89.7163 25.7011 90.4863 25.2654C91.2664 24.8298 91.874 24.2168 92.3099 23.4266C92.7454 22.6363 92.9634 21.6991 92.9634 20.6151C92.9634 19.5411 92.7454 18.609 92.3099 17.8187C91.874 17.0184 91.2664 16.4003 90.4863 15.9646C89.7163 15.529 88.8348 15.3112 87.8418 15.3112C86.8387 15.3112 85.9522 15.529 85.1822 15.9646C84.4122 16.4003 83.8046 17.0184 83.3586 17.8187C82.9231 18.609 82.7051 19.5411 82.7051 20.6151C82.7051 21.6991 82.9231 22.6363 83.3586 23.4266C83.8046 24.2168 84.4122 24.8298 85.1822 25.2654C85.9522 25.7011 86.8387 25.9189 87.8418 25.9189Z" fill="#848592"/>
<path d="M75.4108 28.1833V13.2899H78.2072V28.1833H75.4108ZM76.809 10.4783C76.2822 10.4783 75.8261 10.3011 75.4411 9.94645C75.0561 9.59183 74.8638 9.14098 74.8638 8.5939C74.8638 8.04678 75.0561 7.60098 75.4411 7.2565C75.8261 6.90192 76.2822 6.72461 76.809 6.72461C77.3459 6.72461 77.8016 6.90192 78.1765 7.2565C78.5615 7.60098 78.7542 8.04678 78.7542 8.5939C78.7542 9.14098 78.5615 9.59183 78.1765 9.94645C77.8016 10.3011 77.3459 10.4783 76.809 10.4783Z" fill="#848592"/>
<path d="M69.6055 28.185V6.30078H72.4019V28.185H69.6055Z" fill="#848592"/>
<path d="M63.8019 28.1833V13.2899H66.5983V28.1833H63.8019ZM65.2001 10.4784C64.6733 10.4784 64.2172 10.3011 63.8322 9.94645C63.4472 9.59187 63.2549 9.14098 63.2549 8.5939C63.2549 8.04678 63.4472 7.60098 63.8322 7.25654C64.2172 6.90192 64.6733 6.72461 65.2001 6.72461C65.737 6.72461 66.1931 6.90192 66.5676 7.25654C66.9526 7.60098 67.1453 8.04678 67.1453 8.5939C67.1453 9.14098 66.9526 9.59187 66.5676 9.94645C66.1931 10.3011 65.737 10.4784 65.2001 10.4784Z" fill="#848592"/>
<path d="M48.5532 28.1845V6.9082H61.4105V9.53732H51.4106V16.2242H56.123V18.7925H51.4106V28.1845H48.5532Z" fill="#848592"/>
</g>
<defs>
<clipPath id="clip0_1833_18105">
<rect width="140" height="35.3608" fill="white" transform="translate(0 -0.179688)"/>
</clipPath>
</defs>
</svg>
