<svg width="164" height="32" viewBox="0 0 164 32" fill="none" xmlns="http://www.w3.org/2000/svg">
<g clip-path="url(#clip0_1406_11278)">
<path d="M55.728 26.2455C54.2255 26.2455 52.8332 25.9855 51.5508 25.4654C50.2781 24.9359 49.1632 24.203 48.206 23.2669C47.2586 22.3308 46.5216 21.2339 45.9955 19.9763C45.469 18.7187 45.2058 17.357 45.2058 15.8914C45.2058 14.4163 45.469 13.0499 45.9955 11.7923C46.5216 10.5347 47.2586 9.43782 48.206 8.50171C49.1632 7.56558 50.2781 6.83748 51.5508 6.31741C52.8332 5.79734 54.2255 5.53732 55.728 5.53732C57.2209 5.53732 58.6039 5.80207 59.8766 6.3316C61.1493 6.86114 62.2642 7.59867 63.2213 8.54427C64.1785 9.48983 64.9199 10.5914 65.4464 11.8491C65.9825 13.0972 66.2502 14.4447 66.2502 15.8914C66.2502 17.357 65.9825 18.7187 65.4464 19.9763C64.9199 21.2339 64.1785 22.3308 63.2213 23.2669C62.2642 24.203 61.1493 24.9359 59.8766 25.4654C58.6039 25.9855 57.2209 26.2455 55.728 26.2455ZM55.728 23.7066C56.8095 23.7066 57.8142 23.5222 58.7427 23.1534C59.6805 22.7847 60.4988 22.2599 61.1972 21.5791C61.8959 20.8888 62.4413 20.0614 62.8337 19.0969C63.2358 18.1324 63.4367 17.0639 63.4367 15.8914C63.4367 14.3123 63.0921 12.9365 62.4031 11.7639C61.7236 10.5914 60.8003 9.68367 59.6326 9.04068C58.465 8.38822 57.1637 8.06202 55.728 8.06202C54.6465 8.06202 53.637 8.25113 52.6992 8.62934C51.771 8.99812 50.9527 9.52765 50.2443 10.2179C49.546 10.8988 49.0002 11.7214 48.6081 12.6859C48.2157 13.6409 48.0193 14.7094 48.0193 15.8914C48.0193 17.4611 48.359 18.8321 49.0384 20.0047C49.7275 21.1772 50.6561 22.0897 51.8233 22.7421C52.991 23.3851 54.2926 23.7066 55.728 23.7066Z" fill="#0FBCFF"/>
<path d="M67.9725 31.7771V11.92H70.3984V14.005C70.9821 13.2674 71.7142 12.667 72.5949 12.2037C73.4848 11.7309 74.6045 11.4945 75.9538 11.4945C77.3512 11.4945 78.5809 11.8207 79.6431 12.4731C80.7053 13.1161 81.5332 13.9955 82.1265 15.1113C82.7294 16.2271 83.0309 17.48 83.0309 18.87C83.0309 19.8817 82.8586 20.8368 82.5141 21.7351C82.1792 22.6239 81.6958 23.4088 81.0643 24.0896C80.4327 24.7609 79.6813 25.2905 78.8103 25.6781C77.9493 26.0564 76.9874 26.2455 75.9252 26.2455C74.7386 26.2455 73.7001 26.028 72.8102 25.5931C71.9296 25.1486 71.1926 24.5671 70.5993 23.8485V31.7771H67.9725ZM75.48 23.891C76.4275 23.891 77.2651 23.6877 77.9924 23.2811C78.729 22.8651 79.3034 22.2835 79.7147 21.5365C80.1358 20.7801 80.3466 19.8912 80.3466 18.87C80.3466 17.8393 80.1358 16.9504 79.7147 16.2034C79.3034 15.447 78.729 14.8655 77.9924 14.4589C77.2651 14.0523 76.4275 13.849 75.48 13.849C74.5325 13.849 73.6905 14.0523 72.9535 14.4589C72.2262 14.8655 71.6522 15.447 71.2312 16.2034C70.8098 16.9504 70.5993 17.8393 70.5993 18.87C70.5993 19.8912 70.8098 20.7801 71.2312 21.5365C71.6522 22.2835 72.2262 22.8651 72.9535 23.2811C73.6905 23.6877 74.5325 23.891 75.48 23.891Z" fill="#0FBCFF"/>
<path d="M90.7978 26.2455C89.3049 26.2455 87.9891 25.9382 86.85 25.3235C85.7113 24.7089 84.8214 23.8532 84.1802 22.7563C83.539 21.65 83.2183 20.364 83.2183 18.8984C83.2183 17.8393 83.4002 16.8559 83.7637 15.9482C84.1371 15.0404 84.654 14.2556 85.3141 13.5936C85.9839 12.9318 86.7639 12.4164 87.6538 12.0476C88.5534 11.6789 89.5299 11.4945 90.5824 11.4945C91.7211 11.4945 92.7358 11.693 93.6257 12.0902C94.5253 12.4873 95.2671 13.0452 95.8507 13.7639C96.444 14.473 96.8699 15.3099 97.1283 16.2744C97.3867 17.2294 97.4394 18.2696 97.2861 19.3948H85.8309C85.8023 20.3214 85.9935 21.1346 86.4052 21.8344C86.8166 22.5246 87.4099 23.0636 88.1851 23.4513C88.97 23.839 89.8982 24.0329 90.97 24.0329C91.7549 24.0329 92.5204 23.9099 93.2667 23.6641C94.0133 23.4182 94.6735 23.0542 95.2478 22.5719L96.3675 24.5151C95.9083 24.8839 95.3625 25.2006 94.731 25.4654C94.1091 25.7207 93.4583 25.9145 92.7788 26.0469C92.0994 26.1793 91.4389 26.2455 90.7978 26.2455ZM85.9746 17.3665H94.6449C94.6066 16.194 94.2383 15.2815 93.5396 14.6291C92.8409 13.9672 91.841 13.6362 90.5393 13.6362C89.2763 13.6362 88.233 13.9672 87.4099 14.6291C86.5868 15.2815 86.1086 16.194 85.9746 17.3665Z" fill="#0FBCFF"/>
<path d="M98.6912 25.82V11.92H101.332V13.7922C101.935 12.979 102.639 12.3928 103.443 12.0334C104.246 11.6741 105.07 11.4945 105.912 11.4945C107.184 11.4945 108.237 11.7498 109.07 12.2604C109.912 12.7615 110.539 13.4045 110.95 14.1894C111.371 14.9742 111.582 15.7779 111.582 16.6006V25.82H108.94V17.4091C108.94 16.3595 108.61 15.5179 107.95 14.8844C107.29 14.2414 106.39 13.9199 105.251 13.9199C104.505 13.9199 103.835 14.0854 103.241 14.4163C102.658 14.7378 102.194 15.1964 101.849 15.7921C101.505 16.3879 101.332 17.0734 101.332 17.8488V25.82H98.6912Z" fill="#0FBCFF"/>
<path d="M114.396 25.82V5.96283H121C122.885 5.96283 124.412 6.38833 125.579 7.23936C126.756 8.08092 127.345 9.32436 127.345 10.9697C127.345 11.6032 127.187 12.2131 126.871 12.7994C126.555 13.3762 126.148 13.882 125.651 14.317C125.163 14.752 124.655 15.0593 124.129 15.2389C125.23 15.5604 126.153 16.1609 126.9 17.0403C127.656 17.9197 128.034 19.0118 128.034 20.3167C128.034 21.3852 127.761 22.3308 127.215 23.1534C126.68 23.9761 125.909 24.6286 124.904 25.1108C123.909 25.5836 122.727 25.82 121.359 25.82H114.396ZM117.095 23.6357H120.871C122.354 23.6357 123.454 23.352 124.172 22.7847C124.899 22.2173 125.263 21.3474 125.263 20.1749C125.263 19.0307 124.895 18.1608 124.158 17.5651C123.431 16.9599 122.292 16.6573 120.741 16.6573H117.095V23.6357ZM117.095 14.5581H120.555C121.388 14.5581 122.115 14.4258 122.737 14.161C123.359 13.8962 123.837 13.518 124.172 13.0263C124.517 12.5251 124.689 11.9247 124.689 11.225C124.689 10.2227 124.325 9.45675 123.598 8.92722C122.88 8.39769 121.852 8.13294 120.512 8.13294H117.095V14.5581Z" fill="#0FBCFF"/>
<path d="M129.181 25.82L137.091 5.96283H139.89L148.044 25.82H145.001L143.005 20.8415H134.048L132.139 25.82H129.181ZM134.809 18.5154H142.216L138.426 9.26761L134.809 18.5154Z" fill="#0FBCFF"/>
<path d="M156.632 26.2455C155.282 26.2455 153.966 26.0611 152.684 25.6923C151.402 25.3141 150.32 24.7751 149.44 24.0754L150.789 21.9904C151.287 22.397 151.852 22.7421 152.483 23.0258C153.115 23.3095 153.784 23.5269 154.493 23.6782C155.201 23.8295 155.919 23.9052 156.646 23.9052C158.072 23.9052 159.215 23.631 160.077 23.0825C160.948 22.5341 161.383 21.7303 161.383 20.6713C161.383 19.8959 161.091 19.2387 160.507 18.6998C159.933 18.1608 158.857 17.6691 157.278 17.2247L155.096 16.5864C153.258 16.0569 151.914 15.3619 151.062 14.5014C150.21 13.6409 149.784 12.563 149.784 11.2675C149.784 10.3976 149.961 9.61276 150.315 8.91302C150.669 8.21331 151.167 7.61286 151.809 7.11169C152.45 6.60108 153.206 6.21341 154.077 5.94863C154.957 5.67441 155.919 5.53732 156.962 5.53732C158.254 5.53732 159.455 5.72643 160.565 6.10464C161.685 6.47343 162.608 6.96987 163.335 7.59394L161.943 9.59383C161.512 9.23451 161.019 8.92721 160.464 8.67189C159.909 8.40714 159.316 8.20857 158.684 8.07618C158.053 7.93436 157.412 7.86345 156.761 7.86345C155.89 7.86345 155.12 7.99108 154.45 8.2464C153.789 8.49225 153.272 8.86103 152.899 9.35271C152.536 9.83496 152.354 10.4212 152.354 11.1115C152.354 11.6127 152.473 12.0524 152.713 12.4306C152.952 12.7993 153.368 13.1398 153.962 13.4518C154.555 13.7638 155.373 14.0711 156.416 14.3737L158.742 15.0546C160.532 15.5746 161.847 16.2602 162.689 17.1112C163.532 17.9527 163.953 19.0591 163.953 20.4302C163.953 21.5838 163.665 22.6003 163.091 23.4797C162.527 24.3496 161.699 25.0304 160.608 25.5221C159.517 26.0044 158.191 26.2455 156.632 26.2455Z" fill="#0FBCFF"/>
<mask id="mask0_1406_11278" style="mask-type:luminance" maskUnits="userSpaceOnUse" x="0" y="0" width="33" height="32">
<path d="M32.042 0H0V31.6596H32.042V0Z" fill="white"/>
</mask>
<g mask="url(#mask0_1406_11278)">
<path fill-rule="evenodd" clip-rule="evenodd" d="M14.9867 31.6596V0H17.0539V31.6596H14.9867Z" fill="#0FBCFF"/>
<path fill-rule="evenodd" clip-rule="evenodd" d="M0 14.8078H32.042V16.8503H0V14.8078Z" fill="#0FBCFF"/>
<path fill-rule="evenodd" clip-rule="evenodd" d="M9.87512 15.8262H11.9423V19.8582H16.0765V21.9008H9.87512V15.8262Z" fill="#0FBCFF"/>
<path fill-rule="evenodd" clip-rule="evenodd" d="M4.7605 15.826L6.82772 15.8264L6.82641 24.913H15.9709V26.9555H4.75891L4.7605 15.826Z" fill="#0FBCFF"/>
<path fill-rule="evenodd" clip-rule="evenodd" d="M15.9524 4.79379H27.1643L27.1628 15.9219L25.0955 15.9216L25.0968 6.83635H15.9524V4.79379Z" fill="#0FBCFF"/>
<path fill-rule="evenodd" clip-rule="evenodd" d="M15.8735 9.87286L22.0757 9.87627L22.0743 15.9492L20.007 15.9486L20.0082 11.9177L15.8723 11.9154L15.8735 9.87286Z" fill="#0FBCFF"/>
</g>
</g>
<defs>
<clipPath id="clip0_1406_11278">
<rect width="164" height="32" fill="white"/>
</clipPath>
</defs>
</svg>
