<svg width="851" height="852" viewBox="0 0 851 852" fill="none" xmlns="http://www.w3.org/2000/svg">
<path fill-rule="evenodd" clip-rule="evenodd" d="M133.788 202.15C82.5992 267.824 52.0346 350.054 52.1517 438.426C52.2688 526.798 83.0487 606.977 134.407 669.222L133.788 202.15ZM185.869 147.172L186.629 720.713C211.044 740.286 238.096 756.715 267.195 769.431L266.298 93.0721C237.236 107.732 210.23 125.968 185.869 147.172ZM318.423 71.4255L319.372 787.59C345.157 794.396 372.104 798.453 399.883 799.442L398.896 54.191C371.122 57.0373 344.188 62.8959 318.423 71.4255ZM451.047 52.4472L451.155 134.204L659.309 127.245C601.527 82.5832 529.614 55.2438 451.047 52.4472ZM712.312 177.655L451.224 186.384L451.331 266.977L763.581 256.538C749.934 227.888 732.649 201.404 712.312 177.655ZM783.419 308.057L451.4 319.157L451.507 399.698L797.899 388.117C795.999 360.39 791.062 333.597 783.419 308.057ZM797.87 440.3L451.576 451.878L452.034 797.699C481.161 794.714 509.363 788.417 536.262 779.2L535.936 532.849L782.293 524.612C790.538 497.568 795.855 469.335 797.87 440.3ZM761.78 577.48L588.156 583.285L588.22 631.407L640.372 629.664L640.441 681.844L588.289 683.587L588.386 756.899C663.933 717.751 725.234 654.318 761.78 577.48ZM0.000654596 440.17C-0.310906 205.06 189.924 8.09812 424.902 0.241967C659.88 -7.61419 850.62 176.611 850.932 411.72C851.243 646.829 661.008 843.791 426.03 851.648C191.052 859.504 0.312216 675.279 0.000654596 440.17Z" fill="url(#paint0_linear_1473_18637)"/>
<defs>
<linearGradient id="paint0_linear_1473_18637" x1="-0.563477" y1="14.4668" x2="968.255" y2="188.89" gradientUnits="userSpaceOnUse">
<stop stop-color="#0C1524"/>
<stop offset="1" stop-color="#070D19"/>
</linearGradient>
</defs>
</svg>
