<svg width="164" height="42" viewBox="0 0 164 42" fill="none" xmlns="http://www.w3.org/2000/svg">
<path fill-rule="evenodd" clip-rule="evenodd" d="M5.54338 7.88901C3.42351 10.5145 2.15583 13.8484 2.15583 17.4759C2.15583 21.1041 3.42351 24.4379 5.54338 27.0633V7.88901ZM7.69921 5.70362V29.2489C8.70727 30.0858 9.82448 30.7973 11.0271 31.3591V3.59323C9.82448 4.15519 8.70727 4.8667 7.69921 5.70362ZM13.1829 2.77593V32.1764C14.248 32.4912 15.362 32.6947 16.5103 32.7732V2.17915C15.362 2.2577 14.248 2.46124 13.1829 2.77593ZM18.666 2.17915V5.53535H27.271C24.8846 3.62268 21.9135 2.40143 18.666 2.17915ZM29.4591 7.67743H18.666V10.9859H31.574C31.0111 9.79096 30.2983 8.68041 29.4591 7.67743ZM32.3912 13.128H18.666V16.4346H32.9855C32.9082 15.2938 32.7057 14.1872 32.3912 13.128ZM32.9814 18.5768H18.666V32.7732C19.87 32.6906 21.0363 32.4711 22.1489 32.1297V22.0164H32.3328C32.6752 20.9175 32.8965 19.7658 32.9814 18.5768ZM31.482 24.1584H24.3048V26.134H26.4605V28.2762H24.3048V31.2856C27.4295 29.7822 29.9672 27.2626 31.482 24.1584ZM0 17.4759C0 7.82428 7.87441 0 17.5879 0C27.3019 0 35.1763 7.82428 35.1763 17.4759C35.1763 27.1281 27.3019 34.9523 17.5879 34.9523C7.87441 34.9523 0 27.1281 0 17.4759Z" fill="#0015A8"/>
<path d="M48.9863 27.8216L55.8783 17.1409L49.375 7.02483H52.7237L57.9114 15.1207L63.4877 7.02483H66.7169L59.825 17.2301L66.9411 27.8216H63.5775L57.7918 19.1909L52.2453 27.8216H48.9863ZM72.9543 27.8216V9.59469H66.9594V7.02483H81.7599V9.59469H75.7649V27.8216H72.9543ZM83.6499 27.8216V7.02483H86.3857L95.1165 21.0625H94.0401L102.472 7.02483H105.133V27.8216H102.382L102.412 10.8276L102.965 11.0059L95.4902 23.1423H93.3225L85.7577 11.0059L86.1914 10.8276L86.2212 27.8216H83.6499ZM112.57 27.8216V7.02483H115.381V15.4771H126.144V7.02483H128.955V27.8216H126.144V18.047H115.381V27.8216H112.57ZM137.98 28.2671C136.674 28.2671 135.593 28.0047 134.735 27.4798C133.888 26.9551 133.255 26.2717 132.837 25.4298C132.418 24.5881 132.209 23.687 132.209 22.7263V13.2637H134.96V22.147C134.96 23.2165 135.284 24.083 135.932 24.7465C136.589 25.4002 137.491 25.727 138.637 25.727C139.375 25.727 140.043 25.5586 140.641 25.2219C141.239 24.8853 141.712 24.4147 142.061 23.8108C142.42 23.1967 142.599 22.4887 142.599 21.6864V13.2637H145.35V27.8216H142.823V26.039C142.215 26.7717 141.503 27.3264 140.686 27.7026C139.878 28.0789 138.976 28.2671 137.98 28.2671ZM156.63 28.2671C155.643 28.2671 154.751 28.1185 153.954 27.8216C153.156 27.5344 152.464 27.1332 151.876 26.6183C151.297 26.1033 150.819 25.514 150.44 24.8505L150.844 24.2564V27.8216H148.318V6.43063H151.053V16.6358L150.515 16.0268C151.163 15.0761 151.985 14.3036 152.982 13.7095C153.988 13.1153 155.194 12.8182 156.6 12.8182C158.065 12.8182 159.351 13.1648 160.457 13.8581C161.573 14.5512 162.44 15.4821 163.058 16.6508C163.686 17.8193 164 19.1167 164 20.5427C164 21.632 163.821 22.6471 163.462 23.5878C163.103 24.5187 162.595 25.3358 161.937 26.039C161.289 26.7421 160.517 27.2916 159.62 27.6878C158.723 28.0741 157.726 28.2671 156.63 28.2671ZM156.136 25.8012C157.123 25.8012 157.995 25.5884 158.752 25.1625C159.52 24.7267 160.118 24.1178 160.547 23.3354C160.985 22.5431 161.204 21.6122 161.204 20.5427C161.204 19.4633 160.985 18.5324 160.547 17.75C160.118 16.9577 159.52 16.3486 158.752 15.9228C157.995 15.4971 157.123 15.2841 156.136 15.2841C155.15 15.2841 154.273 15.4971 153.505 15.9228C152.748 16.3486 152.15 16.9577 151.711 17.75C151.273 18.5324 151.053 19.4633 151.053 20.5427C151.053 21.6122 151.273 22.5431 151.711 23.3354C152.15 24.1178 152.748 24.7267 153.505 25.1625C154.273 25.5884 155.15 25.8012 156.136 25.8012Z" fill="#0015A8"/>
<path d="M116.981 37.155V30.707H119.016C119.612 30.707 120.098 30.8453 120.472 31.1216C120.846 31.3948 121.032 31.797 121.032 32.3282C121.032 32.5401 120.978 32.7427 120.87 32.9363C120.762 33.1296 120.626 33.2985 120.462 33.4428C120.299 33.5871 120.132 33.687 119.962 33.7423C120.32 33.8436 120.623 34.037 120.87 34.3225C121.121 34.6051 121.246 34.9627 121.246 35.3956C121.246 35.7304 121.161 36.0313 120.991 36.2983C120.821 36.5625 120.578 36.7712 120.263 36.9247C119.951 37.0783 119.58 37.155 119.15 37.155H116.981ZM117.686 36.5518H119.002C119.521 36.5518 119.906 36.4535 120.156 36.2569C120.407 36.0604 120.532 35.758 120.532 35.3496C120.532 34.9474 120.402 34.6434 120.142 34.4378C119.886 34.2289 119.486 34.1246 118.942 34.1246H117.686V36.5518ZM117.686 33.535H118.886C119.18 33.535 119.435 33.4888 119.651 33.3968C119.867 33.3048 120.036 33.1726 120.156 33.0007C120.277 32.8257 120.337 32.617 120.337 32.3744C120.337 32.0305 120.21 31.768 119.957 31.5867C119.704 31.4025 119.344 31.3105 118.877 31.3105H117.686V33.535ZM122.114 39.223C121.981 39.223 121.848 39.2061 121.715 39.1724C121.585 39.1417 121.45 39.0833 121.307 38.9974L121.479 38.394C121.572 38.4585 121.672 38.5061 121.78 38.5368C121.891 38.5675 121.987 38.5828 122.068 38.5828C122.315 38.5828 122.502 38.5229 122.628 38.4032C122.755 38.2835 122.862 38.1007 122.948 37.8551L123.152 37.2656L121.363 32.6874H122.128L123.546 36.4319L124.927 32.6874H125.66L123.662 37.938C123.529 38.2819 123.387 38.5459 123.236 38.7302C123.084 38.9175 122.916 39.0464 122.73 39.1171C122.545 39.1877 122.34 39.223 122.114 39.223Z" fill="#0015A8"/>
<path d="M128.537 39.3177H129.663V35.6337H131.747V34.6263H129.663V32.0034H133.603V30.9721H128.537V39.3177Z" fill="#0015A8"/>
<path d="M135.526 33.4758H134.424V39.3177H135.526V33.4758Z" fill="#0015A8"/>
<path d="M135.516 31.106C135.366 30.9689 135.185 30.9004 134.974 30.9004C134.762 30.9004 134.587 30.9689 134.435 31.106C134.283 31.2432 134.208 31.4191 134.208 31.6336C134.208 31.8482 134.283 32.025 134.435 32.1641C134.587 32.3032 134.766 32.3728 134.974 32.3728C135.181 32.3728 135.366 32.3032 135.516 32.1641C135.665 32.025 135.74 31.8482 135.74 31.6336C135.74 31.4191 135.665 31.2432 135.516 31.106Z" fill="#0015A8"/>
<path d="M137.693 30.7338H136.591V39.3179H137.693V30.7338Z" fill="#0015A8"/>
<path d="M139.86 33.4758H138.759V39.3179H139.86V33.4758Z" fill="#0015A8"/>
<path d="M139.851 31.106C139.701 30.9689 139.521 30.9004 139.309 30.9004C139.097 30.9004 138.922 30.9689 138.77 31.106C138.618 31.2432 138.542 31.4191 138.542 31.6336C138.542 31.8482 138.618 32.025 138.77 32.1641C138.922 32.3032 139.101 32.3728 139.309 32.3728C139.516 32.3728 139.701 32.3032 139.851 32.1641C140.001 32.025 140.075 31.8482 140.075 31.6336C140.075 31.4191 140.001 31.2432 139.851 31.106Z" fill="#0015A8"/>
<path d="M145.614 34.3575C145.416 34.0819 145.167 33.8493 144.865 33.6604C144.478 33.418 143.991 33.2968 143.404 33.2968C142.953 33.2968 142.544 33.3742 142.177 33.5292C141.81 33.6842 141.493 33.9018 141.228 34.182C140.962 34.4622 140.758 34.787 140.614 35.1566C140.47 35.5262 140.398 35.9236 140.398 36.3488C140.398 36.9212 140.524 37.4377 140.776 37.8988C141.027 38.3599 141.378 38.7264 141.83 38.9986C142.28 39.2708 142.806 39.4069 143.404 39.4069C144.003 39.4069 144.478 39.2847 144.865 39.0404C145.167 38.8499 145.416 38.6166 145.614 38.3404V39.1328C145.614 39.6969 145.427 40.1521 145.054 40.4978C144.681 40.8437 144.141 41.0165 143.434 41.0165C143.123 41.0165 142.806 40.9806 142.482 40.9091C142.159 40.8376 141.84 40.7283 141.524 40.5813L141.231 41.5172C141.578 41.688 141.943 41.8113 142.327 41.8867C142.71 41.9622 143.091 42 143.47 42C144.524 42 145.318 41.7228 145.85 41.1685C146.383 40.6141 146.65 39.8443 146.65 38.8586V33.4696H145.614V34.3575ZM145.297 37.4516C145.125 37.7616 144.886 38.0023 144.581 38.173C144.276 38.3438 143.927 38.4293 143.536 38.4293C143.145 38.4293 142.791 38.3438 142.488 38.173C142.185 38.0023 141.946 37.7616 141.773 37.4516C141.599 37.1416 141.512 36.7742 141.512 36.3488C141.512 35.9236 141.599 35.5611 141.773 35.249C141.946 34.937 142.185 34.6955 142.488 34.5248C142.791 34.3539 143.141 34.2685 143.536 34.2685C143.931 34.2685 144.276 34.3539 144.581 34.5248C144.886 34.6955 145.125 34.937 145.297 35.249C145.468 35.5611 145.554 35.9277 145.554 36.3488C145.554 36.7701 145.468 37.1416 145.297 37.4516Z" fill="#0015A8"/>
<path d="M151.35 33.3568C151.246 33.3369 151.141 33.321 151.033 33.309C150.925 33.2971 150.814 33.2912 150.698 33.2912C150.33 33.2912 149.984 33.3677 149.659 33.5208C149.333 33.6736 149.053 33.941 148.817 34.3225V33.476H147.716V39.3179H148.817V36.0691C148.817 35.5604 148.976 35.1541 149.294 34.8501C149.611 34.546 150.015 34.394 150.506 34.394C150.618 34.394 150.732 34.403 150.847 34.4208C150.963 34.4388 151.077 34.4634 151.189 34.4954L151.35 33.3568Z" fill="#0015A8"/>
<path d="M156.273 34.3609C156.073 34.0891 155.821 33.8572 155.518 33.6663C155.127 33.4198 154.636 33.2968 154.045 33.2968C153.602 33.2968 153.196 33.3752 152.827 33.5322C152.457 33.6893 152.139 33.9078 151.872 34.1879C151.604 34.4681 151.396 34.7968 151.249 35.1746C151.101 35.5522 151.027 35.9592 151.027 36.3966C151.027 36.9808 151.155 37.5062 151.411 37.9734C151.666 38.4403 152.021 38.8108 152.476 39.0851C152.931 39.3593 153.455 39.4964 154.045 39.4964C154.636 39.4964 155.127 39.3721 155.518 39.1238C155.821 38.9316 156.073 38.6988 156.273 38.4264V39.3175H157.279V33.4757H156.273V34.3609ZM155.922 37.5142C155.749 37.8301 155.51 38.0747 155.207 38.2475C154.903 38.4204 154.556 38.5069 154.165 38.5069C153.774 38.5069 153.426 38.4204 153.123 38.2475C152.82 38.0747 152.58 37.8301 152.405 37.5142C152.229 37.1984 152.141 36.8258 152.141 36.3966C152.141 35.9674 152.229 35.5888 152.405 35.2729C152.58 34.957 152.82 34.7133 153.123 34.5426C153.426 34.3718 153.774 34.2863 154.165 34.2863C154.556 34.2863 154.903 34.3718 155.207 34.5426C155.51 34.7133 155.749 34.957 155.922 35.2729C156.096 35.5888 156.183 35.9635 156.183 36.3966C156.183 36.8297 156.096 37.1984 155.922 37.5142Z" fill="#0015A8"/>
<path d="M163.461 34.4294C163.287 34.0994 163.026 33.8281 162.676 33.6157C162.327 33.4032 161.887 33.2968 161.356 33.2968C161.005 33.2968 160.662 33.3722 160.326 33.5233C159.991 33.6744 159.698 33.9207 159.446 34.2624V33.4757H158.344V39.3175H159.446V35.9674C159.446 35.6416 159.518 35.3533 159.662 35.1031C159.805 34.8527 160 34.6589 160.245 34.5218C160.491 34.3846 160.769 34.3161 161.081 34.3161C161.556 34.3161 161.931 34.4503 162.207 34.7185C162.482 34.9868 162.62 35.3414 162.62 35.7825V39.3175H163.721V35.4427C163.721 35.097 163.635 34.7594 163.461 34.4294Z" fill="#0015A8"/>
</svg>
