<?xml version="1.0" encoding="UTF-8" standalone="no"?>
<!DOCTYPE svg PUBLIC "-//W3C//DTD SVG 1.1//EN" "http://www.w3.org/Graphics/SVG/1.1/DTD/svg11.dtd">
<svg width="100%" height="100%" viewBox="0 0 971 230" version="1.1" xmlns="http://www.w3.org/2000/svg" xmlns:xlink="http://www.w3.org/1999/xlink" xml:space="preserve" xmlns:serif="http://www.serif.com/" style="fill-rule:evenodd;clip-rule:evenodd;stroke-linecap:round;stroke-linejoin:round;stroke-miterlimit:1.5;">
    <g transform="matrix(4.16667,0,0,4.16667,-1150,-358.333)">
        <g id="NVD" transform="matrix(1,0,0,1,247.647,130.196)">
            <g id="Squares">
            </g>
            <g id="dividers">
            </g>
            <g id="Numbers">
            </g>
            <g id="Labels">
            </g>
        </g>
        <g id="Tenable" transform="matrix(1,0,0,1,247.647,50.1958)">
            <g id="Squares1" serif:id="Squares">
            </g>
            <g id="dividers1" serif:id="dividers">
            </g>
            <g id="Numbers1" serif:id="Numbers">
            </g>
            <g id="Labels-Screen" serif:id="Labels Screen">
            </g>
        </g>
        <g id="TBC" transform="matrix(1,0,0,1,247.647,-29.8042)">
            <g id="Squares2" serif:id="Squares">
                <g id="_0" serif:id="0" transform="matrix(0.923486,0,0,0.86982,2.24596,19.3713)">
                    <rect x="29.353" y="148.804" width="21.657" height="22.993" style="fill:rgb(255,237,195);stroke:white;stroke-width:1.11px;"/>
                </g>
                <g id="_1" serif:id="1" transform="matrix(0.923486,0,0,0.86982,22.246,19.3713)">
                    <rect x="29.353" y="148.804" width="21.657" height="22.993" style="fill:rgb(255,198,94);stroke:white;stroke-width:1.11px;"/>
                </g>
                <g id="_2" serif:id="2" transform="matrix(0.923486,0,0,0.86982,42.246,19.3713)">
                    <rect x="29.353" y="148.804" width="21.657" height="22.993" style="fill:rgb(255,198,94);stroke:white;stroke-width:1.11px;"/>
                </g>
                <g id="_3" serif:id="3" transform="matrix(0.923486,0,0,0.86982,62.246,19.3713)">
                    <rect x="29.353" y="148.804" width="21.657" height="22.993" style="fill:rgb(255,198,94);stroke:white;stroke-width:1.11px;"/>
                </g>
                <g id="_4" serif:id="4" transform="matrix(0.923486,0,0,0.86982,82.246,19.3713)">
                    <rect x="29.353" y="148.804" width="21.657" height="22.993" style="fill:rgb(255,166,0);stroke:white;stroke-width:1.11px;"/>
                </g>
                <g id="_5" serif:id="5" transform="matrix(0.923486,0,0,0.86982,102.246,19.3713)">
                    <rect x="29.353" y="148.804" width="21.657" height="22.993" style="fill:rgb(255,166,0);stroke:white;stroke-width:1.11px;"/>
                </g>
                <g id="_6" serif:id="6" transform="matrix(0.923486,0,0,0.86982,122.246,19.3713)">
                    <rect x="29.353" y="148.804" width="21.657" height="22.993" style="fill:rgb(255,166,0);stroke:white;stroke-width:1.11px;"/>
                </g>
                <g id="_7" serif:id="7" transform="matrix(0.923486,0,0,0.86982,142.246,19.3713)">
                    <rect x="29.353" y="148.804" width="21.657" height="22.993" style="fill:rgb(234,107,0);stroke:white;stroke-width:1.11px;"/>
                </g>
                <g id="_8" serif:id="8" transform="matrix(0.923486,0,0,0.86982,162.246,19.3713)">
                    <rect x="29.353" y="148.804" width="21.657" height="22.993" style="fill:rgb(234,107,0);stroke:white;stroke-width:1.11px;"/>
                </g>
                <g id="_9" serif:id="9" transform="matrix(0.923486,0,0,0.86982,182.246,19.3713)">
                    <rect x="29.353" y="148.804" width="21.657" height="22.993" style="fill:rgb(161,17,0);stroke:white;stroke-width:1.11px;"/>
                </g>
                <g id="_10" serif:id="10" transform="matrix(0.923486,0,0,0.86982,202.246,19.3713)">
                    <rect x="29.353" y="148.804" width="21.657" height="22.993" style="fill:rgb(120,0,0);stroke:white;stroke-width:1.11px;"/>
                </g>
            </g>
            <g id="dividers2" serif:id="dividers">
                <g transform="matrix(1,0,0,1,-247.647,29.8042)">
                    <path d="M297,111L297,139" style="fill:none;stroke:white;stroke-width:1px;"/>
                </g>
                <g transform="matrix(1,0,0,1,-187.647,29.8042)">
                    <path d="M297,111L297,139" style="fill:none;stroke:white;stroke-width:1px;"/>
                </g>
                <g transform="matrix(1,0,0,1,-127.647,29.8042)">
                    <path d="M297,111L297,139" style="fill:none;stroke:white;stroke-width:1px;"/>
                </g>
                <g transform="matrix(1,0,0,1,-87.6465,29.8042)">
                    <path d="M297,111L297,139" style="fill:none;stroke:white;stroke-width:1px;"/>
                </g>
                <g transform="matrix(1,0,0,1,-67.6465,29.8042)">
                    <path d="M297,111L297,139" style="fill:none;stroke:white;stroke-width:1px;"/>
                </g>
            </g>
            <g id="Numbers2" serif:id="Numbers">
                <g transform="matrix(1,0,0,1,2.05472,0)">
                    <g transform="matrix(12,0,0,12,34.4101,162.371)">
                        <path d="M0.073,-0.128C0.101,-0.041 0.171,0.011 0.278,0.011C0.385,0.011 0.455,-0.041 0.483,-0.128C0.493,-0.158 0.498,-0.189 0.498,-0.34C0.498,-0.491 0.493,-0.522 0.483,-0.552C0.455,-0.639 0.385,-0.691 0.278,-0.691C0.171,-0.691 0.101,-0.639 0.073,-0.552C0.063,-0.522 0.058,-0.491 0.058,-0.34C0.058,-0.189 0.063,-0.158 0.073,-0.128ZM0.209,-0.153C0.203,-0.171 0.201,-0.191 0.201,-0.34C0.201,-0.489 0.203,-0.509 0.209,-0.527C0.219,-0.558 0.242,-0.573 0.278,-0.573C0.313,-0.573 0.337,-0.558 0.347,-0.527C0.353,-0.509 0.355,-0.489 0.355,-0.34C0.355,-0.191 0.353,-0.171 0.347,-0.153C0.337,-0.122 0.313,-0.107 0.278,-0.107C0.242,-0.107 0.219,-0.122 0.209,-0.153Z" style="fill:rgb(232,232,232);fill-rule:nonzero;"/>
                    </g>
                    <path d="M34.906,160.959C35.295,162.168 36.259,162.903 37.746,162.903C39.233,162.903 40.197,162.168 40.586,160.959C40.712,160.582 40.786,160.19 40.786,158.291C40.786,156.392 40.712,156 40.586,155.623C40.197,154.414 39.233,153.679 37.746,153.679C36.259,153.679 35.295,154.414 34.906,155.623C34.78,156 34.706,156.392 34.706,158.291C34.706,160.19 34.78,160.582 34.906,160.959L34.906,160.959ZM35.286,160.835C35.622,161.879 36.462,162.503 37.746,162.503C39.03,162.503 39.87,161.879 40.206,160.835C40.326,160.475 40.386,160.103 40.386,158.291C40.386,156.479 40.326,156.107 40.206,155.747C39.87,154.703 39.03,154.079 37.746,154.079C36.462,154.079 35.622,154.703 35.286,155.747C35.166,156.107 35.106,156.479 35.106,158.291C35.106,160.103 35.166,160.475 35.286,160.835ZM36.918,160.535C36.846,160.319 36.822,160.079 36.822,158.291C36.822,156.503 36.846,156.263 36.918,156.047C37.038,155.675 37.314,155.495 37.746,155.495C38.166,155.495 38.454,155.675 38.574,156.047C38.646,156.263 38.67,156.503 38.67,158.291C38.67,160.079 38.646,160.319 38.574,160.535C38.454,160.907 38.166,161.087 37.746,161.087C37.314,161.087 37.038,160.907 36.918,160.535ZM37.299,160.412C37.298,160.411 37.298,160.41 37.298,160.408C37.23,160.205 37.222,159.978 37.222,158.291C37.222,156.604 37.23,156.377 37.298,156.173C37.298,156.172 37.298,156.171 37.299,156.17C37.362,155.973 37.518,155.895 37.746,155.895C37.968,155.895 38.13,155.973 38.193,156.17C38.194,156.171 38.194,156.172 38.195,156.173C38.263,156.377 38.27,156.604 38.27,158.291C38.27,159.978 38.263,160.205 38.195,160.408C38.194,160.41 38.194,160.411 38.193,160.412C38.13,160.608 37.968,160.687 37.746,160.687C37.518,160.687 37.362,160.608 37.299,160.412Z" style="fill:rgb(33,33,33);"/>
                </g>
                <g transform="matrix(1,0,0,1,22.0547,0.132)">
                    <g transform="matrix(12,0,0,12,34.4101,162.371)">
                        <path d="M0.242,-0.01C0.242,-0.004 0.246,-0 0.252,-0L0.372,-0C0.378,-0 0.382,-0.004 0.382,-0.01L0.382,-0.67C0.382,-0.676 0.378,-0.68 0.372,-0.68L0.26,-0.68C0.253,-0.68 0.247,-0.678 0.242,-0.674L0.128,-0.592C0.123,-0.588 0.121,-0.584 0.121,-0.578L0.121,-0.454C0.121,-0.446 0.126,-0.444 0.132,-0.448L0.24,-0.522L0.242,-0.522L0.242,-0.01Z" style="fill:rgb(232,232,232);fill-rule:nonzero;"/>
                    </g>
                    <path d="M36.914,156.849L36.914,162.251C36.914,162.405 36.974,162.531 37.064,162.621C37.154,162.711 37.28,162.771 37.434,162.771L38.874,162.771C39.029,162.771 39.154,162.711 39.244,162.621C39.334,162.531 39.394,162.405 39.394,162.251C39.394,162.251 39.394,154.331 39.394,154.331C39.394,154.176 39.334,154.051 39.244,153.961C39.154,153.871 39.029,153.811 38.874,153.811L37.53,153.811C37.352,153.811 37.2,153.865 37.072,153.964C37.074,153.963 35.713,154.942 35.713,154.942C35.707,154.946 35.702,154.95 35.696,154.955C35.526,155.091 35.462,155.23 35.462,155.435C35.462,155.435 35.462,156.923 35.462,156.923C35.462,157.176 35.596,157.307 35.722,157.371C35.848,157.433 36.028,157.453 36.216,157.328L36.914,156.849ZM37.142,156.208L37.29,156.107L37.314,156.107L37.314,162.251C37.314,162.323 37.362,162.371 37.434,162.371L38.874,162.371C38.946,162.371 38.994,162.323 38.994,162.251L38.994,154.331C38.994,154.259 38.946,154.211 38.874,154.211L37.53,154.211C37.446,154.211 37.374,154.235 37.314,154.283L35.946,155.267C35.886,155.315 35.862,155.363 35.862,155.435L35.862,156.923C35.862,157.019 35.922,157.043 35.994,156.995L37.067,156.26L37.258,156.451C37.228,156.396 37.181,156.306 37.142,156.208Z" style="fill:rgb(33,33,33);"/>
                </g>
                <g transform="matrix(1,0,0,1,41.7417,0.132)">
                    <g transform="matrix(12,0,0,12,34.4101,162.371)">
                        <path d="M0.065,-0.01C0.065,-0.004 0.069,-0 0.075,-0L0.479,-0C0.485,-0 0.489,-0.004 0.489,-0.01L0.489,-0.109C0.489,-0.115 0.485,-0.119 0.479,-0.119L0.241,-0.119L0.241,-0.121L0.42,-0.332C0.463,-0.381 0.489,-0.432 0.489,-0.497C0.489,-0.607 0.41,-0.691 0.28,-0.691C0.149,-0.691 0.073,-0.609 0.066,-0.515C0.065,-0.509 0.068,-0.504 0.074,-0.503L0.184,-0.485C0.191,-0.484 0.195,-0.487 0.195,-0.493C0.201,-0.545 0.229,-0.573 0.275,-0.573C0.322,-0.573 0.349,-0.54 0.349,-0.495C0.349,-0.46 0.335,-0.431 0.309,-0.401L0.07,-0.117C0.066,-0.112 0.065,-0.109 0.065,-0.103L0.065,-0.01Z" style="fill:rgb(232,232,232);fill-rule:nonzero;"/>
                    </g>
                    <path d="M38.146,160.543L39.754,158.648C40.336,157.983 40.678,157.288 40.678,156.407C40.678,154.869 39.588,153.679 37.77,153.679C35.946,153.679 34.907,154.842 34.804,156.15C34.763,156.443 34.931,156.679 35.232,156.729L36.562,156.947C36.732,156.971 36.861,156.924 36.952,156.857C37.062,156.776 37.142,156.654 37.149,156.483C37.174,156.286 37.229,156.128 37.333,156.024C37.425,155.932 37.554,155.895 37.71,155.895C37.863,155.895 37.987,155.939 38.07,156.03C38.16,156.128 38.198,156.271 38.198,156.431C38.198,156.755 38.057,157.019 37.816,157.297L34.938,160.717C34.819,160.866 34.79,160.956 34.79,161.135L34.79,162.251C34.79,162.405 34.85,162.531 34.94,162.621C35.03,162.711 35.156,162.771 35.31,162.771L40.158,162.771C40.313,162.771 40.438,162.711 40.528,162.621C40.618,162.531 40.678,162.405 40.678,162.251L40.678,161.063C40.678,160.908 40.618,160.783 40.528,160.693C40.438,160.603 40.313,160.543 40.158,160.543L38.146,160.543ZM35.19,162.251C35.19,162.323 35.238,162.371 35.31,162.371L40.158,162.371C40.23,162.371 40.278,162.323 40.278,162.251L40.278,161.063C40.278,160.991 40.23,160.943 40.158,160.943L37.302,160.943L37.302,160.919L39.45,158.387C39.966,157.799 40.278,157.187 40.278,156.407C40.278,155.087 39.33,154.079 37.77,154.079C36.198,154.079 35.286,155.063 35.202,156.191C35.19,156.263 35.226,156.323 35.298,156.335L36.618,156.551C36.702,156.563 36.75,156.527 36.75,156.455C36.822,155.831 37.158,155.495 37.71,155.495C38.274,155.495 38.598,155.891 38.598,156.431C38.598,156.851 38.43,157.199 38.118,157.559L35.25,160.967C35.202,161.027 35.19,161.063 35.19,161.135L35.19,162.251Z" style="fill:rgb(33,33,33);"/>
                </g>
                <g transform="matrix(1,0,0,1,61.627,0)">
                    <g transform="matrix(12,0,0,12,34.4101,162.371)">
                        <path d="M0.056,-0.145C0.075,-0.047 0.161,0.011 0.277,0.011C0.405,0.011 0.499,-0.072 0.499,-0.196C0.499,-0.286 0.451,-0.341 0.41,-0.361L0.41,-0.363C0.459,-0.395 0.486,-0.445 0.486,-0.503C0.486,-0.612 0.409,-0.691 0.276,-0.691C0.156,-0.691 0.079,-0.625 0.063,-0.535C0.062,-0.529 0.065,-0.525 0.071,-0.524L0.18,-0.503C0.186,-0.502 0.19,-0.504 0.192,-0.51C0.202,-0.548 0.226,-0.573 0.269,-0.573C0.317,-0.573 0.346,-0.541 0.346,-0.493C0.346,-0.441 0.313,-0.408 0.262,-0.408L0.235,-0.408C0.229,-0.408 0.225,-0.404 0.225,-0.398L0.225,-0.301C0.225,-0.295 0.229,-0.291 0.235,-0.291L0.264,-0.291C0.322,-0.291 0.359,-0.256 0.359,-0.195C0.359,-0.144 0.327,-0.107 0.275,-0.107C0.227,-0.107 0.198,-0.135 0.186,-0.171C0.184,-0.177 0.18,-0.18 0.174,-0.179L0.064,-0.158C0.058,-0.156 0.055,-0.151 0.056,-0.145Z" style="fill:rgb(232,232,232);fill-rule:nonzero;"/>
                    </g>
                    <path d="M37.554,157.076L37.23,157.075C37.076,157.075 36.95,157.135 36.86,157.225C36.77,157.315 36.71,157.44 36.71,157.595L36.71,158.759C36.71,158.913 36.77,159.039 36.86,159.129C36.95,159.219 37.076,159.279 37.23,159.279L37.578,159.279C37.806,159.279 37.998,159.335 38.127,159.464C38.258,159.594 38.318,159.789 38.318,160.031C38.318,160.406 38.092,160.687 37.71,160.687C37.339,160.687 37.114,160.471 37.022,160.192C36.978,160.061 36.902,159.97 36.815,159.91C36.712,159.839 36.586,159.803 36.432,159.828L35.103,160.082C35.086,160.085 35.068,160.09 35.052,160.095C34.775,160.188 34.642,160.42 34.688,160.697C34.688,160.7 34.689,160.704 34.689,160.707C34.953,162.067 36.124,162.903 37.734,162.903C39.509,162.903 40.798,161.738 40.798,160.019C40.798,159.071 40.412,158.402 39.974,158.003C40.408,157.561 40.642,156.983 40.642,156.335C40.642,155.561 40.362,154.897 39.853,154.424C39.358,153.963 38.639,153.679 37.722,153.679C36.049,153.679 34.995,154.626 34.772,155.881C34.772,155.882 34.772,155.884 34.772,155.885C34.745,156.045 34.787,156.176 34.86,156.276C34.93,156.371 35.036,156.448 35.187,156.476L36.504,156.729C36.646,156.753 36.762,156.726 36.856,156.673C36.956,156.617 37.044,156.527 37.094,156.377C37.096,156.369 37.099,156.361 37.101,156.353C37.172,156.083 37.333,155.895 37.638,155.895C37.801,155.895 37.936,155.939 38.026,156.034C38.121,156.135 38.162,156.282 38.162,156.455C38.162,156.647 38.112,156.808 38.004,156.917C37.897,157.025 37.74,157.075 37.554,157.075L37.554,157.076ZM35.082,160.631C35.31,161.807 36.342,162.503 37.734,162.503C39.27,162.503 40.398,161.507 40.398,160.019C40.398,158.939 39.822,158.279 39.33,158.039L39.33,158.015C39.918,157.631 40.242,157.031 40.242,156.335C40.242,155.027 39.318,154.079 37.722,154.079C36.282,154.079 35.358,154.871 35.166,155.951C35.154,156.023 35.19,156.071 35.262,156.083L36.57,156.335C36.642,156.347 36.69,156.323 36.714,156.251C36.834,155.795 37.122,155.495 37.638,155.495C38.214,155.495 38.562,155.879 38.562,156.455C38.562,157.079 38.166,157.475 37.554,157.475L37.23,157.475C37.158,157.475 37.11,157.523 37.11,157.595L37.11,158.759C37.11,158.831 37.158,158.879 37.23,158.879L37.578,158.879C38.274,158.879 38.718,159.299 38.718,160.031C38.718,160.643 38.334,161.087 37.71,161.087C37.134,161.087 36.786,160.751 36.642,160.319C36.618,160.247 36.57,160.211 36.498,160.223L35.178,160.475C35.106,160.499 35.07,160.559 35.082,160.631Z" style="fill:rgb(33,33,33);"/>
                </g>
                <g transform="matrix(1,0,0,1,81.8203,0.132)">
                    <g transform="matrix(12,0,0,12,34.4101,162.371)">
                        <path d="M0.051,-0.099L0.316,-0.099C0.32,-0.099 0.322,-0.097 0.322,-0.093L0.322,-0.01C0.322,-0.004 0.326,-0 0.332,-0L0.448,-0C0.454,-0 0.458,-0.004 0.458,-0.01L0.458,-0.093C0.458,-0.097 0.46,-0.099 0.464,-0.099L0.509,-0.099C0.515,-0.099 0.519,-0.103 0.519,-0.109L0.519,-0.21C0.519,-0.216 0.515,-0.22 0.509,-0.22L0.464,-0.22C0.46,-0.22 0.458,-0.222 0.458,-0.226L0.458,-0.373C0.458,-0.379 0.454,-0.383 0.448,-0.383L0.332,-0.383C0.326,-0.383 0.322,-0.379 0.322,-0.373L0.322,-0.226C0.322,-0.222 0.32,-0.22 0.316,-0.22L0.191,-0.22L0.191,-0.223L0.395,-0.67C0.397,-0.676 0.395,-0.68 0.388,-0.68L0.261,-0.68C0.254,-0.68 0.25,-0.678 0.247,-0.672L0.043,-0.223C0.041,-0.219 0.041,-0.215 0.041,-0.211L0.041,-0.109C0.041,-0.103 0.045,-0.099 0.051,-0.099Z" style="fill:rgb(232,232,232);fill-rule:nonzero;"/>
                    </g>
                    <path d="M37.874,161.583L37.874,162.251C37.874,162.405 37.934,162.531 38.024,162.621C38.114,162.711 38.24,162.771 38.394,162.771L39.786,162.771C39.941,162.771 40.066,162.711 40.156,162.621C40.246,162.531 40.306,162.405 40.306,162.251L40.306,161.583L40.518,161.583C40.673,161.583 40.798,161.523 40.888,161.433C40.978,161.343 41.038,161.217 41.038,161.063L41.038,159.851C41.038,159.696 40.978,159.571 40.888,159.481C40.798,159.391 40.673,159.331 40.518,159.331L40.306,159.331L40.306,157.895C40.306,157.74 40.246,157.615 40.156,157.525C40.066,157.435 39.941,157.375 39.786,157.375L38.394,157.375C38.315,157.375 38.244,157.391 38.181,157.418L39.514,154.497C39.52,154.484 39.525,154.471 39.53,154.457C39.589,154.279 39.552,154.132 39.485,154.028C39.413,153.916 39.289,153.811 39.066,153.811L37.542,153.811C37.419,153.811 37.325,153.838 37.246,153.882C37.155,153.933 37.077,154.007 37.016,154.128L34.564,159.525C34.513,159.63 34.502,159.734 34.502,159.839L34.502,161.063C34.502,161.217 34.562,161.343 34.652,161.433C34.742,161.523 34.868,161.583 35.022,161.583L37.874,161.583ZM35.022,161.183L38.202,161.183C38.25,161.183 38.274,161.207 38.274,161.255L38.274,162.251C38.274,162.323 38.322,162.371 38.394,162.371L39.786,162.371C39.858,162.371 39.906,162.323 39.906,162.251L39.906,161.255C39.906,161.207 39.93,161.183 39.978,161.183L40.518,161.183C40.59,161.183 40.638,161.135 40.638,161.063L40.638,159.851C40.638,159.779 40.59,159.731 40.518,159.731L39.978,159.731C39.93,159.731 39.906,159.707 39.906,159.659L39.906,157.895C39.906,157.823 39.858,157.775 39.786,157.775L38.394,157.775C38.322,157.775 38.274,157.823 38.274,157.895L38.274,159.659C38.274,159.707 38.25,159.731 38.202,159.731L36.702,159.731L36.702,159.695L39.15,154.331C39.174,154.259 39.15,154.211 39.066,154.211L37.542,154.211C37.458,154.211 37.41,154.235 37.374,154.307L34.926,159.695C34.902,159.743 34.902,159.791 34.902,159.839L34.902,161.063C34.902,161.135 34.95,161.183 35.022,161.183ZM37.308,159.331L37.874,159.331L37.874,158.09L37.308,159.331Z" style="fill:rgb(33,33,33);"/>
                </g>
                <g transform="matrix(1,0,0,1,101.598,0)">
                    <g transform="matrix(12,0,0,12,34.4101,162.371)">
                        <path d="M0.071,-0.139C0.083,-0.05 0.164,0.011 0.28,0.011C0.377,0.011 0.454,-0.033 0.481,-0.116C0.49,-0.144 0.496,-0.179 0.496,-0.222C0.496,-0.279 0.491,-0.31 0.482,-0.338C0.457,-0.414 0.394,-0.453 0.307,-0.453C0.256,-0.453 0.222,-0.436 0.205,-0.421L0.202,-0.421L0.202,-0.555C0.202,-0.559 0.204,-0.561 0.208,-0.561L0.469,-0.561C0.475,-0.561 0.479,-0.565 0.479,-0.571L0.479,-0.67C0.479,-0.676 0.475,-0.68 0.469,-0.68L0.089,-0.68C0.083,-0.68 0.079,-0.676 0.079,-0.67L0.079,-0.296C0.079,-0.29 0.083,-0.286 0.089,-0.286L0.196,-0.286C0.203,-0.286 0.206,-0.289 0.209,-0.296C0.219,-0.316 0.241,-0.335 0.278,-0.335C0.311,-0.335 0.338,-0.322 0.349,-0.288C0.355,-0.272 0.357,-0.254 0.357,-0.221C0.357,-0.19 0.355,-0.171 0.349,-0.155C0.339,-0.123 0.312,-0.107 0.278,-0.107C0.235,-0.107 0.211,-0.131 0.199,-0.163C0.197,-0.169 0.193,-0.172 0.187,-0.171L0.079,-0.15C0.073,-0.149 0.07,-0.144 0.071,-0.139Z" style="fill:rgb(232,232,232);fill-rule:nonzero;"/>
                    </g>
                    <path d="M37.234,156.669L37.234,156.039L40.038,156.039C40.193,156.039 40.318,155.979 40.408,155.889C40.498,155.799 40.558,155.673 40.558,155.519C40.558,155.519 40.558,154.331 40.558,154.331C40.558,154.176 40.498,154.051 40.408,153.961C40.318,153.871 40.193,153.811 40.038,153.811C40.038,153.811 35.478,153.811 35.478,153.811C35.324,153.811 35.198,153.871 35.108,153.961C35.018,154.051 34.958,154.176 34.958,154.331L34.958,158.819C34.958,158.973 35.018,159.099 35.108,159.189C35.198,159.279 35.324,159.339 35.478,159.339L36.762,159.339C36.88,159.339 36.968,159.31 37.043,159.267C37.136,159.213 37.218,159.131 37.282,158.986C37.348,158.86 37.502,158.751 37.746,158.751C37.96,158.751 38.146,158.818 38.218,159.038C38.219,159.044 38.221,159.05 38.224,159.055C38.283,159.214 38.294,159.393 38.294,159.719C38.294,160.024 38.283,160.213 38.224,160.37C38.221,160.377 38.219,160.384 38.216,160.392C38.152,160.599 37.966,160.687 37.746,160.687C37.438,160.687 37.267,160.515 37.178,160.288L37.174,160.277C37.13,160.152 37.056,160.064 36.971,160.006C36.868,159.935 36.742,159.899 36.588,159.924L35.283,160.178C34.97,160.235 34.822,160.502 34.867,160.766L34.867,160.766C35.04,162.011 36.146,162.903 37.77,162.903C39.126,162.903 40.185,162.262 40.562,161.103C40.563,161.102 40.563,161.102 40.563,161.101C40.681,160.733 40.762,160.273 40.762,159.707C40.762,158.962 40.692,158.558 40.575,158.192C40.575,158.192 40.574,158.191 40.574,158.19C40.218,157.108 39.333,156.535 38.094,156.535C37.756,156.535 37.469,156.589 37.234,156.669ZM35.262,160.703C35.406,161.771 36.378,162.503 37.77,162.503C38.934,162.503 39.858,161.975 40.182,160.979C40.29,160.643 40.362,160.223 40.362,159.707C40.362,159.023 40.302,158.651 40.194,158.315C39.894,157.403 39.138,156.935 38.094,156.935C37.482,156.935 37.074,157.139 36.87,157.319L36.834,157.319L36.834,155.711C36.834,155.663 36.858,155.639 36.906,155.639L40.038,155.639C40.11,155.639 40.158,155.591 40.158,155.519L40.158,154.331C40.158,154.259 40.11,154.211 40.038,154.211L35.478,154.211C35.406,154.211 35.358,154.259 35.358,154.331L35.358,158.819C35.358,158.891 35.406,158.939 35.478,158.939L36.762,158.939C36.846,158.939 36.882,158.903 36.918,158.819C37.038,158.579 37.302,158.351 37.746,158.351C38.142,158.351 38.466,158.507 38.598,158.915C38.67,159.107 38.694,159.323 38.694,159.719C38.694,160.091 38.67,160.319 38.598,160.511C38.478,160.895 38.154,161.087 37.746,161.087C37.23,161.087 36.942,160.799 36.798,160.415C36.774,160.343 36.726,160.307 36.654,160.319L35.358,160.571C35.286,160.583 35.25,160.643 35.262,160.703Z" style="fill:rgb(33,33,33);"/>
                </g>
                <g transform="matrix(1,0,0,1,121.656,0)">
                    <g transform="matrix(12,0,0,12,34.4101,162.371)">
                        <path d="M0.05,-0.203C0.05,-0.069 0.148,0.011 0.278,0.011C0.407,0.011 0.506,-0.069 0.506,-0.206C0.506,-0.331 0.418,-0.411 0.311,-0.411C0.293,-0.411 0.276,-0.408 0.269,-0.405L0.267,-0.407L0.411,-0.67C0.414,-0.676 0.412,-0.68 0.404,-0.68L0.277,-0.68C0.27,-0.68 0.268,-0.679 0.265,-0.673L0.1,-0.371C0.068,-0.313 0.05,-0.261 0.05,-0.203ZM0.188,-0.201C0.188,-0.257 0.223,-0.296 0.278,-0.296C0.333,-0.296 0.368,-0.257 0.368,-0.201C0.368,-0.146 0.333,-0.107 0.278,-0.107C0.223,-0.107 0.188,-0.146 0.188,-0.201Z" style="fill:rgb(232,232,232);fill-rule:nonzero;"/>
                    </g>
                    <path d="M38.313,157.044L39.7,154.51C39.799,154.311 39.761,154.144 39.686,154.028C39.619,153.924 39.495,153.811 39.258,153.811C39.258,153.811 37.734,153.811 37.734,153.811C37.598,153.811 37.514,153.84 37.446,153.879C37.37,153.922 37.299,153.984 37.234,154.112C37.237,154.108 35.259,157.727 35.259,157.727C34.839,158.488 34.61,159.173 34.61,159.935C34.61,161.785 35.951,162.903 37.746,162.903C39.526,162.903 40.882,161.789 40.882,159.899C40.882,158.216 39.733,157.125 38.313,157.044ZM35.01,159.935C35.01,161.543 36.186,162.503 37.746,162.503C39.294,162.503 40.482,161.543 40.482,159.899C40.482,158.399 39.426,157.439 38.142,157.439C37.926,157.439 37.722,157.475 37.638,157.511L37.614,157.487L39.342,154.331C39.378,154.259 39.354,154.211 39.258,154.211L37.734,154.211C37.65,154.211 37.626,154.223 37.59,154.295L35.61,157.919C35.226,158.615 35.01,159.239 35.01,159.935ZM36.666,159.959C36.666,159.287 37.086,158.819 37.746,158.819C38.406,158.819 38.826,159.287 38.826,159.959C38.826,160.619 38.406,161.087 37.746,161.087C37.086,161.087 36.666,160.619 36.666,159.959ZM37.066,159.959C37.066,159.529 37.324,159.219 37.746,159.219C38.168,159.219 38.426,159.529 38.426,159.959C38.426,160.38 38.167,160.687 37.746,160.687C37.325,160.687 37.066,160.38 37.066,159.959Z" style="fill:rgb(33,33,33);"/>
                </g>
                <g transform="matrix(1,0,0,1,141.595,0.132)">
                    <g transform="matrix(12,0,0,12,34.4101,162.371)">
                        <path d="M0.133,-0.011C0.13,-0.004 0.133,-0 0.139,-0L0.264,-0C0.271,-0 0.275,-0.002 0.278,-0.009L0.494,-0.554C0.495,-0.557 0.496,-0.561 0.496,-0.566L0.496,-0.67C0.496,-0.676 0.492,-0.68 0.486,-0.68L0.079,-0.68C0.073,-0.68 0.069,-0.676 0.069,-0.67L0.069,-0.481C0.069,-0.475 0.073,-0.471 0.079,-0.471L0.19,-0.471C0.196,-0.471 0.2,-0.475 0.2,-0.481L0.2,-0.552C0.2,-0.556 0.202,-0.558 0.206,-0.558L0.349,-0.558L0.349,-0.555L0.133,-0.011Z" style="fill:rgb(232,232,232);fill-rule:nonzero;"/>
                    </g>
                    <path d="M37.21,156.075L38.023,156.075L35.634,162.091L35.638,162.081C35.553,162.28 35.595,162.436 35.659,162.542C35.735,162.67 35.873,162.771 36.078,162.771L37.578,162.771C37.707,162.771 37.806,162.74 37.889,162.69C37.976,162.636 38.055,162.557 38.114,162.42L40.71,155.87C40.713,155.863 40.715,155.856 40.718,155.849C40.74,155.782 40.762,155.692 40.762,155.579C40.762,155.579 40.762,154.331 40.762,154.331C40.762,154.176 40.702,154.051 40.612,153.961C40.522,153.871 40.397,153.811 40.242,153.811L35.358,153.811C35.204,153.811 35.078,153.871 34.988,153.961C34.898,154.051 34.838,154.176 34.838,154.331L34.838,156.599C34.838,156.753 34.898,156.879 34.988,156.969C35.078,157.059 35.204,157.119 35.358,157.119C35.358,157.119 36.69,157.119 36.69,157.119C36.845,157.119 36.97,157.059 37.06,156.969C37.15,156.879 37.21,156.753 37.21,156.599L37.21,156.075ZM38.498,155.963L36.006,162.239C35.97,162.323 36.006,162.371 36.078,162.371L37.578,162.371C37.662,162.371 37.71,162.347 37.746,162.263L40.338,155.723C40.35,155.687 40.362,155.639 40.362,155.579L40.362,154.331C40.362,154.259 40.314,154.211 40.242,154.211L35.358,154.211C35.286,154.211 35.238,154.259 35.238,154.331L35.238,156.599C35.238,156.671 35.286,156.719 35.358,156.719L36.69,156.719C36.762,156.719 36.81,156.671 36.81,156.599L36.81,155.747C36.81,155.699 36.834,155.675 36.882,155.675L38.302,155.675L38.498,155.963Z" style="fill:rgb(33,33,33);"/>
                </g>
                <g transform="matrix(1,0,0,1,161.627,0)">
                    <g transform="matrix(12,0,0,12,34.4101,162.371)">
                        <path d="M0.048,-0.196C0.048,-0.071 0.146,0.011 0.278,0.011C0.41,0.011 0.508,-0.071 0.508,-0.196C0.508,-0.272 0.47,-0.326 0.427,-0.355L0.427,-0.357C0.459,-0.38 0.493,-0.429 0.493,-0.493C0.493,-0.598 0.416,-0.691 0.278,-0.691C0.14,-0.691 0.063,-0.598 0.063,-0.493C0.063,-0.429 0.097,-0.38 0.129,-0.357L0.129,-0.355C0.086,-0.326 0.048,-0.272 0.048,-0.196ZM0.278,-0.414C0.231,-0.414 0.2,-0.45 0.2,-0.493C0.2,-0.537 0.231,-0.573 0.278,-0.573C0.325,-0.573 0.356,-0.537 0.356,-0.493C0.356,-0.45 0.325,-0.414 0.278,-0.414ZM0.186,-0.202C0.186,-0.257 0.223,-0.296 0.278,-0.296C0.333,-0.296 0.37,-0.257 0.37,-0.202C0.37,-0.146 0.333,-0.107 0.278,-0.107C0.223,-0.107 0.186,-0.146 0.186,-0.202Z" style="fill:rgb(232,232,232);fill-rule:nonzero;"/>
                    </g>
                    <path d="M35.368,158.081C34.925,158.519 34.586,159.171 34.586,160.019C34.586,161.747 35.921,162.903 37.746,162.903C39.571,162.903 40.906,161.747 40.906,160.019C40.906,159.171 40.567,158.519 40.125,158.081C40.453,157.7 40.726,157.138 40.726,156.455C40.726,154.992 39.669,153.679 37.746,153.679C35.823,153.679 34.766,154.992 34.766,156.455C34.766,157.138 35.039,157.7 35.368,158.081ZM39.837,158.359C39.741,158.264 39.639,158.181 39.534,158.111L39.534,158.087C39.918,157.811 40.326,157.223 40.326,156.455C40.326,155.195 39.402,154.079 37.746,154.079C36.09,154.079 35.166,155.195 35.166,156.455C35.166,157.223 35.574,157.811 35.958,158.087L35.958,158.111C35.442,158.459 34.986,159.107 34.986,160.019C34.986,161.519 36.162,162.503 37.746,162.503C39.33,162.503 40.506,161.519 40.506,160.019C40.506,159.295 40.219,158.738 39.843,158.365C39.85,158.356 39.857,158.347 39.864,158.337L39.837,158.359ZM36.642,159.947C36.642,159.287 37.086,158.819 37.746,158.819C38.406,158.819 38.85,159.287 38.85,159.947C38.85,160.619 38.406,161.087 37.746,161.087C37.086,161.087 36.642,160.619 36.642,159.947ZM37.042,159.947C37.042,159.523 37.323,159.219 37.746,159.219C38.17,159.219 38.45,159.523 38.45,159.947C38.45,160.379 38.171,160.687 37.746,160.687C37.321,160.687 37.042,160.379 37.042,159.947ZM37.746,157.403C37.182,157.403 36.81,156.971 36.81,156.455C36.81,155.927 37.182,155.495 37.746,155.495C38.31,155.495 38.682,155.927 38.682,156.455C38.682,156.971 38.31,157.403 37.746,157.403ZM37.746,157.003C37.422,157.003 37.21,156.752 37.21,156.455C37.21,156.15 37.42,155.895 37.746,155.895C38.072,155.895 38.282,156.15 38.282,156.455C38.282,156.752 38.071,157.003 37.746,157.003Z" style="fill:rgb(33,33,33);"/>
                </g>
                <g transform="matrix(1,0,0,1,181.621,0.132)">
                    <g transform="matrix(12,0,0,12,34.4101,162.371)">
                        <path d="M0.145,-0.01C0.142,-0.004 0.144,-0 0.152,-0L0.279,-0C0.286,-0 0.288,-0.001 0.291,-0.007L0.456,-0.309C0.488,-0.367 0.506,-0.419 0.506,-0.477C0.506,-0.611 0.408,-0.691 0.278,-0.691C0.149,-0.691 0.05,-0.611 0.05,-0.474C0.05,-0.349 0.138,-0.269 0.245,-0.269C0.263,-0.269 0.28,-0.272 0.287,-0.275L0.289,-0.273L0.145,-0.01ZM0.278,-0.384C0.223,-0.384 0.188,-0.423 0.188,-0.479C0.188,-0.534 0.223,-0.573 0.278,-0.573C0.333,-0.573 0.368,-0.534 0.368,-0.479C0.368,-0.423 0.333,-0.384 0.278,-0.384Z" style="fill:rgb(232,232,232);fill-rule:nonzero;"/>
                    </g>
                    <path d="M37.18,159.538L35.792,162.072C35.693,162.271 35.732,162.438 35.806,162.554C35.873,162.658 35.997,162.771 36.234,162.771L37.758,162.771C37.894,162.771 37.978,162.742 38.047,162.703C38.122,162.66 38.193,162.598 38.258,162.469C38.256,162.474 40.233,158.855 40.233,158.855C40.653,158.094 40.882,157.409 40.882,156.647C40.882,154.797 39.541,153.679 37.746,153.679C35.966,153.679 34.61,154.793 34.61,156.683C34.61,158.366 35.759,159.457 37.18,159.538ZM37.764,159.303L36.15,162.251C36.114,162.323 36.138,162.371 36.234,162.371L37.758,162.371C37.842,162.371 37.866,162.359 37.902,162.287L39.882,158.663C40.266,157.967 40.482,157.343 40.482,156.647C40.482,155.039 39.306,154.079 37.746,154.079C36.198,154.079 35.01,155.039 35.01,156.683C35.01,158.183 36.066,159.143 37.35,159.143C37.46,159.143 37.566,159.134 37.656,159.12L37.764,159.303ZM37.878,159.095L37.857,159.133L37.859,159.103L37.862,159.078L37.878,159.095ZM37.746,157.763C37.086,157.763 36.666,157.295 36.666,156.623C36.666,155.963 37.086,155.495 37.746,155.495C38.406,155.495 38.826,155.963 38.826,156.623C38.826,157.295 38.406,157.763 37.746,157.763ZM37.746,157.363C37.324,157.363 37.066,157.053 37.066,156.623C37.066,156.202 37.325,155.895 37.746,155.895C38.167,155.895 38.426,156.202 38.426,156.623C38.426,157.053 38.168,157.363 37.746,157.363Z" style="fill:rgb(33,33,33);"/>
                </g>
                <g transform="matrix(1,0,0,1,197.903,0)">
                    <g transform="matrix(12,0,0,12,34.4101,162.371)">
                        <path d="M0.242,-0.01C0.242,-0.004 0.246,-0 0.252,-0L0.372,-0C0.378,-0 0.382,-0.004 0.382,-0.01L0.382,-0.67C0.382,-0.676 0.378,-0.68 0.372,-0.68L0.26,-0.68C0.253,-0.68 0.247,-0.678 0.242,-0.674L0.128,-0.592C0.123,-0.588 0.121,-0.584 0.121,-0.578L0.121,-0.454C0.121,-0.446 0.126,-0.444 0.132,-0.448L0.24,-0.522L0.242,-0.522L0.242,-0.01Z" style="fill:rgb(232,232,232);fill-rule:nonzero;"/>
                    </g>
                    <g transform="matrix(12,0,0,12,41.0821,162.371)">
                        <path d="M0.073,-0.128C0.101,-0.041 0.171,0.011 0.278,0.011C0.385,0.011 0.455,-0.041 0.483,-0.128C0.493,-0.158 0.498,-0.189 0.498,-0.34C0.498,-0.491 0.493,-0.522 0.483,-0.552C0.455,-0.639 0.385,-0.691 0.278,-0.691C0.171,-0.691 0.101,-0.639 0.073,-0.552C0.063,-0.522 0.058,-0.491 0.058,-0.34C0.058,-0.189 0.063,-0.158 0.073,-0.128ZM0.209,-0.153C0.203,-0.171 0.201,-0.191 0.201,-0.34C0.201,-0.489 0.203,-0.509 0.209,-0.527C0.219,-0.558 0.242,-0.573 0.278,-0.573C0.313,-0.573 0.337,-0.558 0.347,-0.527C0.353,-0.509 0.355,-0.489 0.355,-0.34C0.355,-0.191 0.353,-0.171 0.347,-0.153C0.337,-0.122 0.313,-0.107 0.278,-0.107C0.242,-0.107 0.219,-0.122 0.209,-0.153Z" style="fill:rgb(232,232,232);fill-rule:nonzero;"/>
                    </g>
                    <path d="M36.914,156.849L36.914,162.251C36.914,162.405 36.974,162.531 37.064,162.621C37.154,162.711 37.28,162.771 37.434,162.771L38.874,162.771C39.029,162.771 39.154,162.711 39.244,162.621C39.334,162.531 39.394,162.405 39.394,162.251C39.394,162.251 39.394,154.331 39.394,154.331C39.394,154.176 39.334,154.051 39.244,153.961C39.154,153.871 39.029,153.811 38.874,153.811C38.874,153.811 37.53,153.811 37.53,153.811C37.352,153.811 37.2,153.865 37.072,153.964C37.074,153.963 35.713,154.942 35.713,154.942C35.707,154.946 35.702,154.95 35.696,154.955C35.526,155.091 35.462,155.23 35.462,155.435C35.462,155.435 35.462,156.923 35.462,156.923C35.462,157.176 35.596,157.307 35.722,157.371C35.848,157.433 36.028,157.453 36.216,157.328L36.914,156.849ZM37.199,156.17L37.29,156.107L37.314,156.107L37.314,162.251C37.314,162.323 37.362,162.371 37.434,162.371L38.874,162.371C38.946,162.371 38.994,162.323 38.994,162.251L38.994,154.331C38.994,154.259 38.946,154.211 38.874,154.211L37.53,154.211C37.446,154.211 37.374,154.235 37.314,154.283L35.946,155.267C35.886,155.315 35.862,155.363 35.862,155.435L35.862,156.923C35.862,157.019 35.922,157.043 35.994,156.995L37.067,156.26L37.278,156.471C37.26,156.414 37.224,156.296 37.199,156.17Z" style="fill:rgb(33,33,33);"/>
                    <path d="M41.578,160.959C41.967,162.168 42.931,162.903 44.418,162.903C45.905,162.903 46.869,162.168 47.258,160.959C47.384,160.582 47.458,160.19 47.458,158.291C47.458,156.392 47.384,156 47.258,155.623C46.869,154.414 45.905,153.679 44.418,153.679C42.931,153.679 41.967,154.414 41.578,155.623C41.452,156 41.378,156.392 41.378,158.291C41.378,160.19 41.452,160.582 41.578,160.959L41.578,160.959ZM41.958,160.835C42.294,161.879 43.134,162.503 44.418,162.503C45.702,162.503 46.542,161.879 46.878,160.835C46.998,160.475 47.058,160.103 47.058,158.291C47.058,156.479 46.998,156.107 46.878,155.747C46.542,154.703 45.702,154.079 44.418,154.079C43.134,154.079 42.294,154.703 41.958,155.747C41.838,156.107 41.778,156.479 41.778,158.291C41.778,160.103 41.838,160.475 41.958,160.835ZM43.59,160.535C43.518,160.319 43.494,160.079 43.494,158.291C43.494,156.503 43.518,156.263 43.59,156.047C43.71,155.675 43.986,155.495 44.418,155.495C44.838,155.495 45.126,155.675 45.246,156.047C45.318,156.263 45.342,156.503 45.342,158.291C45.342,160.079 45.318,160.319 45.246,160.535C45.126,160.907 44.838,161.087 44.418,161.087C43.986,161.087 43.71,160.907 43.59,160.535ZM43.971,160.412C43.97,160.411 43.97,160.41 43.97,160.408C43.902,160.205 43.894,159.978 43.894,158.291C43.894,156.604 43.902,156.377 43.97,156.173C43.97,156.172 43.97,156.171 43.971,156.17C44.034,155.973 44.19,155.895 44.418,155.895C44.64,155.895 44.802,155.973 44.865,156.17C44.866,156.171 44.866,156.172 44.867,156.173C44.935,156.377 44.942,156.604 44.942,158.291C44.942,159.978 44.935,160.205 44.867,160.408C44.866,160.41 44.866,160.411 44.865,160.412C44.802,160.608 44.64,160.687 44.418,160.687C44.19,160.687 44.034,160.608 43.971,160.412Z" style="fill:rgb(33,33,33);"/>
                </g>
            </g>
            <g id="Labels1" serif:id="Labels">
                <g transform="matrix(0.707107,-0.707107,0.707107,0.707107,-183.465,269.538)">
                    <g transform="matrix(10.2941,0,0,10.2941,274,98)">
                        <path d="M0.094,-0.01C0.094,-0.004 0.098,-0 0.104,-0L0.493,-0C0.499,-0 0.503,-0.004 0.503,-0.01L0.503,-0.044C0.503,-0.05 0.499,-0.054 0.493,-0.054L0.157,-0.054C0.153,-0.054 0.151,-0.056 0.151,-0.06L0.151,-0.67C0.151,-0.676 0.147,-0.68 0.141,-0.68L0.104,-0.68C0.098,-0.68 0.094,-0.676 0.094,-0.67L0.094,-0.01Z" style="fill:rgb(232,232,232);fill-rule:nonzero;"/>
                    </g>
                    <g transform="matrix(10.2941,0,0,10.2941,279.456,98)">
                        <path d="M0.254,0.01C0.342,0.01 0.407,-0.035 0.433,-0.114C0.443,-0.146 0.449,-0.181 0.449,-0.239C0.449,-0.296 0.443,-0.331 0.433,-0.363C0.407,-0.442 0.342,-0.487 0.254,-0.487C0.167,-0.487 0.102,-0.442 0.076,-0.363C0.066,-0.331 0.06,-0.296 0.06,-0.239C0.06,-0.181 0.066,-0.146 0.076,-0.114C0.102,-0.035 0.167,0.01 0.254,0.01ZM0.254,-0.042C0.193,-0.042 0.147,-0.074 0.128,-0.131C0.119,-0.158 0.115,-0.187 0.115,-0.239C0.115,-0.29 0.119,-0.319 0.128,-0.346C0.147,-0.403 0.193,-0.435 0.254,-0.435C0.316,-0.435 0.362,-0.403 0.381,-0.346C0.39,-0.319 0.394,-0.29 0.394,-0.239C0.394,-0.187 0.39,-0.158 0.381,-0.131C0.362,-0.074 0.316,-0.042 0.254,-0.042Z" style="fill:rgb(232,232,232);fill-rule:nonzero;"/>
                    </g>
                    <g transform="matrix(10.2941,0,0,10.2941,284.675,98)">
                        <path d="M0.536,-0C0.542,-0 0.546,-0.003 0.548,-0.01L0.697,-0.467C0.699,-0.473 0.697,-0.477 0.69,-0.477L0.654,-0.477C0.647,-0.477 0.644,-0.474 0.641,-0.467L0.522,-0.086L0.521,-0.086L0.395,-0.467C0.393,-0.473 0.389,-0.477 0.383,-0.477L0.354,-0.477C0.347,-0.477 0.344,-0.473 0.342,-0.467L0.218,-0.086L0.217,-0.086L0.095,-0.467C0.092,-0.474 0.089,-0.477 0.082,-0.477L0.046,-0.477C0.039,-0.477 0.037,-0.473 0.039,-0.467L0.188,-0.01C0.19,-0.003 0.193,-0 0.2,-0L0.23,-0C0.237,-0 0.24,-0.003 0.242,-0.01L0.368,-0.391L0.369,-0.391L0.493,-0.01C0.495,-0.003 0.499,-0 0.505,-0L0.536,-0Z" style="fill:rgb(232,232,232);fill-rule:nonzero;"/>
                    </g>
                </g>
                <g transform="matrix(0.707107,-0.707107,0.707107,0.707107,-123.465,269.538)">
                    <g transform="matrix(10.2941,0,0,10.2941,274,98)">
                        <path d="M0.094,-0.01C0.094,-0.004 0.098,-0 0.104,-0L0.141,-0C0.147,-0 0.151,-0.004 0.151,-0.01L0.151,-0.542L0.154,-0.542L0.35,-0.111C0.354,-0.103 0.358,-0.1 0.367,-0.1L0.387,-0.1C0.397,-0.1 0.401,-0.103 0.405,-0.111L0.601,-0.542L0.604,-0.542L0.604,-0.01C0.604,-0.004 0.608,-0 0.614,-0L0.651,-0C0.657,-0 0.661,-0.004 0.661,-0.01L0.661,-0.67C0.661,-0.676 0.657,-0.68 0.651,-0.68L0.612,-0.68C0.606,-0.68 0.601,-0.677 0.598,-0.67L0.382,-0.183L0.378,-0.183L0.157,-0.67C0.154,-0.677 0.149,-0.68 0.142,-0.68L0.104,-0.68C0.098,-0.68 0.094,-0.676 0.094,-0.67L0.094,-0.01Z" style="fill:rgb(232,232,232);fill-rule:nonzero;"/>
                    </g>
                    <g transform="matrix(10.2941,0,0,10.2941,281.772,98)">
                        <path d="M0.257,0.01C0.336,0.01 0.396,-0.023 0.431,-0.07C0.435,-0.075 0.435,-0.08 0.43,-0.084L0.407,-0.105C0.402,-0.109 0.397,-0.108 0.393,-0.103C0.365,-0.068 0.322,-0.042 0.26,-0.042C0.195,-0.042 0.147,-0.072 0.125,-0.135C0.118,-0.157 0.115,-0.179 0.115,-0.219C0.115,-0.223 0.117,-0.226 0.121,-0.226L0.432,-0.226C0.439,-0.226 0.443,-0.23 0.443,-0.236C0.443,-0.302 0.439,-0.333 0.429,-0.363C0.403,-0.443 0.337,-0.487 0.251,-0.487C0.165,-0.487 0.1,-0.443 0.074,-0.363C0.065,-0.334 0.06,-0.299 0.06,-0.239C0.06,-0.178 0.065,-0.145 0.074,-0.116C0.101,-0.034 0.164,0.01 0.257,0.01ZM0.121,-0.272C0.117,-0.272 0.115,-0.274 0.115,-0.278C0.115,-0.307 0.118,-0.328 0.124,-0.347C0.143,-0.406 0.189,-0.437 0.251,-0.437C0.314,-0.437 0.36,-0.406 0.379,-0.347C0.385,-0.328 0.388,-0.307 0.388,-0.278C0.388,-0.274 0.386,-0.272 0.382,-0.272L0.121,-0.272Z" style="fill:rgb(232,232,232);fill-rule:nonzero;"/>
                    </g>
                    <g transform="matrix(10.2941,0,0,10.2941,286.94,98)">
                        <path d="M0.429,-0C0.435,-0 0.439,-0.004 0.439,-0.01L0.439,-0.67C0.439,-0.676 0.435,-0.68 0.429,-0.68L0.395,-0.68C0.389,-0.68 0.385,-0.676 0.385,-0.67L0.385,-0.409L0.384,-0.409C0.361,-0.454 0.318,-0.487 0.239,-0.487C0.155,-0.487 0.101,-0.449 0.077,-0.373C0.064,-0.334 0.06,-0.292 0.06,-0.238C0.06,-0.185 0.064,-0.143 0.077,-0.104C0.101,-0.028 0.155,0.01 0.239,0.01C0.318,0.01 0.361,-0.023 0.384,-0.068L0.385,-0.068L0.385,-0.01C0.385,-0.004 0.389,-0 0.395,-0L0.429,-0ZM0.25,-0.042C0.188,-0.042 0.146,-0.072 0.128,-0.126C0.118,-0.156 0.115,-0.196 0.115,-0.238C0.115,-0.281 0.118,-0.321 0.128,-0.351C0.146,-0.405 0.188,-0.435 0.25,-0.435C0.31,-0.435 0.354,-0.407 0.372,-0.351C0.381,-0.325 0.385,-0.29 0.385,-0.238C0.385,-0.186 0.381,-0.152 0.372,-0.126C0.354,-0.07 0.31,-0.042 0.25,-0.042Z" style="fill:rgb(232,232,232);fill-rule:nonzero;"/>
                    </g>
                    <g transform="matrix(10.2941,0,0,10.2941,292.406,98)">
                        <path d="M0.141,-0.604C0.147,-0.604 0.151,-0.608 0.151,-0.614L0.151,-0.67C0.151,-0.676 0.147,-0.68 0.141,-0.68L0.097,-0.68C0.091,-0.68 0.087,-0.676 0.087,-0.67L0.087,-0.614C0.087,-0.608 0.091,-0.604 0.097,-0.604L0.141,-0.604ZM0.136,-0C0.142,-0 0.146,-0.004 0.146,-0.01L0.146,-0.467C0.146,-0.473 0.142,-0.477 0.136,-0.477L0.102,-0.477C0.096,-0.477 0.092,-0.473 0.092,-0.467L0.092,-0.01C0.092,-0.004 0.096,-0 0.102,-0L0.136,-0Z" style="fill:rgb(232,232,232);fill-rule:nonzero;"/>
                    </g>
                    <g transform="matrix(10.2941,0,0,10.2941,294.856,98)">
                        <path d="M0.433,-0C0.439,-0 0.443,-0.004 0.443,-0.01L0.443,-0.467C0.443,-0.473 0.439,-0.477 0.433,-0.477L0.399,-0.477C0.393,-0.477 0.389,-0.473 0.389,-0.467L0.389,-0.175C0.389,-0.092 0.333,-0.042 0.261,-0.042C0.178,-0.042 0.138,-0.089 0.138,-0.185L0.138,-0.467C0.138,-0.473 0.134,-0.477 0.128,-0.477L0.094,-0.477C0.088,-0.477 0.084,-0.473 0.084,-0.467L0.084,-0.171C0.084,-0.056 0.143,0.01 0.249,0.01C0.314,0.01 0.364,-0.019 0.388,-0.066L0.389,-0.066L0.389,-0.01C0.389,-0.004 0.393,-0 0.399,-0L0.433,-0Z" style="fill:rgb(232,232,232);fill-rule:nonzero;"/>
                    </g>
                    <g transform="matrix(10.2941,0,0,10.2941,300.363,98)">
                        <path d="M0.754,-0C0.76,-0 0.764,-0.004 0.764,-0.01L0.764,-0.305C0.764,-0.421 0.702,-0.487 0.594,-0.487C0.516,-0.487 0.465,-0.453 0.437,-0.398L0.436,-0.398C0.412,-0.456 0.362,-0.487 0.288,-0.487C0.221,-0.487 0.171,-0.457 0.147,-0.41L0.146,-0.41L0.146,-0.467C0.146,-0.473 0.142,-0.477 0.136,-0.477L0.102,-0.477C0.096,-0.477 0.092,-0.473 0.092,-0.467L0.092,-0.01C0.092,-0.004 0.096,-0 0.102,-0L0.136,-0C0.142,-0 0.146,-0.004 0.146,-0.01L0.146,-0.302C0.146,-0.385 0.203,-0.435 0.276,-0.435C0.359,-0.435 0.401,-0.387 0.401,-0.292L0.401,-0.01C0.401,-0.004 0.405,-0 0.411,-0L0.445,-0C0.451,-0 0.455,-0.004 0.455,-0.01L0.455,-0.302C0.455,-0.385 0.511,-0.435 0.584,-0.435C0.667,-0.435 0.71,-0.387 0.71,-0.292L0.71,-0.01C0.71,-0.004 0.714,-0 0.72,-0L0.754,-0Z" style="fill:rgb(232,232,232);fill-rule:nonzero;"/>
                    </g>
                </g>
                <g transform="matrix(0.707107,-0.707107,0.707107,0.707107,-73.6246,268.228)">
                    <g transform="matrix(10.2941,0,0,10.2941,274,98)">
                        <path d="M0.094,-0.01C0.094,-0.004 0.098,-0 0.104,-0L0.141,-0C0.147,-0 0.151,-0.004 0.151,-0.01L0.151,-0.312C0.151,-0.316 0.153,-0.318 0.157,-0.318L0.493,-0.318C0.497,-0.318 0.499,-0.316 0.499,-0.312L0.499,-0.01C0.499,-0.004 0.503,-0 0.509,-0L0.546,-0C0.552,-0 0.556,-0.004 0.556,-0.01L0.556,-0.67C0.556,-0.676 0.552,-0.68 0.546,-0.68L0.509,-0.68C0.503,-0.68 0.499,-0.676 0.499,-0.67L0.499,-0.378C0.499,-0.374 0.497,-0.372 0.493,-0.372L0.157,-0.372C0.153,-0.372 0.151,-0.374 0.151,-0.378L0.151,-0.67C0.151,-0.676 0.147,-0.68 0.141,-0.68L0.104,-0.68C0.098,-0.68 0.094,-0.676 0.094,-0.67L0.094,-0.01Z" style="fill:rgb(232,232,232);fill-rule:nonzero;"/>
                    </g>
                    <g transform="matrix(10.2941,0,0,10.2941,280.691,98)">
                        <path d="M0.141,-0.604C0.147,-0.604 0.151,-0.608 0.151,-0.614L0.151,-0.67C0.151,-0.676 0.147,-0.68 0.141,-0.68L0.097,-0.68C0.091,-0.68 0.087,-0.676 0.087,-0.67L0.087,-0.614C0.087,-0.608 0.091,-0.604 0.097,-0.604L0.141,-0.604ZM0.136,-0C0.142,-0 0.146,-0.004 0.146,-0.01L0.146,-0.467C0.146,-0.473 0.142,-0.477 0.136,-0.477L0.102,-0.477C0.096,-0.477 0.092,-0.473 0.092,-0.467L0.092,-0.01C0.092,-0.004 0.096,-0 0.102,-0L0.136,-0Z" style="fill:rgb(232,232,232);fill-rule:nonzero;"/>
                    </g>
                    <g transform="matrix(10.2941,0,0,10.2941,283.141,98)">
                        <path d="M0.239,0.19C0.358,0.19 0.43,0.124 0.43,-0.009L0.43,-0.467C0.43,-0.473 0.426,-0.477 0.42,-0.477L0.386,-0.477C0.38,-0.477 0.376,-0.473 0.376,-0.467L0.376,-0.409L0.375,-0.409C0.353,-0.456 0.311,-0.487 0.234,-0.487C0.154,-0.487 0.099,-0.445 0.075,-0.372C0.064,-0.338 0.059,-0.299 0.059,-0.242C0.059,-0.185 0.064,-0.146 0.075,-0.112C0.099,-0.039 0.154,0.002 0.234,0.002C0.311,0.002 0.353,-0.029 0.375,-0.076L0.376,-0.076L0.376,-0.007C0.376,0.096 0.325,0.138 0.24,0.138C0.191,0.138 0.151,0.12 0.122,0.087C0.118,0.082 0.113,0.081 0.108,0.085L0.083,0.107C0.078,0.111 0.078,0.116 0.081,0.121C0.107,0.16 0.17,0.19 0.239,0.19ZM0.245,-0.049C0.186,-0.049 0.146,-0.078 0.128,-0.133C0.118,-0.16 0.114,-0.195 0.114,-0.242C0.114,-0.29 0.118,-0.324 0.128,-0.352C0.146,-0.406 0.186,-0.435 0.245,-0.435C0.3,-0.435 0.344,-0.411 0.364,-0.351C0.373,-0.324 0.376,-0.292 0.376,-0.242C0.376,-0.192 0.373,-0.16 0.364,-0.133C0.344,-0.074 0.3,-0.049 0.245,-0.049Z" style="fill:rgb(232,232,232);fill-rule:nonzero;"/>
                    </g>
                    <g transform="matrix(10.2941,0,0,10.2941,288.515,98)">
                        <path d="M0.445,-0C0.451,-0 0.455,-0.004 0.455,-0.01L0.455,-0.305C0.455,-0.421 0.394,-0.487 0.288,-0.487C0.221,-0.487 0.171,-0.457 0.147,-0.41L0.146,-0.41L0.146,-0.67C0.146,-0.676 0.142,-0.68 0.136,-0.68L0.102,-0.68C0.096,-0.68 0.092,-0.676 0.092,-0.67L0.092,-0.01C0.092,-0.004 0.096,-0 0.102,-0L0.136,-0C0.142,-0 0.146,-0.004 0.146,-0.01L0.146,-0.302C0.146,-0.385 0.203,-0.435 0.276,-0.435C0.359,-0.435 0.401,-0.387 0.401,-0.292L0.401,-0.01C0.401,-0.004 0.405,-0 0.411,-0L0.445,-0Z" style="fill:rgb(232,232,232);fill-rule:nonzero;"/>
                    </g>
                </g>
                <g transform="matrix(0.707107,-0.707107,0.707107,0.707107,-43.0657,269.301)">
                    <g transform="matrix(10.2941,0,0,10.2941,274,98)">
                        <path d="M0.29,0.01C0.448,0.01 0.53,-0.072 0.53,-0.187C0.53,-0.288 0.469,-0.352 0.331,-0.37L0.3,-0.374C0.184,-0.389 0.14,-0.434 0.14,-0.503C0.14,-0.582 0.197,-0.636 0.294,-0.636C0.352,-0.636 0.405,-0.619 0.459,-0.586C0.464,-0.583 0.469,-0.583 0.473,-0.588L0.493,-0.619C0.497,-0.624 0.496,-0.63 0.491,-0.633C0.444,-0.667 0.372,-0.69 0.297,-0.69C0.167,-0.69 0.083,-0.617 0.083,-0.499C0.083,-0.4 0.146,-0.336 0.279,-0.319L0.31,-0.315C0.435,-0.299 0.473,-0.25 0.473,-0.183C0.473,-0.099 0.406,-0.044 0.297,-0.044C0.218,-0.044 0.147,-0.079 0.102,-0.114C0.098,-0.118 0.092,-0.118 0.088,-0.113L0.064,-0.083C0.06,-0.079 0.061,-0.073 0.065,-0.069C0.112,-0.028 0.201,0.01 0.29,0.01Z" style="fill:rgb(232,232,232);fill-rule:nonzero;"/>
                    </g>
                    <g transform="matrix(10.2941,0,0,10.2941,280.135,98)">
                        <path d="M0.257,0.01C0.336,0.01 0.396,-0.023 0.431,-0.07C0.435,-0.075 0.435,-0.08 0.43,-0.084L0.407,-0.105C0.402,-0.109 0.397,-0.108 0.393,-0.103C0.365,-0.068 0.322,-0.042 0.26,-0.042C0.195,-0.042 0.147,-0.072 0.125,-0.135C0.118,-0.157 0.115,-0.179 0.115,-0.219C0.115,-0.223 0.117,-0.226 0.121,-0.226L0.432,-0.226C0.439,-0.226 0.443,-0.23 0.443,-0.236C0.443,-0.302 0.439,-0.333 0.429,-0.363C0.403,-0.443 0.337,-0.487 0.251,-0.487C0.165,-0.487 0.1,-0.443 0.074,-0.363C0.065,-0.334 0.06,-0.299 0.06,-0.239C0.06,-0.178 0.065,-0.145 0.074,-0.116C0.101,-0.034 0.164,0.01 0.257,0.01ZM0.121,-0.272C0.117,-0.272 0.115,-0.274 0.115,-0.278C0.115,-0.307 0.118,-0.328 0.124,-0.347C0.143,-0.406 0.189,-0.437 0.251,-0.437C0.314,-0.437 0.36,-0.406 0.379,-0.347C0.385,-0.328 0.388,-0.307 0.388,-0.278C0.388,-0.274 0.386,-0.272 0.382,-0.272L0.121,-0.272Z" style="fill:rgb(232,232,232);fill-rule:nonzero;"/>
                    </g>
                    <g transform="matrix(10.2941,0,0,10.2941,285.303,98)">
                        <path d="M0.25,-0C0.256,-0 0.26,-0.004 0.262,-0.01L0.435,-0.467C0.437,-0.473 0.434,-0.477 0.427,-0.477L0.39,-0.477C0.383,-0.477 0.38,-0.474 0.377,-0.467L0.236,-0.085L0.235,-0.085L0.091,-0.467C0.088,-0.474 0.085,-0.477 0.078,-0.477L0.041,-0.477C0.034,-0.477 0.031,-0.473 0.033,-0.467L0.206,-0.01C0.208,-0.004 0.211,-0 0.218,-0L0.25,-0Z" style="fill:rgb(232,232,232);fill-rule:nonzero;"/>
                    </g>
                    <g transform="matrix(10.2941,0,0,10.2941,290.1,98)">
                        <path d="M0.257,0.01C0.336,0.01 0.396,-0.023 0.431,-0.07C0.435,-0.075 0.435,-0.08 0.43,-0.084L0.407,-0.105C0.402,-0.109 0.397,-0.108 0.393,-0.103C0.365,-0.068 0.322,-0.042 0.26,-0.042C0.195,-0.042 0.147,-0.072 0.125,-0.135C0.118,-0.157 0.115,-0.179 0.115,-0.219C0.115,-0.223 0.117,-0.226 0.121,-0.226L0.432,-0.226C0.439,-0.226 0.443,-0.23 0.443,-0.236C0.443,-0.302 0.439,-0.333 0.429,-0.363C0.403,-0.443 0.337,-0.487 0.251,-0.487C0.165,-0.487 0.1,-0.443 0.074,-0.363C0.065,-0.334 0.06,-0.299 0.06,-0.239C0.06,-0.178 0.065,-0.145 0.074,-0.116C0.101,-0.034 0.164,0.01 0.257,0.01ZM0.121,-0.272C0.117,-0.272 0.115,-0.274 0.115,-0.278C0.115,-0.307 0.118,-0.328 0.124,-0.347C0.143,-0.406 0.189,-0.437 0.251,-0.437C0.314,-0.437 0.36,-0.406 0.379,-0.347C0.385,-0.328 0.388,-0.307 0.388,-0.278C0.388,-0.274 0.386,-0.272 0.382,-0.272L0.121,-0.272Z" style="fill:rgb(232,232,232);fill-rule:nonzero;"/>
                    </g>
                    <g transform="matrix(10.2941,0,0,10.2941,295.268,98)">
                        <path d="M0.136,-0C0.142,-0 0.146,-0.004 0.146,-0.01L0.146,-0.274C0.146,-0.362 0.178,-0.435 0.262,-0.435C0.292,-0.435 0.316,-0.425 0.338,-0.411C0.344,-0.408 0.349,-0.408 0.353,-0.413L0.373,-0.441C0.377,-0.446 0.376,-0.451 0.371,-0.454C0.348,-0.474 0.313,-0.487 0.275,-0.487C0.208,-0.487 0.165,-0.453 0.147,-0.406L0.146,-0.406L0.146,-0.467C0.146,-0.473 0.142,-0.477 0.136,-0.477L0.102,-0.477C0.096,-0.477 0.092,-0.473 0.092,-0.467L0.092,-0.01C0.092,-0.004 0.096,-0 0.102,-0L0.136,-0Z" style="fill:rgb(232,232,232);fill-rule:nonzero;"/>
                    </g>
                    <g transform="matrix(10.2941,0,0,10.2941,299.159,98)">
                        <path d="M0.257,0.01C0.336,0.01 0.396,-0.023 0.431,-0.07C0.435,-0.075 0.435,-0.08 0.43,-0.084L0.407,-0.105C0.402,-0.109 0.397,-0.108 0.393,-0.103C0.365,-0.068 0.322,-0.042 0.26,-0.042C0.195,-0.042 0.147,-0.072 0.125,-0.135C0.118,-0.157 0.115,-0.179 0.115,-0.219C0.115,-0.223 0.117,-0.226 0.121,-0.226L0.432,-0.226C0.439,-0.226 0.443,-0.23 0.443,-0.236C0.443,-0.302 0.439,-0.333 0.429,-0.363C0.403,-0.443 0.337,-0.487 0.251,-0.487C0.165,-0.487 0.1,-0.443 0.074,-0.363C0.065,-0.334 0.06,-0.299 0.06,-0.239C0.06,-0.178 0.065,-0.145 0.074,-0.116C0.101,-0.034 0.164,0.01 0.257,0.01ZM0.121,-0.272C0.117,-0.272 0.115,-0.274 0.115,-0.278C0.115,-0.307 0.118,-0.328 0.124,-0.347C0.143,-0.406 0.189,-0.437 0.251,-0.437C0.314,-0.437 0.36,-0.406 0.379,-0.347C0.385,-0.328 0.388,-0.307 0.388,-0.278C0.388,-0.274 0.386,-0.272 0.382,-0.272L0.121,-0.272Z" style="fill:rgb(232,232,232);fill-rule:nonzero;"/>
                    </g>
                </g>
                <g transform="matrix(0.707107,-0.707107,0.707107,0.707107,-23.1005,269.327)">
                    <g transform="matrix(10.2941,0,0,10.2941,274,98)">
                        <path d="M0.083,-0.142C0.117,-0.04 0.191,0.01 0.298,0.01C0.391,0.01 0.464,-0.033 0.503,-0.116C0.505,-0.121 0.505,-0.126 0.5,-0.129L0.467,-0.145C0.462,-0.148 0.457,-0.146 0.454,-0.141C0.423,-0.083 0.375,-0.044 0.298,-0.044C0.215,-0.044 0.164,-0.083 0.138,-0.157C0.129,-0.184 0.123,-0.226 0.123,-0.34C0.123,-0.454 0.129,-0.496 0.138,-0.523C0.164,-0.597 0.215,-0.636 0.298,-0.636C0.375,-0.636 0.423,-0.597 0.454,-0.539C0.457,-0.534 0.462,-0.532 0.467,-0.535L0.5,-0.551C0.505,-0.554 0.505,-0.559 0.503,-0.564C0.464,-0.647 0.391,-0.69 0.298,-0.69C0.191,-0.69 0.117,-0.64 0.083,-0.538C0.072,-0.504 0.065,-0.459 0.065,-0.34C0.065,-0.221 0.072,-0.176 0.083,-0.142Z" style="fill:rgb(232,232,232);fill-rule:nonzero;"/>
                    </g>
                    <g transform="matrix(10.2941,0,0,10.2941,279.724,98)">
                        <path d="M0.136,-0C0.142,-0 0.146,-0.004 0.146,-0.01L0.146,-0.274C0.146,-0.362 0.178,-0.435 0.262,-0.435C0.292,-0.435 0.316,-0.425 0.338,-0.411C0.344,-0.408 0.349,-0.408 0.353,-0.413L0.373,-0.441C0.377,-0.446 0.376,-0.451 0.371,-0.454C0.348,-0.474 0.313,-0.487 0.275,-0.487C0.208,-0.487 0.165,-0.453 0.147,-0.406L0.146,-0.406L0.146,-0.467C0.146,-0.473 0.142,-0.477 0.136,-0.477L0.102,-0.477C0.096,-0.477 0.092,-0.473 0.092,-0.467L0.092,-0.01C0.092,-0.004 0.096,-0 0.102,-0L0.136,-0Z" style="fill:rgb(232,232,232);fill-rule:nonzero;"/>
                    </g>
                    <g transform="matrix(10.2941,0,0,10.2941,283.8,98)">
                        <path d="M0.141,-0.604C0.147,-0.604 0.151,-0.608 0.151,-0.614L0.151,-0.67C0.151,-0.676 0.147,-0.68 0.141,-0.68L0.097,-0.68C0.091,-0.68 0.087,-0.676 0.087,-0.67L0.087,-0.614C0.087,-0.608 0.091,-0.604 0.097,-0.604L0.141,-0.604ZM0.136,-0C0.142,-0 0.146,-0.004 0.146,-0.01L0.146,-0.467C0.146,-0.473 0.142,-0.477 0.136,-0.477L0.102,-0.477C0.096,-0.477 0.092,-0.473 0.092,-0.467L0.092,-0.01C0.092,-0.004 0.096,-0 0.102,-0L0.136,-0Z" style="fill:rgb(232,232,232);fill-rule:nonzero;"/>
                    </g>
                    <g transform="matrix(10.2941,0,0,10.2941,286.25,98)">
                        <path d="M0.255,0.003C0.261,0.003 0.265,-0.001 0.265,-0.007L0.265,-0.039C0.265,-0.045 0.261,-0.049 0.255,-0.049L0.236,-0.049C0.181,-0.049 0.159,-0.065 0.159,-0.129L0.159,-0.423C0.159,-0.427 0.161,-0.429 0.165,-0.429L0.255,-0.429C0.261,-0.429 0.265,-0.433 0.265,-0.439L0.265,-0.467C0.265,-0.473 0.261,-0.477 0.255,-0.477L0.165,-0.477C0.161,-0.477 0.159,-0.479 0.159,-0.483L0.159,-0.62C0.159,-0.626 0.155,-0.63 0.149,-0.63L0.115,-0.63C0.109,-0.63 0.105,-0.626 0.105,-0.62L0.105,-0.483C0.105,-0.479 0.103,-0.477 0.099,-0.477L0.049,-0.477C0.043,-0.477 0.039,-0.473 0.039,-0.467L0.039,-0.439C0.039,-0.433 0.043,-0.429 0.049,-0.429L0.099,-0.429C0.103,-0.429 0.105,-0.427 0.105,-0.423L0.105,-0.126C0.105,-0.032 0.139,0.003 0.229,0.003L0.255,0.003Z" style="fill:rgb(232,232,232);fill-rule:nonzero;"/>
                    </g>
                    <g transform="matrix(10.2941,0,0,10.2941,289.451,98)">
                        <path d="M0.141,-0.604C0.147,-0.604 0.151,-0.608 0.151,-0.614L0.151,-0.67C0.151,-0.676 0.147,-0.68 0.141,-0.68L0.097,-0.68C0.091,-0.68 0.087,-0.676 0.087,-0.67L0.087,-0.614C0.087,-0.608 0.091,-0.604 0.097,-0.604L0.141,-0.604ZM0.136,-0C0.142,-0 0.146,-0.004 0.146,-0.01L0.146,-0.467C0.146,-0.473 0.142,-0.477 0.136,-0.477L0.102,-0.477C0.096,-0.477 0.092,-0.473 0.092,-0.467L0.092,-0.01C0.092,-0.004 0.096,-0 0.102,-0L0.136,-0Z" style="fill:rgb(232,232,232);fill-rule:nonzero;"/>
                    </g>
                    <g transform="matrix(10.2941,0,0,10.2941,291.901,98)">
                        <path d="M0.06,-0.238C0.06,-0.181 0.066,-0.144 0.075,-0.114C0.1,-0.036 0.165,0.01 0.253,0.01C0.328,0.01 0.379,-0.022 0.414,-0.08C0.417,-0.085 0.416,-0.09 0.411,-0.093L0.383,-0.111C0.378,-0.114 0.373,-0.112 0.37,-0.107C0.342,-0.063 0.309,-0.042 0.253,-0.042C0.191,-0.042 0.147,-0.073 0.128,-0.132C0.119,-0.158 0.115,-0.189 0.115,-0.238C0.115,-0.287 0.119,-0.319 0.128,-0.345C0.147,-0.404 0.191,-0.435 0.253,-0.435C0.309,-0.435 0.342,-0.414 0.37,-0.37C0.373,-0.365 0.378,-0.363 0.383,-0.366L0.411,-0.384C0.416,-0.387 0.417,-0.392 0.414,-0.397C0.379,-0.455 0.328,-0.487 0.253,-0.487C0.165,-0.487 0.1,-0.441 0.075,-0.363C0.066,-0.333 0.06,-0.295 0.06,-0.238Z" style="fill:rgb(232,232,232);fill-rule:nonzero;"/>
                    </g>
                    <g transform="matrix(10.2941,0,0,10.2941,296.616,98)">
                        <path d="M0.25,-0.437C0.347,-0.437 0.374,-0.405 0.374,-0.327L0.374,-0.278C0.374,-0.274 0.372,-0.272 0.368,-0.272L0.247,-0.272C0.131,-0.272 0.066,-0.226 0.066,-0.131C0.066,-0.038 0.13,0.01 0.226,0.01C0.304,0.01 0.355,-0.02 0.374,-0.06L0.375,-0.06L0.375,-0.01C0.375,-0.004 0.379,-0 0.385,-0L0.417,-0C0.423,-0 0.427,-0.004 0.427,-0.01L0.427,-0.329C0.427,-0.446 0.377,-0.487 0.253,-0.487C0.186,-0.487 0.135,-0.47 0.101,-0.441C0.096,-0.437 0.095,-0.432 0.098,-0.427L0.115,-0.402C0.119,-0.397 0.125,-0.397 0.13,-0.401C0.158,-0.424 0.192,-0.437 0.25,-0.437ZM0.237,-0.04C0.161,-0.04 0.119,-0.072 0.119,-0.132C0.119,-0.195 0.159,-0.226 0.254,-0.226L0.368,-0.226C0.372,-0.226 0.374,-0.224 0.374,-0.22L0.374,-0.147C0.374,-0.082 0.319,-0.04 0.237,-0.04Z" style="fill:rgb(232,232,232);fill-rule:nonzero;"/>
                    </g>
                    <g transform="matrix(10.2941,0,0,10.2941,301.897,98)">
                        <path d="M0.213,0.003C0.219,0.003 0.223,-0.001 0.223,-0.007L0.223,-0.039C0.223,-0.045 0.219,-0.049 0.213,-0.049L0.196,-0.049C0.16,-0.049 0.145,-0.064 0.145,-0.111L0.145,-0.67C0.145,-0.676 0.141,-0.68 0.135,-0.68L0.101,-0.68C0.095,-0.68 0.091,-0.676 0.091,-0.67L0.091,-0.109C0.091,-0.03 0.118,0.003 0.19,0.003L0.213,0.003Z" style="fill:rgb(232,232,232);fill-rule:nonzero;"/>
                    </g>
                </g>
                <g transform="matrix(0.707107,-0.707107,0.707107,0.707107,-224.465,269.538)">
                    <g transform="matrix(10.2941,0,0,10.2941,274,98)">
                        <path d="M0.094,-0.01C0.094,-0.004 0.098,-0 0.104,-0L0.141,-0C0.147,-0 0.151,-0.004 0.151,-0.01L0.151,-0.67C0.151,-0.676 0.147,-0.68 0.141,-0.68L0.104,-0.68C0.098,-0.68 0.094,-0.676 0.094,-0.67L0.094,-0.01Z" style="fill:rgb(232,232,232);fill-rule:nonzero;"/>
                    </g>
                    <g transform="matrix(10.2941,0,0,10.2941,276.522,98)">
                        <path d="M0.445,-0C0.451,-0 0.455,-0.004 0.455,-0.01L0.455,-0.305C0.455,-0.421 0.394,-0.487 0.288,-0.487C0.221,-0.487 0.171,-0.457 0.147,-0.41L0.146,-0.41L0.146,-0.467C0.146,-0.473 0.142,-0.477 0.136,-0.477L0.102,-0.477C0.096,-0.477 0.092,-0.473 0.092,-0.467L0.092,-0.01C0.092,-0.004 0.096,-0 0.102,-0L0.136,-0C0.142,-0 0.146,-0.004 0.146,-0.01L0.146,-0.302C0.146,-0.385 0.203,-0.435 0.276,-0.435C0.359,-0.435 0.401,-0.387 0.401,-0.292L0.401,-0.01C0.401,-0.004 0.405,-0 0.411,-0L0.445,-0Z" style="fill:rgb(232,232,232);fill-rule:nonzero;"/>
                    </g>
                    <g transform="matrix(10.2941,0,0,10.2941,282.091,98)">
                        <path d="M0.152,-0C0.158,-0 0.162,-0.004 0.162,-0.01L0.162,-0.423C0.162,-0.427 0.164,-0.429 0.168,-0.429L0.269,-0.429C0.275,-0.429 0.279,-0.433 0.279,-0.439L0.279,-0.467C0.279,-0.473 0.275,-0.477 0.269,-0.477L0.168,-0.477C0.164,-0.477 0.162,-0.479 0.162,-0.483L0.162,-0.541C0.162,-0.613 0.175,-0.628 0.248,-0.628L0.269,-0.628C0.275,-0.628 0.279,-0.632 0.279,-0.638L0.279,-0.67C0.279,-0.676 0.275,-0.68 0.269,-0.68L0.241,-0.68C0.144,-0.68 0.108,-0.648 0.108,-0.534L0.108,-0.483C0.108,-0.479 0.106,-0.477 0.102,-0.477L0.051,-0.477C0.045,-0.477 0.041,-0.473 0.041,-0.467L0.041,-0.439C0.041,-0.433 0.045,-0.429 0.051,-0.429L0.102,-0.429C0.106,-0.429 0.108,-0.427 0.108,-0.423L0.108,-0.01C0.108,-0.004 0.112,-0 0.118,-0L0.152,-0Z" style="fill:rgb(232,232,232);fill-rule:nonzero;"/>
                    </g>
                    <g transform="matrix(10.2941,0,0,10.2941,285.221,98)">
                        <path d="M0.254,0.01C0.342,0.01 0.407,-0.035 0.433,-0.114C0.443,-0.146 0.449,-0.181 0.449,-0.239C0.449,-0.296 0.443,-0.331 0.433,-0.363C0.407,-0.442 0.342,-0.487 0.254,-0.487C0.167,-0.487 0.102,-0.442 0.076,-0.363C0.066,-0.331 0.06,-0.296 0.06,-0.239C0.06,-0.181 0.066,-0.146 0.076,-0.114C0.102,-0.035 0.167,0.01 0.254,0.01ZM0.254,-0.042C0.193,-0.042 0.147,-0.074 0.128,-0.131C0.119,-0.158 0.115,-0.187 0.115,-0.239C0.115,-0.29 0.119,-0.319 0.128,-0.346C0.147,-0.403 0.193,-0.435 0.254,-0.435C0.316,-0.435 0.362,-0.403 0.381,-0.346C0.39,-0.319 0.394,-0.29 0.394,-0.239C0.394,-0.187 0.39,-0.158 0.381,-0.131C0.362,-0.074 0.316,-0.042 0.254,-0.042Z" style="fill:rgb(232,232,232);fill-rule:nonzero;"/>
                    </g>
                </g>
            </g>
        </g>
    </g>
</svg>
